<?xml version="1.0" encoding="UTF-8" standalone="no"?>
<!-- Generator: Adobe Illustrator 19.0.0, SVG Export Plug-In . SVG Version: 6.00 Build 0)  -->

<svg
   xmlns:dc="http://purl.org/dc/elements/1.1/"
   xmlns:cc="http://creativecommons.org/ns#"
   xmlns:rdf="http://www.w3.org/1999/02/22-rdf-syntax-ns#"
   xmlns:svg="http://www.w3.org/2000/svg"
   xmlns="http://www.w3.org/2000/svg"
   xmlns:sodipodi="http://sodipodi.sourceforge.net/DTD/sodipodi-0.dtd"
   xmlns:inkscape="http://www.inkscape.org/namespaces/inkscape"
   version="1.1"
   id="layer"
   x="0px"
   y="0px"
   viewBox="-153 -46 65.73092 25.897342"
   xml:space="preserve"
   sodipodi:docname="classen-grey.svg"
   width="65.730919"
   height="25.897341"
   inkscape:version="0.92.4 (5da689c313, 2019-01-14)"><metadata
   id="metadata28"><rdf:RDF><cc:Work
       rdf:about=""><dc:format>image/svg+xml</dc:format><dc:type
         rdf:resource="http://purl.org/dc/dcmitype/StillImage" /><dc:title></dc:title></cc:Work></rdf:RDF></metadata><defs
   id="defs26" /><sodipodi:namedview
   pagecolor="#ffffff"
   bordercolor="#666666"
   borderopacity="1"
   objecttolerance="10"
   gridtolerance="10"
   guidetolerance="10"
   inkscape:pageopacity="0"
   inkscape:pageshadow="2"
   inkscape:window-width="1366"
   inkscape:window-height="705"
   id="namedview24"
   showgrid="false"
   fit-margin-top="0"
   fit-margin-left="0"
   fit-margin-right="0"
   fit-margin-bottom="0"
   inkscape:zoom="1.7073952"
   inkscape:cx="198.8357"
   inkscape:cy="-60.17488"
   inkscape:window-x="-4"
   inkscape:window-y="-4"
   inkscape:window-maximized="1"
   inkscape:current-layer="layer" />
<style
   type="text/css"
   id="style2">
	.st0{fill:#A8A8A7;}
	.st1{fill:url(#Path_3636_1_);}
	.st2{fill:#444444;}
	.st3{fill:#FFFFFF;}
</style>

<radialGradient
   id="Path_3636_1_"
   cx="3182.4531"
   cy="1.0434"
   r="79.137398"
   gradientTransform="matrix(0.47552532,0,0,-0.40241296,-1460.0064,-12.678507)"
   gradientUnits="userSpaceOnUse">
	<stop
   offset="0"
   style="stop-color:#9BA2A7"
   id="stop5" />
	<stop
   offset="0.227"
   style="stop-color:#90989D"
   id="stop7" />
	<stop
   offset="0.635"
   style="stop-color:#767D82"
   id="stop9" />
	<stop
   offset="1"
   style="stop-color:#575E62"
   id="stop11" />
</radialGradient>








<g
   id="g867"
   transform="matrix(0.23035654,0,0,0.39780481,-117.75545,-27.700979)"><path
     style="fill:#090909;fill-opacity:1;stroke-width:0.43744433"
     inkscape:connector-curvature="0"
     d="M 98.390951,-31.765758 H 86.027293 L 78.989518,4.1294777 H 91.638492 L 94.729406,-15.427792 105.47628,4.1294777 h 12.36366 l 7.03777,-35.8952357 h -12.55387 l -3.37623,19.637752 z"
     class="st0"
     id="Path_3635" /><path
     style="fill:url(#Path_3636_1_);stroke-width:0.43744433"
     inkscape:connector-curvature="0"
     d="m 90.592336,-44.683214 c -0.475525,-2.696167 -8.131483,-0.885309 -4.945463,2.132788 0.475525,0.482896 -0.760841,3.500993 -3.94686,4.828956 0,0 -16.833597,-9.577429 -38.565104,0.643861 -8.179035,3.983888 -14.123102,10.623702 -16.358071,18.390272 -3.851755,12.5150429 1.759444,30.341937 -9.272744,37.786577 0,0 30.528726,0.32193 54.304992,-8.853085 10.223794,-4.0241299 17.309122,-12.1528717 18.925908,-21.609576 0,0 3.851755,-14.567349 -5.611199,-23.782606 0.04755,0.04024 6.229382,-3.903406 5.468541,-9.537187 z"
     class="st1"
     id="Path_3636" /><path
     style="fill:#020202;fill-opacity:1;stroke-width:0.43744433"
     inkscape:connector-curvature="0"
     d="m -111.45837,-18.043476 c 0.76084,-9.255498 -5.04057,-14.647832 -17.30912,-14.647832 -11.2224,0 -21.4462,7.203192 -23.77627,18.832926 -2.33007,11.7102175 4.37483,18.9938921 17.59444,18.9938921 10.65177,0 19.16367,-5.55329887 22.11193,-14.8892795 h -12.64898 c -1.14126,3.4205101 -3.66154,6.0361944 -7.94127,6.0361944 -6.65736,0 -6.94267,-4.748473 -5.99162,-9.818876 1.33147,-6.961744 4.85036,-10.462737 9.46295,-10.462737 4.13708,0 6.37204,2.132788 5.99162,5.875229 h 12.45877 z"
     class="st0"
     id="Path_3637" /><path
     style="fill:#020202;fill-opacity:1;stroke-width:0.43744433"
     inkscape:connector-curvature="0"
     d="m -89.917073,4.1294777 4.755253,-8.3299483 h -11.412607 l 5.420988,-27.5652874 h -12.934291 l -6.94267,35.8952357 z"
     class="st0"
     id="Path_3638" /><path
     style="fill:#020202;fill-opacity:1;stroke-width:0.43744433"
     inkscape:connector-curvature="0"
     d="m -57.486246,-8.063635 h -8.321693 l 6.562249,-12.836973 z m -14.788838,12.1931127 2.42518,-4.74847295 h 13.124498 l 0.665736,4.74847295 h 13.124499 l -7.32309,-35.8952357 H -63.715628 L -85.16182,4.1294777 Z"
     class="st0"
     id="Path_3639" /><path
     style="fill:#020202;fill-opacity:1;stroke-width:0.43744433"
     inkscape:connector-curvature="0"
     d="m -2.2302063,-21.303021 c 0.2853152,-6.317884 -3.75665,-11.388287 -14.9790477,-11.388287 -10.033584,0 -18.165065,3.863164 -19.734298,11.468769 -2.710495,13.7222821 21.160874,9.979842 20.114718,15.3721753 -0.285315,1.7303757 -2.710494,2.6156842 -5.991619,2.6156842 -1.283918,0 -2.520284,-0.3219304 -3.56644,-0.8853085 -1.093708,-0.6438607 -1.711891,-1.7303757 -1.664338,-2.857132 h -12.648971 c -0.951051,6.47884864 4.850358,12.0321475 15.45457,12.0321475 11.127293,0 19.6391959,-4.0241296 21.255982,-12.3540779 2.6153893,-13.0784216 -21.255982,-9.7383936 -20.209826,-15.1307276 0.285315,-1.327962 1.664339,-2.052306 4.612596,-2.052306 1.14126,-0.04024 2.282521,0.160965 3.281124,0.643861 0.998603,0.523137 1.569234,1.488928 1.474129,2.454719 h 12.5538682 z"
     class="st0"
     id="Path_3640" /><path
     style="fill:#444444;stroke-width:0.43744433"
     inkscape:connector-curvature="0"
     d="m 73.853845,5.8598534 1.664339,-8.3299483 H 55.118147 l 1.141261,-5.6337814 h 16.548281 l 1.664339,-8.3299487 H 57.923747 l 0.95105,-5.150885 h 19.639196 l 1.664339,-8.410431 H 47.414637 l -7.13288,35.8952357 h 33.572088 z"
     class="st2"
     id="Path_3641" /><path
     style="fill:#ffffff;stroke-width:0.43744433"
     inkscape:connector-curvature="0"
     d="m 71.809086,4.1294777 1.664339,-8.3299483 H 53.073388 L 54.214649,-9.834252 H 70.76293 L 72.427269,-18.1642 H 55.878988 l 0.95105,-5.150886 h 19.639196 l 1.664339,-8.410431 H 45.369878 l -7.13288,35.895236 h 33.572088 z"
     class="st3"
     id="Path_3641_1_" /><path
     style="fill:#020202;fill-opacity:1;stroke-width:0.43744433"
     inkscape:connector-curvature="0"
     d="m 37.904131,-21.303021 c 0.285315,-6.317884 -3.75665,-11.388287 -14.979048,-11.388287 -10.033584,0 -18.1650671,3.863164 -19.7343006,11.468769 -2.71049437,13.7222821 21.1608766,9.979842 20.1147206,15.3721753 -0.285315,1.7303757 -2.710494,2.6156842 -5.991619,2.6156842 -1.283918,0 -2.520284,-0.3219304 -3.56644,-0.8853085 -1.093708,-0.6438607 -1.711891,-1.7303757 -1.664338,-2.857132 H -0.56586767 C -1.5169183,-0.49827136 4.2844906,5.0550275 14.888705,5.0550275 c 11.127293,0 19.639196,-4.0241296 21.255982,-12.3540779 2.615389,-13.0784216 -21.255982,-9.7383936 -20.209826,-15.1307276 0.285315,-1.327962 1.664339,-2.052306 4.612596,-2.052306 1.14126,-0.04024 2.282521,0.160965 3.281124,0.643861 0.998603,0.523137 1.569234,1.488928 1.426576,2.454719 h 12.553869 z"
     class="st0"
     id="Path_3642" /><path
     style="fill:#a8a8a7;stroke-width:0.43744433"
     inkscape:connector-curvature="0"
     d="m 126.63716,0.9504153 h 0.95105 l 1.42657,1.9718235 h 0.85595 l -1.56924,-1.9718235 c 0.76084,0 1.33147,-0.52313685 1.37903,-1.12675629 0,-0.0402413 0,-0.0804826 0,-0.0804826 0,-0.88530851 -0.57063,-1.32796281 -1.94966,-1.32796281 h -1.94965 v 4.5070252 h 0.85595 z m 0,-1.9718235 h 1.04615 c 0.95105,0 1.14126,0.24144777 1.14126,0.64386073 0,0.48289555 -0.28531,0.72434333 -1.33147,0.72434333 h -0.95105 V -1.0616495 Z m -3.66155,1.64989313 c -0.0476,2.17302997 2.04476,3.98388827 4.6126,4.02412957 2.56783,0.040241 4.7077,-1.7303757 4.75525,-3.90340568 0.0476,-2.17303002 -2.04476,-3.98388832 -4.6126,-4.02412962 0,0 0,0 0,0 -2.61539,-0.040241 -4.7077,1.7303757 -4.75525,3.90340573 z m 8.5119,0 c -0.0475,1.77061707 -1.75944,3.13882107 -3.85175,3.09857977 -2.09231,-0.040241 -3.7091,-1.4889279 -3.66155,-3.25954496 0.0476,-1.73037574 1.71189,-3.09857974 3.75665,-3.09857974 2.04476,0 3.75665,1.368204 3.75665,3.13882104 0,0 0,0.0804826 0,0.12072389 z"
     class="st0"
     id="Path_3643" /></g>
</svg>