<?xml version="1.0" encoding="UTF-8" standalone="no"?>
<svg
   xmlns:dc="http://purl.org/dc/elements/1.1/"
   xmlns:cc="http://creativecommons.org/ns#"
   xmlns:rdf="http://www.w3.org/1999/02/22-rdf-syntax-ns#"
   xmlns:svg="http://www.w3.org/2000/svg"
   xmlns="http://www.w3.org/2000/svg"
   xmlns:sodipodi="http://sodipodi.sourceforge.net/DTD/sodipodi-0.dtd"
   xmlns:inkscape="http://www.inkscape.org/namespaces/inkscape"
   id="svg16"
   version="1.1"
   viewBox="0 0 18.136062 4.7407543"
   height="61.486473"
   width="235.22047"
   sodipodi:docname="classen.svg"
   inkscape:version="0.92.4 (5da689c313, 2019-01-14)">
  <sodipodi:namedview
     pagecolor="#ffffff"
     bordercolor="#666666"
     borderopacity="1"
     objecttolerance="10"
     gridtolerance="10"
     guidetolerance="10"
     inkscape:pageopacity="0"
     inkscape:pageshadow="2"
     inkscape:window-width="1366"
     inkscape:window-height="705"
     id="namedview4289"
     showgrid="false"
     fit-margin-top="0"
     fit-margin-left="0"
     fit-margin-right="0"
     fit-margin-bottom="0"
     inkscape:zoom="0.90215555"
     inkscape:cx="280.0968"
     inkscape:cy="-44.830636"
     inkscape:window-x="-4"
     inkscape:window-y="-4"
     inkscape:window-maximized="1"
     inkscape:current-layer="svg16" />
  <metadata
     id="metadata22">
    <rdf:RDF>
      <cc:Work
         rdf:about="">
        <dc:format>image/svg+xml</dc:format>
        <dc:type
           rdf:resource="http://purl.org/dc/dcmitype/StillImage" />
        <dc:title></dc:title>
      </cc:Work>
    </rdf:RDF>
  </metadata>
  <defs
     id="defs20" />
  <g
     id="g4848"
     transform="matrix(2.3419882,0,0,2.4219052,-0.03538313,-7.866962)">
    <path
       style="clip-rule:evenodd;fill:#ffffff;fill-rule:evenodd;stroke-width:0.02019838"
       d="M 0.01510816,3.2482535 H 7.7589822 V 5.2057019 H 0.01510816 Z"
       id="path2"
       inkscape:connector-curvature="0" />
    <path
       style="clip-rule:evenodd;fill:#2566af;fill-rule:evenodd;stroke-width:0.03758274"
       d="M 6.0057272,4.6624265 6.2395829,3.752568 H 6.5617422 L 6.7524103,4.175767 6.7865583,4.252342 6.8041143,4.182026 6.9045511,3.752568 H 7.228237 L 7.0010904,4.6624265 H 6.6774045 l -0.1917126,-0.4199644 -0.035354,-0.08002 -0.01611,0.073762 -0.106382,0.4262226 z"
       id="path4"
       inkscape:connector-curvature="0" />
    <path
       style="clip-rule:evenodd;fill:#35aa95;fill-rule:evenodd;stroke-width:0.03758274"
       d="m 5.5690707,3.4196552 c 0.1826734,0.00457 0.4455351,0.081883 0.6121789,0.1433399 0.00273,9.844e-4 0.037684,-0.042928 0.062471,-0.086454 0.015226,-0.02658 0.018842,-0.044651 0.027319,-0.065675 0.013338,-0.033189 0.00394,-0.012798 0.021333,-0.056288 0.013017,-0.03231 0.014905,-0.058152 0.016391,-0.056675 0.00996,0.010055 0.055561,0.027599 0.084045,0.058046 0.00273,0.00295 0.00739,0.010336 0.013659,0.017649 0.00157,0.00183 0.00297,0.00499 -0.00848,0.028056 -0.00249,0.00513 -0.00354,0.016489 -0.011852,0.033119 -0.012012,0.024119 -0.026676,0.048975 -0.046763,0.080829 -0.00824,0.013149 -0.02306,0.033998 -0.033827,0.048729 -0.001,0.00141 -0.06906,0.066343 -0.061989,0.085223 0.015306,0.041241 0.036639,0.076891 0.051624,0.102908 0.07838,0.1359215 0.1102388,0.3012001 0.080269,0.4777645 C 6.3353589,4.4667361 6.2335969,4.593411 6.0346127,4.7330945 5.9641466,4.7825269 5.8489664,4.8377604 5.7475258,4.8656408 a 3.5853322,3.1376566 0 0 1 -0.3565486,0.081567 c -0.178897,0.033154 -0.4164889,0.074922 -0.5996444,0.109799 -0.1099978,0.020954 -0.1955293,0.042717 -0.2516531,0.053757 -0.012173,0.00239 0.039331,-0.059452 0.053432,-0.080196 0.020248,-0.029533 0.07605,-0.070457 0.095013,-0.1281867 0.046,-0.1402108 0.090393,-0.3125914 0.076492,-0.4135305 -0.012856,-0.094013 -0.041259,-0.022712 0.00534,-0.2975437 C 4.8166797,3.9164754 5.055517,3.4068224 5.5690675,3.4196552 Z"
       id="path6"
       inkscape:connector-curvature="0" />
    <path
       style="clip-rule:evenodd;fill:#2566af;fill-rule:evenodd;stroke-width:0.03758274"
       d="M 0.8492511,4.3191772 H 1.1708077 C 1.1313564,4.4389963 1.0588414,4.5319897 0.95398599,4.5980519 0.84913057,4.6641141 0.72414773,4.697198 0.57297113,4.697198 0.40359548,4.697198 0.28090259,4.6544808 0.2052942,4.5691167 0.12956528,4.4836823 0.11020118,4.366465 0.14728223,4.2178865 0.18428294,4.0696596 0.26161883,3.9526532 0.37904886,3.8670079 0.49643872,3.7813625 0.63833502,3.7385047 0.80445654,3.7385047 c 0.15290411,0 0.26543286,0.031888 0.33738536,0.09549 0.071953,0.063601 0.095254,0.1546609 0.076291,0.2726517 H 0.89292077 c 0.006789,-0.046338 -0.002009,-0.081497 -0.026234,-0.1051581 -0.0242252,-0.023661 -0.0704259,-0.035686 -0.12486231,-0.035686 -0.0664486,0 -0.11473834,0.020919 -0.15836784,0.062617 -0.0435893,0.041733 -0.0760503,0.1050175 -0.0971017,0.1894674 -0.0206497,0.082692 -0.0185204,0.1453088 0.006227,0.1877447 0.0247475,0.042366 0.0713901,0.063601 0.13976705,0.063601 0.0525081,0 0.0975838,-0.012973 0.13474524,-0.038815 0.0373623,-0.025982 0.0648015,-0.063109 0.0821569,-0.1112402 z M 1.2064023,4.6686144 1.4386109,3.7587558 1.7781255,3.7619904 1.6062188,4.4269722 1.9061214,4.426269 1.746709,4.6606335 Z M 2.3985401,4.3605584 H 2.6116256 L 2.5848292,4.0456466 Z M 1.8843067,4.6718489 2.4833887,3.7619904 H 2.8270814 L 2.9717096,4.6718489 H 2.6350875 L 2.6256465,4.551397 H 2.2892253 l -0.071149,0.1204519 z m 1.1640558,-0.2921996 0.3233645,0.00563 c 7.633e-4,0.032838 0.018279,0.051014 0.038487,0.065359 0.020288,0.014415 0.054155,0.021693 0.1014808,0.021693 0.039733,0 0.072515,-0.00598 0.097945,-0.017579 0.025631,-0.011673 0.041139,-0.027951 0.046281,-0.048483 0.0082,-0.032908 -0.032742,-0.060015 -0.1227732,-0.080407 -0.018038,-0.00404 -0.032019,-0.007 -0.04142,-0.00921 -0.07364,-0.017016 -0.1318929,-0.033014 -0.1743975,-0.047182 -0.042665,-0.014133 -0.073198,-0.027318 -0.090834,-0.039904 -0.034671,-0.024716 -0.05749,-0.055233 -0.06898,-0.090075 -0.01153,-0.034982 -0.011771,-0.075098 -6.026e-4,-0.1199598 0.022498,-0.090075 0.079746,-0.1610947 0.1714647,-0.2125312 0.091678,-0.051436 0.2067781,-0.077243 0.3450185,-0.077243 0.1357496,0 0.2367885,0.024611 0.3023934,0.073797 0.065605,0.049257 0.092281,0.1198191 0.079345,0.2115468 H 3.732976 c 0.00133,-0.026615 -0.00747,-0.046514 -0.026355,-0.059663 -0.018882,-0.013149 -0.049093,-0.0199 -0.090312,-0.0199 -0.036278,0 -0.064721,0.00527 -0.084808,0.015434 -0.020087,0.010196 -0.033023,0.025982 -0.038286,0.047007 -0.00747,0.029884 0.032702,0.054987 0.120403,0.075239 0.00759,0.00176 0.013458,0.00345 0.017476,0.00429 0.012695,0.00264 0.03222,0.00714 0.057811,0.012973 0.1161846,0.026509 0.1902664,0.051261 0.2227675,0.072988 0.040014,0.026755 0.06677,0.057238 0.079706,0.091376 0.012936,0.034209 0.01382,0.074641 0.00221,0.12112 -0.025029,0.1004469 -0.08521,0.1777246 -0.1801826,0.2316221 -0.094972,0.053897 -0.2187099,0.080829 -0.3707302,0.080829 -0.1401688,0 -0.2445823,-0.026931 -0.3132003,-0.080829 -0.068618,-0.053897 -0.095615,-0.1299447 -0.081112,-0.2279305 z m 1.0145666,0.00447 0.3352159,0.00418 c 8.035e-4,0.032908 0.01153,0.05664 0.031778,0.071019 0.020328,0.014415 0.054155,0.021693 0.101521,0.021693 0.039692,0 0.072435,-0.00598 0.097945,-0.017579 0.025591,-0.011672 0.035996,-0.027951 0.041179,-0.048483 0.00816,-0.032838 -0.032782,-0.059945 -0.1228134,-0.080336 -0.018038,-0.00411 -0.032019,-0.00707 -0.04142,-0.00921 -0.0736,-0.017087 -0.1318928,-0.033084 -0.1743573,-0.047182 -0.042665,-0.014134 -0.073198,-0.027388 -0.090875,-0.039975 -0.03467,-0.024716 -0.05753,-0.055233 -0.06898,-0.090075 -0.01153,-0.034982 -0.011851,-0.075098 -6.428e-4,-0.1199597 0.022458,-0.09004 0.079706,-0.1610596 0.1714648,-0.212496 0.091638,-0.051436 0.2067379,-0.077242 0.3450185,-0.077242 0.1357496,0 0.2367483,0.024611 0.302313,0.073797 0.065685,0.049221 0.092281,0.1198191 0.079345,0.2115467 h -0.322119 c 0.00133,-0.026615 -0.00747,-0.046514 -0.026355,-0.059663 -0.018842,-0.013149 -0.049053,-0.019864 -0.090312,-0.019864 -0.036237,0 -0.064641,0.00527 -0.084808,0.015435 -0.020087,0.010196 -0.033023,0.025982 -0.038206,0.047007 -0.00747,0.02992 0.032622,0.054987 0.1203627,0.075274 0.00759,0.00176 0.013499,0.00348 0.017516,0.00429 0.012695,0.0026 0.03226,0.00714 0.057811,0.013009 0.1161445,0.026509 0.1902664,0.047042 0.2227676,0.068769 0.039933,0.026755 0.06677,0.057238 0.079706,0.091376 0.012936,0.034209 0.01382,0.074641 0.00221,0.1211199 -0.025029,0.1004469 -0.08521,0.1777246 -0.1801424,0.2316221 -0.095013,0.053898 -0.2187501,0.080829 -0.3707703,0.080829 -0.1401287,0 -0.2445823,-0.026931 -0.3132405,-0.080829 C 4.0753832,4.558288 4.0484261,4.4820299 4.0629291,4.3841144 Z"
       id="path8"
       inkscape:connector-curvature="0" />
    <path
       style="clip-rule:evenodd;fill:#ffffff;fill-rule:evenodd;stroke-width:0.03758274"
       d="M 5.033143,4.6708645 5.2603297,3.761006 H 6.1049984 L 6.0505218,3.9791273 H 5.5452874 l -0.030211,0.1210848 h 0.427095 L 5.8900649,4.3089813 H 5.4629699 L 5.4278172,4.449825 H 5.953862 l -0.05516,0.2210395 z"
       id="path10"
       inkscape:connector-curvature="0" />
    <path
       style="fill:none;stroke:#2566af;stroke-width:0.03314797;stroke-miterlimit:2.61299992"
       d="m 7.4930672,4.4024669 c 0.083724,0 0.1520604,0.059593 0.1520604,0.1326519 a 0.15210062,0.13310887 0 0 1 -0.3041208,0 0.15210062,0.13310887 0 0 1 0.1520604,-0.1326519 z"
       stroke-miterlimit="2.613"
       id="path12"
       inkscape:connector-curvature="0" />
    <path
       style="clip-rule:evenodd;fill:#2566af;fill-rule:evenodd;stroke-width:0.03758274"
       d="m 7.460325,4.4686346 v 0.055058 h 0.024627 c 0.015628,0 0.027479,-0.00218 0.035313,-0.00654 0.00783,-0.00447 0.011771,-0.01111 0.011771,-0.02004 0,-0.00995 -0.00378,-0.017227 -0.011289,-0.021693 -0.00755,-0.00454 -0.019686,-0.00679 -0.036559,-0.00679 z M 7.428226,4.4466256 h 0.060262 c 0.026274,0 0.04592,0.00404 0.058856,0.012305 0.012936,0.00816 0.019364,0.020532 0.019364,0.037092 0,0.012622 -0.00394,0.022853 -0.011771,0.030623 -0.00783,0.00784 -0.019284,0.013044 -0.034349,0.015645 l 0.057811,0.076434 H 7.539791 L 7.487604,4.5463336 H 7.460285 v 0.072391 h -0.0321 v -0.172099 z"
       id="path14"
       inkscape:connector-curvature="0" />
  </g>
</svg>
