<?xml version="1.0" encoding="UTF-8" standalone="no"?>
<!-- Generator: Adobe Illustrator 13.0.0, SVG Export Plug-In . SVG Version: 6.00 Build 14948)  -->

<svg
   xmlns:dc="http://purl.org/dc/elements/1.1/"
   xmlns:cc="http://creativecommons.org/ns#"
   xmlns:rdf="http://www.w3.org/1999/02/22-rdf-syntax-ns#"
   xmlns:svg="http://www.w3.org/2000/svg"
   xmlns="http://www.w3.org/2000/svg"
   xmlns:sodipodi="http://sodipodi.sourceforge.net/DTD/sodipodi-0.dtd"
   xmlns:inkscape="http://www.inkscape.org/namespaces/inkscape"
   version="1.1"
   x="0px"
   y="0px"
   width="234.48161"
   height="61.271328"
   viewBox="0 0 234.48162 61.271329"
   enable-background="new 0 0 595 595"
   xml:space="preserve"
   id="svg73"
   sodipodi:docname="paradise.svg"
   inkscape:version="0.92.4 (5da689c313, 2019-01-14)"><metadata
   id="metadata79"><rdf:RDF><cc:Work
       rdf:about=""><dc:format>image/svg+xml</dc:format><dc:type
         rdf:resource="http://purl.org/dc/dcmitype/StillImage" /><dc:title></dc:title></cc:Work></rdf:RDF></metadata><defs
   id="defs77">


</defs><sodipodi:namedview
   pagecolor="#ffffff"
   bordercolor="#666666"
   borderopacity="1"
   objecttolerance="10"
   gridtolerance="10"
   guidetolerance="10"
   inkscape:pageopacity="0"
   inkscape:pageshadow="2"
   inkscape:window-width="1366"
   inkscape:window-height="705"
   id="namedview75"
   showgrid="false"
   showborder="false"
   inkscape:zoom="1.3229691"
   inkscape:cx="192.95527"
   inkscape:cy="20.337242"
   inkscape:window-x="-4"
   inkscape:window-y="-4"
   inkscape:window-maximized="1"
   inkscape:current-layer="svg73"
   fit-margin-top="0"
   fit-margin-left="0"
   fit-margin-right="0"
   fit-margin-bottom="0" />



<g
   id="g4905"
   transform="matrix(0.72106013,0,0,0.62808017,13.001125,-33.207713)"><g
     transform="translate(163.26912,58.958293)"
     id="g4887"><g
       id="abstract"
       transform="matrix(0.47707815,0,0,0.25541405,-65.884607,-34.253324)">
	<g
   id="g45">
		<path
   d="m 339.253,394.516 c -0.557,0 -1.11,-0.232 -1.506,-0.683 C 249.979,293.588 208.951,279.77 177.688,279.77 c -8.31,0 -16.241,1.069 -23.911,2.105 -7.78,1.049 -15.823,2.134 -24.354,2.134 -1.028,0 -1.888,-0.777 -1.989,-1.799 -0.104,-1.022 0.585,-1.957 1.59,-2.161 82.153,-16.696 86.86,-102.539 83.254,-165.656 -0.06,-1.063 0.724,-1.989 1.785,-2.103 0.072,-0.008 0.143,-0.01 0.213,-0.01 0.974,0 1.82,0.705 1.975,1.688 8.315,52.777 20.449,96.675 38.18,138.15 20.195,47.237 48.447,92.747 86.371,139.133 0.69,0.844 0.577,2.087 -0.257,2.792 -0.376,0.317 -0.835,0.473 -1.292,0.473 z"
   id="path41"
   inkscape:connector-curvature="0"
   style="fill:#999999" />
		<path
   d="m 214.276,114.28 c 15.132,96.035 45.386,180.884 124.977,278.235 C 253.244,294.281 210.997,277.77 177.689,277.77 c -16.873,0 -31.457,4.24 -48.265,4.24 80.905,-16.444 88.799,-98.665 84.852,-167.73 z m 0.004,-4.001 c -0.142,0 -0.286,0.008 -0.43,0.023 -2.12,0.227 -3.689,2.077 -3.567,4.206 3.564,62.375 -1.022,147.194 -81.655,163.582 -2.013,0.409 -3.389,2.276 -3.183,4.32 0.206,2.044 1.926,3.6 3.98,3.6 8.665,0 16.776,-1.094 24.62,-2.153 7.955,-1.073 15.468,-2.087 23.645,-2.087 13.016,0 31.469,2.262 58.854,19.897 27.544,17.739 60.156,48.317 99.701,93.482 0.79,0.902 1.897,1.365 3.012,1.365 0.913,0 1.831,-0.311 2.582,-0.947 1.666,-1.41 1.895,-3.895 0.513,-5.585 C 271.451,303.26 235.49,223.203 218.229,113.656 c -0.311,-1.961 -2.004,-3.377 -3.949,-3.377 z"
   id="path43"
   inkscape:connector-curvature="0"
   style="fill:#1a1a1a" />
	</g>
	<g
   id="g51"
   style="fill:#bf912f;fill-opacity:1">
		<path
   d="m 277.421,490.219 c -0.88,0 -1.678,-0.585 -1.925,-1.463 -8.939,-32.009 -22.739,-57.055 -41.012,-74.444 -21.43,-20.389 -49.817,-31.033 -84.375,-31.637 -1.019,-0.019 -1.861,-0.799 -1.957,-1.813 -0.095,-1.017 0.589,-1.94 1.587,-2.145 85.676,-17.694 130.679,-130.213 166.134,-234.288 0.004,-0.014 0.011,-0.031 0.017,-0.045 l 1.143,-3.365 c 0.007,-0.021 0.015,-0.042 0.023,-0.062 2.668,-7.871 5.541,-16.48 8.783,-26.316 0.278,-0.84 1.061,-1.374 1.9,-1.374 0.199,0 0.402,0.029 0.604,0.093 1.045,0.332 1.628,1.44 1.309,2.49 -1.699,5.583 -4.089,12.572 -6.854,20.667 l -1.958,5.732 c -0.007,0.019 -0.013,0.04 -0.019,0.058 l -1.146,3.365 c -0.004,0.015 -0.011,0.029 -0.015,0.043 -11.982,35.353 -25.482,78.925 -34.741,134.059 -11.495,68.442 -13.35,138.497 -5.51,208.221 0.116,1.037 -0.583,1.987 -1.605,2.187 -0.128,0.024 -0.257,0.037 -0.383,0.037 z"
   id="path47"
   inkscape:connector-curvature="0"
   style="fill:#bf912f;fill-opacity:1" />
		<path
   d="m 327.74,115.266 c -2.075,6.817 -5.153,15.65 -8.81,26.386 2.968,-8.756 5.902,-17.568 8.81,-26.386 z m -8.809,26.386 c -0.39,1.148 -0.775,2.284 -1.166,3.431 0.395,-1.168 0.782,-2.306 1.166,-3.431 z m -1.166,3.431 C 296.808,206.907 259.318,327.203 277.422,488.22 260.98,429.349 225.461,381.99 150.144,380.676 233.653,363.429 279.03,258.775 317.765,145.083 Z m 9.974,-33.818 c -1.681,0 -3.243,1.068 -3.798,2.749 -3.24,9.825 -6.117,18.441 -8.795,26.341 -0.001,0.002 -0.002,0.004 -0.003,0.007 -0.384,1.127 -0.771,2.267 -1.168,3.436 -0.001,0.005 -0.003,0.011 -0.005,0.016 -17.263,50.668 -38.676,108.478 -66.617,153.11 -28.83,46.053 -60.892,72.167 -98.019,79.834 -1.996,0.413 -3.363,2.26 -3.174,4.289 0.19,2.03 1.875,3.592 3.913,3.628 63.748,1.112 104.144,35.334 123.495,104.621 0.49,1.755 2.088,2.925 3.85,2.925 0.253,0 0.509,-0.024 0.767,-0.074 2.046,-0.398 3.444,-2.302 3.21,-4.374 -16.683,-148.381 12.697,-260.396 40.156,-341.406 0,-10e-4 0.001,-0.002 0.001,-0.003 0.387,-1.135 0.769,-2.259 1.154,-3.396 0.003,-0.009 0.006,-0.018 0.009,-0.026 0.68,-1.995 1.339,-3.924 1.976,-5.786 2.771,-8.107 5.166,-15.109 6.875,-20.725 0.638,-2.096 -0.53,-4.315 -2.618,-4.978 -0.401,-0.127 -0.808,-0.188 -1.209,-0.188 z"
   id="path49"
   inkscape:connector-curvature="0"
   style="fill:#bf912f;fill-opacity:1" />
	</g>
	
	
</g><g
       transform="matrix(0.47707815,0,0,0.25541405,-69.448857,-43.326654)"
       id="g57">
		<path
   d="m 443.179,358.009 c -0.26,0 -0.523,-0.05 -0.776,-0.157 -13.855,-5.849 -25.858,-11.476 -37.467,-16.917 -36.803,-17.248 -65.871,-30.87 -114.535,-30.87 -33.121,0 -73.776,6.123 -127.945,19.274 -0.159,0.038 -0.316,0.056 -0.474,0.056 -0.896,0 -1.713,-0.609 -1.939,-1.518 -0.266,-1.068 0.383,-2.148 1.449,-2.421 147.844,-37.527 208.578,-60.604 260.198,-154.914 0.362,-0.662 1.048,-1.039 1.755,-1.039 0.309,0 0.618,0.069 0.909,0.218 0.964,0.49 1.361,1.659 0.898,2.637 -17.884,37.835 -25.911,72.065 -23.86,101.744 2.247,32.543 16.724,59.572 43.026,80.335 0.785,0.622 0.99,1.728 0.481,2.588 -0.368,0.628 -1.031,0.984 -1.72,0.984 z"
   id="path53"
   inkscape:connector-curvature="0"
   style="fill:#808080" />
		<path
   d="m 423.446,171.505 c -34.201,72.355 -36.507,140.104 19.732,184.504 -59.386,-25.074 -88.779,-47.941 -152.779,-47.944 -31.699,-0.002 -71.877,5.605 -128.416,19.332 150.304,-38.151 210.158,-62.16 261.463,-155.892 z m 0.003,-4.001 c -1.417,0 -2.786,0.755 -3.512,2.081 -51.24,93.612 -111.708,116.564 -258.937,153.934 -2.134,0.542 -3.429,2.705 -2.898,4.841 0.452,1.82 2.083,3.037 3.879,3.037 0.313,0 0.63,-0.037 0.947,-0.114 54.015,-13.114 94.521,-19.221 127.472,-19.219 48.22,0.002 75.683,12.873 113.691,30.685 11.625,5.448 23.645,11.081 37.532,16.944 0.506,0.213 1.033,0.315 1.554,0.315 1.378,0 2.706,-0.714 3.445,-1.965 1.019,-1.724 0.606,-3.935 -0.965,-5.175 -62.306,-49.188 -44.502,-124.847 -18.595,-179.655 0.925,-1.956 0.127,-4.292 -1.801,-5.274 -0.58,-0.294 -1.2,-0.435 -1.812,-0.435 z"
   id="path55"
   inkscape:connector-curvature="0"
   style="fill:#1a1a1a" />
	</g><g
       transform="matrix(0.47707815,0,0,0.25541405,-69.448857,-43.326654)"
       id="g63">
		<path
   d="m 346.284,479.001 c -0.299,0 -0.604,-0.066 -0.888,-0.209 -0.94,-0.468 -1.358,-1.584 -0.957,-2.556 24.517,-59.32 3.089,-171.047 -11.09,-244.979 -3.521,-18.349 -6.559,-34.196 -8.188,-45.783 -0.146,-1.045 0.544,-2.023 1.576,-2.237 0.136,-0.027 0.271,-0.042 0.405,-0.042 0.885,0 1.687,0.587 1.93,1.469 1.764,6.418 3.938,15.452 6.454,25.913 14.465,60.129 44.564,185.249 90.522,185.239 0.278,0 0.563,-0.004 0.843,-0.013 0.022,0 0.046,-0.002 0.068,-0.002 0.943,0 1.763,0.665 1.954,1.595 0.197,0.953 -0.319,1.91 -1.225,2.266 -32.774,12.912 -52.879,32.684 -79.68,78.35 -0.367,0.632 -1.033,0.989 -1.724,0.989 z"
   id="path59"
   inkscape:connector-curvature="0"
   style="fill:#cccccc" />
		<path
   d="m 327.144,185.197 c 12.298,44.724 43.452,212.62 98.908,212.62 0.3,0 0.605,-0.005 0.906,-0.015 -34.749,13.69 -55.142,35.694 -80.672,79.199 31.027,-75.066 -11.134,-234.793 -19.142,-291.804 z m 0.002,-4.001 c -0.269,0 -0.541,0.027 -0.813,0.084 -2.065,0.427 -3.444,2.385 -3.15,4.474 1.635,11.637 4.679,27.507 8.202,45.883 7.061,36.811 15.847,82.624 19.927,127.408 4.788,52.559 1.936,90.643 -8.722,116.428 -0.803,1.942 0.034,4.175 1.916,5.11 0.57,0.283 1.178,0.419 1.777,0.419 1.378,0 2.712,-0.714 3.453,-1.977 26.537,-45.222 46.394,-64.778 78.688,-77.501 1.812,-0.713 2.846,-2.627 2.451,-4.533 -0.386,-1.862 -2.026,-3.189 -3.916,-3.189 -0.044,0 -0.089,0 -0.133,0.002 -0.258,0.009 -0.519,0.013 -0.774,0.013 -18.714,0 -37.091,-22.568 -54.62,-67.078 -15.167,-38.509 -26.478,-85.523 -33.962,-116.634 -2.521,-10.475 -4.696,-19.521 -6.47,-25.969 -0.485,-1.764 -2.088,-2.94 -3.854,-2.94 z"
   id="path61"
   inkscape:connector-curvature="0"
   style="fill:#1a1a1a" />
	</g></g><text
     transform="scale(0.97120447,1.0296493)"
     id="text891"
     y="117.77474"
     x="-19.850285"
     style="font-style:normal;font-variant:normal;font-weight:bold;font-stretch:normal;font-size:76.28780365px;line-height:1.25;font-family:AngsanaUPC;-inkscape-font-specification:'AngsanaUPC, Bold';font-variant-ligatures:normal;font-variant-caps:normal;font-variant-numeric:normal;font-feature-settings:normal;text-align:start;letter-spacing:0px;word-spacing:0px;writing-mode:lr-tb;text-anchor:start;fill:#000000;fill-opacity:1;stroke:none;stroke-width:1.90720022"
     xml:space="preserve"><tspan
       style="font-style:normal;font-variant:normal;font-weight:bold;font-stretch:normal;font-size:76.28780365px;font-family:AngsanaUPC;-inkscape-font-specification:'AngsanaUPC, Bold';font-variant-ligatures:normal;font-variant-caps:normal;font-variant-numeric:normal;font-feature-settings:normal;text-align:start;writing-mode:lr-tb;text-anchor:start;fill:#000000;fill-opacity:1;stroke-width:1.90720022"
       y="117.77474"
       x="-19.850285"
       id="tspan889"
       sodipodi:role="line">Paradise </tspan></text>
</g></svg>