<?xml version="1.0" encoding="UTF-8" standalone="no"?>
<!-- Created with Inkscape (http://www.inkscape.org/) -->

<svg
   xmlns:dc="http://purl.org/dc/elements/1.1/"
   xmlns:cc="http://creativecommons.org/ns#"
   xmlns:rdf="http://www.w3.org/1999/02/22-rdf-syntax-ns#"
   xmlns:svg="http://www.w3.org/2000/svg"
   xmlns="http://www.w3.org/2000/svg"
   xmlns:sodipodi="http://sodipodi.sourceforge.net/DTD/sodipodi-0.dtd"
   xmlns:inkscape="http://www.inkscape.org/namespaces/inkscape"
   id="svg1433"
   version="1.1"
   viewBox="0 0 12.413593 5.9403615"
   height="22.451759"
   width="46.917515"
   sodipodi:docname="carnival-dropdown.svg"
   inkscape:version="0.92.4 (5da689c313, 2019-01-14)">
  <defs
     id="defs1427" />
  <sodipodi:namedview
     id="base"
     pagecolor="#ffffff"
     bordercolor="#666666"
     borderopacity="1.0"
     inkscape:pageopacity="0.0"
     inkscape:pageshadow="2"
     inkscape:zoom="6.6038574"
     inkscape:cx="41.663693"
     inkscape:cy="-7.538766"
     inkscape:document-units="px"
     inkscape:current-layer="layer1"
     showgrid="false"
     fit-margin-top="0"
     fit-margin-left="0"
     fit-margin-right="0"
     fit-margin-bottom="0"
     units="px"
     inkscape:window-width="1366"
     inkscape:window-height="705"
     inkscape:window-x="-4"
     inkscape:window-y="-4"
     inkscape:window-maximized="1" />
  <metadata
     id="metadata1430">
    <rdf:RDF>
      <cc:Work
         rdf:about="">
        <dc:format>image/svg+xml</dc:format>
        <dc:type
           rdf:resource="http://purl.org/dc/dcmitype/StillImage" />
        <dc:title></dc:title>
      </cc:Work>
    </rdf:RDF>
  </metadata>
  <g
     inkscape:label="Layer 1"
     inkscape:groupmode="layer"
     id="layer1"
     transform="translate(-42.096324,-219.20148)">
    <g
       aria-label="Carnival"
       style="font-style:normal;font-variant:normal;font-weight:bold;font-stretch:normal;font-size:10.58333302px;line-height:1.25;font-family:Aharoni;-inkscape-font-specification:'Aharoni, Bold';font-variant-ligatures:normal;font-variant-caps:normal;font-variant-numeric:normal;font-feature-settings:normal;text-align:start;letter-spacing:0px;word-spacing:0px;writing-mode:lr-tb;text-anchor:start;fill:#000000;fill-opacity:1;stroke:none;stroke-width:0.26458332"
       id="text1980"
       transform="matrix(0.30445841,0,0,0.74693341,29.462716,56.975878)">
      <path
         d="m 46.890368,224.78527 c -0.599447,0.23771 -1.154107,0.35657 -1.663981,0.35657 -0.888835,0 -1.684652,-0.28422 -2.387451,-0.85266 -0.895725,-0.72691 -1.343587,-1.67431 -1.343587,-2.8422 0,-1.17133 0.447862,-2.12046 1.343587,-2.84738 0.702799,-0.56844 1.503784,-0.85266 2.402954,-0.85266 0.489203,0 1.038696,0.11886 1.648478,0.35657 l 0.523002,2.19625 c -4.34194,3.25693 -0.994016,-0.2148 -1.173161,-0.3216 -0.327284,-0.19637 -0.555625,-0.44838 -0.93114,-0.44838 -0.475423,0 -0.888835,0.14297 -1.240234,0.42891 -0.444417,0.36174 -0.666626,0.85784 -0.666626,1.48829 0,0.62701 0.222209,1.12138 0.666626,1.48311 0.351399,0.28594 0.764811,0.42891 1.240234,0.42891 0.375515,0 0.726915,-0.0982 1.054199,-0.29455 0.1757,-0.10335 0.3514,-0.26183 0.5271,-0.47543 z"
         style="font-style:normal;font-variant:normal;font-weight:bold;font-stretch:normal;font-size:10.58333302px;font-family:Aharoni;-inkscape-font-specification:'Aharoni, Bold';font-variant-ligatures:normal;font-variant-caps:normal;font-variant-numeric:normal;font-feature-settings:normal;text-align:start;writing-mode:lr-tb;text-anchor:start;stroke-width:0.26458332"
         id="path1982"
         inkscape:connector-curvature="0"
         sodipodi:nodetypes="cscscscccscscsccc" />
      <path
         d="m 53.298245,224.95064 h -1.694987 v -0.53227 q -0.242879,0.30489 -0.490926,0.44442 -0.434082,0.24288 -0.98702,0.24288 -0.894002,0 -1.591634,-0.61495 -0.83199,-0.73381 -0.83199,-1.94304 0,-1.2299 0.852661,-1.9637 0.676961,-0.58394 1.55546,-0.58394 0.511597,0 0.961182,0.21704 0.258382,0.12402 0.532267,0.40824 v -0.47025 h 1.694987 z m -1.64331,-2.39779 q 0,-0.45475 -0.320394,-0.76998 -0.320394,-0.32039 -0.775147,-0.32039 -0.506429,0 -0.83199,0.3824 -0.26355,0.31006 -0.26355,0.70797 0,0.39791 0.26355,0.70797 0.320394,0.3824 0.83199,0.3824 0.459921,0 0.775147,-0.31522 0.320394,-0.31523 0.320394,-0.77515 z"
         style="font-style:normal;font-variant:normal;font-weight:bold;font-stretch:normal;font-size:10.58333302px;font-family:Aharoni;-inkscape-font-specification:'Aharoni, Bold';font-variant-ligatures:normal;font-variant-caps:normal;font-variant-numeric:normal;font-feature-settings:normal;text-align:start;writing-mode:lr-tb;text-anchor:start;stroke-width:0.26458332"
         id="path1984"
         inkscape:connector-curvature="0" />
      <path
         d="m 58.062812,221.72086 q -0.356567,-0.17053 -0.72347,-0.17053 -0.837158,0 -1.085205,0.68213 -0.09302,0.24804 -0.09302,0.66662 v 2.05156 H 54.46613 v -4.79557 h 1.694987 v 0.78548 q 0.268717,-0.41858 0.578776,-0.60462 0.418579,-0.24804 0.992187,-0.24804 0.134359,0 0.330729,0.0155 z"
         style="font-style:normal;font-variant:normal;font-weight:bold;font-stretch:normal;font-size:10.58333302px;font-family:Aharoni;-inkscape-font-specification:'Aharoni, Bold';font-variant-ligatures:normal;font-variant-caps:normal;font-variant-numeric:normal;font-feature-settings:normal;text-align:start;writing-mode:lr-tb;text-anchor:start;stroke-width:0.26458332"
         id="path1986"
         inkscape:connector-curvature="0" />
      <path
         d="M 63.886747,224.95064 H 62.19176 v -2.42879 q 0,-0.63562 -0.144694,-0.84233 -0.211874,-0.30489 -0.63562,-0.30489 -0.387574,0 -0.651124,0.26355 -0.237711,0.23771 -0.237711,0.74414 v 2.56832 h -1.694987 v -4.79557 h 1.694987 v 0.60461 q 0.294556,-0.34107 0.542602,-0.48059 0.403077,-0.22738 1.007691,-0.22738 0.775146,0 1.260905,0.41858 0.552938,0.47542 0.552938,1.42627 z"
         style="font-style:normal;font-variant:normal;font-weight:bold;font-stretch:normal;font-size:10.58333302px;font-family:Aharoni;-inkscape-font-specification:'Aharoni, Bold';font-variant-ligatures:normal;font-variant-caps:normal;font-variant-numeric:normal;font-feature-settings:normal;text-align:start;writing-mode:lr-tb;text-anchor:start;stroke-width:0.26458332"
         id="path1988"
         inkscape:connector-curvature="0" />
      <path
         d="m 66.847806,218.31022 c 0,0.26871 -0.09302,0.49609 -0.279053,0.68213 -0.18259,0.18259 -0.408244,0.27388 -0.676961,0.27388 -0.265273,0 -0.490927,-0.093 -0.676962,-0.27905 -0.18259,-0.18604 -0.273885,-0.41169 -0.273885,-0.67696 0,-0.26527 0.0913,-0.48921 0.273885,-0.6718 0.186035,-0.18603 0.412682,-0.30198 0.676962,-0.27905 1.772749,0.15382 -0.186035,1.72083 0,1.90686 0.186035,0.18259 0.956014,-1.22128 0.956014,-0.95601 z m -0.108521,6.64042 h -1.694987 v -4.79557 h 1.694987 z"
         style="font-style:normal;font-variant:normal;font-weight:bold;font-stretch:normal;font-size:10.58333302px;font-family:Aharoni;-inkscape-font-specification:'Aharoni, Bold';font-variant-ligatures:normal;font-variant-caps:normal;font-variant-numeric:normal;font-feature-settings:normal;text-align:start;writing-mode:lr-tb;text-anchor:start;stroke-width:0.26458332"
         id="path1990"
         inkscape:connector-curvature="0"
         sodipodi:nodetypes="scscscscsccccc" />
      <path
         d="m 73.426215,220.15507 -2.495971,4.79557 H 69.79853 l -2.475301,-4.79557 h 1.90686 l 1.147217,2.45979 1.152384,-2.45979 z"
         style="font-style:normal;font-variant:normal;font-weight:bold;font-stretch:normal;font-size:10.58333302px;font-family:Aharoni;-inkscape-font-specification:'Aharoni, Bold';font-variant-ligatures:normal;font-variant-caps:normal;font-variant-numeric:normal;font-feature-settings:normal;text-align:start;writing-mode:lr-tb;text-anchor:start;stroke-width:0.26458332"
         id="path1992"
         inkscape:connector-curvature="0" />
      <path
         d="m 79.405178,224.95064 h -1.694987 v -0.53227 q -0.242879,0.30489 -0.490926,0.44442 -0.434082,0.24288 -0.98702,0.24288 -0.894002,0 -1.591634,-0.61495 -0.831991,-0.73381 -0.831991,-1.94304 0,-1.2299 0.852662,-1.9637 0.676961,-0.58394 1.55546,-0.58394 0.511597,0 0.961182,0.21704 0.258382,0.12402 0.532267,0.40824 v -0.47025 h 1.694987 z m -1.643311,-2.39779 q 0,-0.45475 -0.320393,-0.76998 -0.320394,-0.32039 -0.775147,-0.32039 -0.506429,0 -0.83199,0.3824 -0.26355,0.31006 -0.26355,0.70797 0,0.39791 0.26355,0.70797 0.320393,0.3824 0.83199,0.3824 0.45992,0 0.775147,-0.31522 0.320393,-0.31523 0.320393,-0.77515 z"
         style="font-style:normal;font-variant:normal;font-weight:bold;font-stretch:normal;font-size:10.58333302px;font-family:Aharoni;-inkscape-font-specification:'Aharoni, Bold';font-variant-ligatures:normal;font-variant-caps:normal;font-variant-numeric:normal;font-feature-settings:normal;text-align:start;writing-mode:lr-tb;text-anchor:start;stroke-width:0.26458332"
         id="path1994"
         inkscape:connector-curvature="0" />
      <path
         d="m 82.268052,224.95064 h -1.694987 v -7.7618 h 1.694987 z"
         style="font-style:normal;font-variant:normal;font-weight:bold;font-stretch:normal;font-size:10.58333302px;font-family:Aharoni;-inkscape-font-specification:'Aharoni, Bold';font-variant-ligatures:normal;font-variant-caps:normal;font-variant-numeric:normal;font-feature-settings:normal;text-align:start;writing-mode:lr-tb;text-anchor:start;stroke-width:0.26458332"
         id="path1996"
         inkscape:connector-curvature="0" />
    </g>
  </g>
</svg>
