<?xml version="1.0" encoding="UTF-8" standalone="no"?>
<!-- Generator: Adobe Illustrator 19.0.0, SVG Export Plug-In . SVG Version: 6.00 Build 0)  -->

<svg
   xmlns:dc="http://purl.org/dc/elements/1.1/"
   xmlns:cc="http://creativecommons.org/ns#"
   xmlns:rdf="http://www.w3.org/1999/02/22-rdf-syntax-ns#"
   xmlns:svg="http://www.w3.org/2000/svg"
   xmlns="http://www.w3.org/2000/svg"
   xmlns:sodipodi="http://sodipodi.sourceforge.net/DTD/sodipodi-0.dtd"
   xmlns:inkscape="http://www.inkscape.org/namespaces/inkscape"
   version="1.1"
   id="Capa_1"
   x="0px"
   y="0px"
   viewBox="0 0 44.204994 25.980167"
   xml:space="preserve"
   sodipodi:docname="about-us.svg"
   width="44.204994"
   height="25.980167"
   inkscape:version="0.92.4 (5da689c313, 2019-01-14)"><metadata
   id="metadata83"><rdf:RDF><cc:Work
       rdf:about=""><dc:format>image/svg+xml</dc:format><dc:type
         rdf:resource="http://purl.org/dc/dcmitype/StillImage" /><dc:title></dc:title></cc:Work></rdf:RDF></metadata><defs
   id="defs81" /><sodipodi:namedview
   pagecolor="#ffffff"
   bordercolor="#666666"
   borderopacity="1"
   objecttolerance="10"
   gridtolerance="10"
   guidetolerance="10"
   inkscape:pageopacity="0"
   inkscape:pageshadow="2"
   inkscape:window-width="1366"
   inkscape:window-height="705"
   id="namedview79"
   showgrid="false"
   fit-margin-top="0"
   fit-margin-left="0"
   fit-margin-right="0"
   fit-margin-bottom="0"
   inkscape:zoom="8.1578774"
   inkscape:cx="18.908103"
   inkscape:cy="17.035255"
   inkscape:window-x="-4"
   inkscape:window-y="-4"
   inkscape:window-maximized="1"
   inkscape:current-layer="Capa_1" />
<g
   id="g46"
   transform="matrix(0.08794524,0,0,0.08794524,0,-9.112446)"
   style="fill:#bf9a2f;fill-opacity:1">
	<g
   id="g14"
   style="fill:#bf9a2f;fill-opacity:1">
		<path
   d="m 251.256,237.591 c 37.166,0 67.042,-30.048 67.042,-66.977 0.043,-37.037 -29.876,-66.999 -67.042,-66.999 -36.908,0 -66.869,29.962 -66.869,66.999 0,36.973 29.962,66.977 66.869,66.977 z"
   id="path2"
   inkscape:connector-curvature="0"
   style="fill:#bf9a2f;fill-opacity:1" />
		<path
   d="M 305.032,248.506 H 197.653 c -19.198,0 -34.923,17.602 -34.923,39.194 v 107.854 c 0,1.186 0.604,2.243 0.669,3.473 h 175.823 c 0.129,-1.229 0.626,-2.286 0.626,-3.473 V 287.7 c 0.064,-21.592 -15.661,-39.194 -34.816,-39.194 z"
   id="path4"
   inkscape:connector-curvature="0"
   style="fill:#bf9a2f;fill-opacity:1" />
		<path
   d="m 431.588,269.559 c 29.832,0 53.754,-24.008 53.754,-53.668 0,-29.66 -23.922,-53.711 -53.754,-53.711 -29.617,0 -53.582,24.051 -53.582,53.711 -0.064,29.639 23.966,53.668 53.582,53.668 z"
   id="path6"
   inkscape:connector-curvature="0"
   style="fill:#bf9a2f;fill-opacity:1" />
		<path
   d="m 474.708,278.317 h -86.046 c -15.445,0 -28.064,14.107 -28.064,31.472 v 86.413 c 0,0.928 0.453,1.812 0.518,2.826 h 141.03 c 0.065,-1.014 0.496,-1.898 0.496,-2.826 v -86.413 c 0.065,-17.365 -12.532,-31.472 -27.934,-31.472 z"
   id="path8"
   inkscape:connector-curvature="0"
   style="fill:#bf9a2f;fill-opacity:1" />
		<path
   d="m 71.011,269.559 c 29.789,0 53.733,-24.008 53.733,-53.668 0,-29.66 -23.944,-53.711 -53.733,-53.711 -29.638,0 -53.603,24.051 -53.603,53.711 0,29.66 23.965,53.668 53.603,53.668 z"
   id="path10"
   inkscape:connector-curvature="0"
   style="fill:#bf9a2f;fill-opacity:1" />
		<path
   d="M 114.109,278.317 H 27.977 C 12.576,278.317 0,292.424 0,309.789 v 86.413 c 0,0.928 0.453,1.812 0.539,2.826 h 141.03 c 0.065,-1.014 0.475,-1.898 0.475,-2.826 v -86.413 c 0.043,-17.365 -12.555,-31.472 -27.935,-31.472 z"
   id="path12"
   inkscape:connector-curvature="0"
   style="fill:#bf9a2f;fill-opacity:1" />
	</g>
	<g
   id="g16"
   style="fill:#bf9a2f;fill-opacity:1">
	</g>
	<g
   id="g18"
   style="fill:#bf9a2f;fill-opacity:1">
	</g>
	<g
   id="g20"
   style="fill:#bf9a2f;fill-opacity:1">
	</g>
	<g
   id="g22"
   style="fill:#bf9a2f;fill-opacity:1">
	</g>
	<g
   id="g24"
   style="fill:#bf9a2f;fill-opacity:1">
	</g>
	<g
   id="g26"
   style="fill:#bf9a2f;fill-opacity:1">
	</g>
	<g
   id="g28"
   style="fill:#bf9a2f;fill-opacity:1">
	</g>
	<g
   id="g30"
   style="fill:#bf9a2f;fill-opacity:1">
	</g>
	<g
   id="g32"
   style="fill:#bf9a2f;fill-opacity:1">
	</g>
	<g
   id="g34"
   style="fill:#bf9a2f;fill-opacity:1">
	</g>
	<g
   id="g36"
   style="fill:#bf9a2f;fill-opacity:1">
	</g>
	<g
   id="g38"
   style="fill:#bf9a2f;fill-opacity:1">
	</g>
	<g
   id="g40"
   style="fill:#bf9a2f;fill-opacity:1">
	</g>
	<g
   id="g42"
   style="fill:#bf9a2f;fill-opacity:1">
	</g>
	<g
   id="g44"
   style="fill:#bf9a2f;fill-opacity:1">
	</g>
</g>
<g
   id="g48"
   transform="translate(-232.4134,-183.53776)">
</g>
<g
   id="g50"
   transform="translate(-232.4134,-183.53776)">
</g>
<g
   id="g52"
   transform="translate(-232.4134,-183.53776)">
</g>
<g
   id="g54"
   transform="translate(-232.4134,-183.53776)">
</g>
<g
   id="g56"
   transform="translate(-232.4134,-183.53776)">
</g>
<g
   id="g58"
   transform="translate(-232.4134,-183.53776)">
</g>
<g
   id="g60"
   transform="translate(-232.4134,-183.53776)">
</g>
<g
   id="g62"
   transform="translate(-232.4134,-183.53776)">
</g>
<g
   id="g64"
   transform="translate(-232.4134,-183.53776)">
</g>
<g
   id="g66"
   transform="translate(-232.4134,-183.53776)">
</g>
<g
   id="g68"
   transform="translate(-232.4134,-183.53776)">
</g>
<g
   id="g70"
   transform="translate(-232.4134,-183.53776)">
</g>
<g
   id="g72"
   transform="translate(-232.4134,-183.53776)">
</g>
<g
   id="g74"
   transform="translate(-232.4134,-183.53776)">
</g>
<g
   id="g76"
   transform="translate(-232.4134,-183.53776)">
</g>
</svg>