<?xml version="1.0" encoding="UTF-8" standalone="no"?>
<!-- Generator: Adobe Illustrator 23.0.1, SVG Export Plug-In . SVG Version: 6.00 Build 0)  -->

<svg
   xmlns:dc="http://purl.org/dc/elements/1.1/"
   xmlns:cc="http://creativecommons.org/ns#"
   xmlns:rdf="http://www.w3.org/1999/02/22-rdf-syntax-ns#"
   xmlns:svg="http://www.w3.org/2000/svg"
   xmlns="http://www.w3.org/2000/svg"
   xmlns:sodipodi="http://sodipodi.sourceforge.net/DTD/sodipodi-0.dtd"
   xmlns:inkscape="http://www.inkscape.org/namespaces/inkscape"
   version="1.1"
   id="Layer_1"
   x="0px"
   y="0px"
   viewBox="0 0 41.136283 41.136283"
   xml:space="preserve"
   sodipodi:docname="areaInstalled.svg"
   width="41.136284"
   height="41.136284"
   inkscape:version="0.92.4 (5da689c313, 2019-01-14)"><metadata
   id="metadata49"><rdf:RDF><cc:Work
       rdf:about=""><dc:format>image/svg+xml</dc:format><dc:type
         rdf:resource="http://purl.org/dc/dcmitype/StillImage" /><dc:title></dc:title></cc:Work></rdf:RDF></metadata><defs
   id="defs47" /><sodipodi:namedview
   pagecolor="#ffffff"
   bordercolor="#666666"
   borderopacity="1"
   objecttolerance="10"
   gridtolerance="10"
   guidetolerance="10"
   inkscape:pageopacity="0"
   inkscape:pageshadow="2"
   inkscape:window-width="1366"
   inkscape:window-height="705"
   id="namedview45"
   showgrid="false"
   fit-margin-top="0"
   fit-margin-left="0"
   fit-margin-right="0"
   fit-margin-bottom="0"
   inkscape:zoom="6.2540544"
   inkscape:cx="61.018152"
   inkscape:cy="16.094792"
   inkscape:window-x="-4"
   inkscape:window-y="-4"
   inkscape:window-maximized="1"
   inkscape:current-layer="Layer_1" />
<style
   type="text/css"
   id="style2">
	.st0{fill:#FFFFFF;}
	.st1{fill:#221F1F;}
	.st2{fill:none;}
</style>




<g
   id="g877"
   transform="scale(0.23110271)"><g
     style="fill:none;fill-opacity:1;stroke:none"
     id="g6">
	<polygon
   style="fill:none;fill-opacity:1;stroke:none"
   id="polygon4"
   points="167,167 167.9,10.1 129.8,10.1 10.1,122.8 10.1,167.9 "
   class="st0" />
</g><g
     style="fill:#bf9a2f;fill-opacity:1"
     id="dots">
	<rect
   style="fill:#bf9a2f;fill-opacity:1"
   id="rect8"
   height="10"
   width="10"
   y="16"
   x="16" />
	<rect
   style="fill:#bf9a2f;fill-opacity:1"
   id="rect10"
   height="10"
   width="10"
   y="31.200001"
   x="16" />
	<rect
   style="fill:#bf9a2f;fill-opacity:1"
   id="rect12"
   height="10"
   width="10"
   y="46.5"
   x="16" />
	<rect
   style="fill:#bf9a2f;fill-opacity:1"
   id="rect14"
   height="10"
   width="10"
   y="61.799999"
   x="16" />
	<rect
   style="fill:#bf9a2f;fill-opacity:1"
   id="rect16"
   height="10"
   width="10"
   y="77"
   x="16" />
	<rect
   style="fill:#bf9a2f;fill-opacity:1"
   id="rect18"
   height="10"
   width="10"
   y="16"
   x="32" />
	<rect
   style="fill:#bf9a2f;fill-opacity:1"
   id="rect20"
   height="10"
   width="10"
   y="31.200001"
   x="32" />
	<rect
   style="fill:#bf9a2f;fill-opacity:1"
   id="rect22"
   height="10"
   width="10"
   y="46.5"
   x="32" />
	<rect
   style="fill:#bf9a2f;fill-opacity:1"
   id="rect24"
   height="10"
   width="10"
   y="61.799999"
   x="32" />
	<rect
   style="fill:#bf9a2f;fill-opacity:1"
   id="rect26"
   height="10"
   width="10"
   y="16"
   x="48" />
	<rect
   style="fill:#bf9a2f;fill-opacity:1"
   id="rect28"
   height="10"
   width="10"
   y="31.200001"
   x="48" />
	<rect
   style="fill:#bf9a2f;fill-opacity:1"
   id="rect30"
   height="10"
   width="10"
   y="16"
   x="64" />
	<rect
   style="fill:#bf9a2f;fill-opacity:1"
   id="rect32"
   height="10"
   width="10"
   y="31.200001"
   x="64" />
	<rect
   style="fill:#bf9a2f;fill-opacity:1"
   id="rect34"
   height="10"
   width="10"
   y="16"
   x="80" />
	<rect
   style="fill:#bf9a2f;fill-opacity:1"
   id="rect36"
   height="10"
   width="10"
   y="46.5"
   x="48" />
</g><polygon
     style="display:inline;fill:#bf9a2f;fill-opacity:1"
     id="polygon39"
     points="110.2,162.3 128.1,176.2 178,129.3 178,143 140.9,178 114.1,178 102.8,169.2 93.5,178 78.9,178 135.7,124.6 117.7,110.6 46.1,178 31.6,178 68.9,142.9 50.9,128.9 0,176.9 0,163.1 83.8,84.3 65.8,70.3 0,132.3 0,118.6 126,0 140.5,0 73.2,63.4 91.2,77.3 147.4,24.4 155.3,30.6 58.3,122 76.3,135.9 178,40.2 178,53.9 125.1,103.7 143,117.6 178,84.7 178,98.5 "
     class="st1" /><path
     inkscape:connector-curvature="0"
     style="display:inline;fill:#bf9a2f;fill-opacity:1"
     d="M 0,0 V 178 H 178 V 0 Z M 167,167 10.1,167.9 V 10.1 h 157.8 z"
     class="st1"
     id="Border" /><line
     style="display:inline;fill:none"
     id="line42"
     y2="16.700001"
     x2="137.39999"
     y1="30.6"
     x1="155.3"
     class="st2" /></g>
</svg>