<?xml version="1.0" encoding="UTF-8" standalone="no"?>
<svg
   xmlns:dc="http://purl.org/dc/elements/1.1/"
   xmlns:cc="http://creativecommons.org/ns#"
   xmlns:rdf="http://www.w3.org/1999/02/22-rdf-syntax-ns#"
   xmlns:svg="http://www.w3.org/2000/svg"
   xmlns="http://www.w3.org/2000/svg"
   height="30.209831"
   width="34.52557"
   xml:space="preserve"
   viewBox="0 0 34.52557 30.209831"
   y="0px"
   x="0px"
   id="Layer_1"
   version="1.1"><metadata
   id="metadata49"><rdf:RDF><cc:Work
       rdf:about=""><dc:format>image/svg+xml</dc:format><dc:type
         rdf:resource="http://purl.org/dc/dcmitype/StillImage" /><dc:title></dc:title></cc:Work></rdf:RDF></metadata><defs
   id="defs47" />
<g
   transform="matrix(0.06743262,0,0,0.06743262,0,-2.1578438)"
   style="fill:#bf912f;fill-opacity:1"
   id="g12">
	<g
   style="fill:#bf912f;fill-opacity:1"
   id="g10">
		<g
   style="fill:#bf912f;fill-opacity:1"
   id="g8">
			<path
   style="fill:#bf912f;fill-opacity:1"
   id="path2"
   d="M 405.333,32 H 128 c -11.782,0 -21.333,9.551 -21.333,21.333 0,11.782 9.551,21.333 21.333,21.333 h 277.333 c 35.343,0 64,28.657 64,64 0,35.343 -28.657,64 -64,64 H 106.667 C 47.759,202.667 0,250.426 0,309.333 0,368.24 47.759,416 106.667,416 h 225.83 l -27.582,27.582 c -8.331,8.331 -8.331,21.839 0,30.17 8.331,8.331 21.839,8.331 30.17,0 l 64,-64 c 0.004,-0.004 0.006,-0.008 0.01,-0.011 0.493,-0.494 0.96,-1.012 1.403,-1.552 0.203,-0.247 0.379,-0.507 0.569,-0.761 0.227,-0.303 0.462,-0.6 0.673,-0.915 0.203,-0.304 0.379,-0.619 0.565,-0.93 0.171,-0.286 0.35,-0.565 0.508,-0.86 0.17,-0.317 0.313,-0.643 0.466,-0.967 0.145,-0.308 0.299,-0.61 0.43,-0.925 0.13,-0.314 0.235,-0.635 0.349,-0.953 0.122,-0.338 0.251,-0.672 0.356,-1.018 0.096,-0.318 0.167,-0.642 0.248,-0.964 0.089,-0.353 0.188,-0.701 0.259,-1.061 0.074,-0.372 0.117,-0.748 0.171,-1.122 0.045,-0.314 0.105,-0.622 0.136,-0.941 0.138,-1.4 0.138,-2.81 0,-4.21 -0.031,-0.318 -0.091,-0.627 -0.136,-0.941 -0.054,-0.375 -0.097,-0.75 -0.171,-1.122 -0.071,-0.359 -0.17,-0.708 -0.259,-1.061 -0.081,-0.322 -0.152,-0.645 -0.248,-0.964 -0.105,-0.346 -0.234,-0.68 -0.356,-1.018 -0.114,-0.318 -0.219,-0.639 -0.349,-0.953 -0.131,-0.315 -0.284,-0.618 -0.43,-0.925 -0.153,-0.324 -0.296,-0.65 -0.466,-0.967 -0.158,-0.294 -0.337,-0.574 -0.508,-0.86 -0.186,-0.311 -0.362,-0.627 -0.565,-0.93 -0.211,-0.316 -0.447,-0.613 -0.674,-0.917 -0.19,-0.253 -0.365,-0.513 -0.568,-0.759 -0.446,-0.544 -0.916,-1.067 -1.413,-1.563 l -64,-64 c -8.331,-8.331 -21.839,-8.331 -30.17,0 -8.331,8.331 -8.331,21.839 0,30.17 l 27.582,27.582 h -225.83 c -35.343,0 -64,-28.657 -64,-64 0,-35.343 28.657,-64 64,-64 h 298.667 c 58.907,0 106.667,-47.759 106.667,-106.667 C 512.001,79.759 464.241,32 405.333,32 Z" />
			<path
   style="fill:#bf912f;fill-opacity:1"
   id="path4"
   d="M 448,138.667 C 448,115.093 428.907,96 405.333,96 c -23.573,0 -42.667,19.093 -42.667,42.667 0,23.573 19.093,42.667 42.667,42.667 C 428.907,181.333 448,162.24 448,138.667 Z" />
			<path
   style="fill:#bf912f;fill-opacity:1"
   id="path6"
   d="M 64,309.333 C 64,332.907 83.093,352 106.667,352 c 23.573,0 42.667,-19.093 42.667,-42.667 0,-23.573 -19.093,-42.667 -42.667,-42.667 C 83.093,266.667 64,285.76 64,309.333 Z" />
		</g>
	</g>
</g>
<g
   transform="translate(0,-32)"
   id="g14">
</g>
<g
   transform="translate(0,-32)"
   id="g16">
</g>
<g
   transform="translate(0,-32)"
   id="g18">
</g>
<g
   transform="translate(0,-32)"
   id="g20">
</g>
<g
   transform="translate(0,-32)"
   id="g22">
</g>
<g
   transform="translate(0,-32)"
   id="g24">
</g>
<g
   transform="translate(0,-32)"
   id="g26">
</g>
<g
   transform="translate(0,-32)"
   id="g28">
</g>
<g
   transform="translate(0,-32)"
   id="g30">
</g>
<g
   transform="translate(0,-32)"
   id="g32">
</g>
<g
   transform="translate(0,-32)"
   id="g34">
</g>
<g
   transform="translate(0,-32)"
   id="g36">
</g>
<g
   transform="translate(0,-32)"
   id="g38">
</g>
<g
   transform="translate(0,-32)"
   id="g40">
</g>
<g
   transform="translate(0,-32)"
   id="g42">
</g>
</svg>