<?xml version="1.0" encoding="UTF-8" standalone="no"?>
<svg
   xmlns:dc="http://purl.org/dc/elements/1.1/"
   xmlns:cc="http://creativecommons.org/ns#"
   xmlns:rdf="http://www.w3.org/1999/02/22-rdf-syntax-ns#"
   xmlns:svg="http://www.w3.org/2000/svg"
   xmlns="http://www.w3.org/2000/svg"
   xmlns:sodipodi="http://sodipodi.sourceforge.net/DTD/sodipodi-0.dtd"
   xmlns:inkscape="http://www.inkscape.org/namespaces/inkscape"
   height="100.94044"
   width="100.94044"
   version="1.1"
   viewBox="0 0 100.94044 100.94044"
   data-name="18"
   id="_18"
   sodipodi:docname="google-review.svg"
   inkscape:version="0.92.4 (5da689c313, 2019-01-14)">
  <sodipodi:namedview
     pagecolor="#ffffff"
     bordercolor="#666666"
     borderopacity="1"
     objecttolerance="10"
     gridtolerance="10"
     guidetolerance="10"
     inkscape:pageopacity="0"
     inkscape:pageshadow="2"
     inkscape:window-width="1366"
     inkscape:window-height="705"
     id="namedview27"
     showgrid="false"
     fit-margin-top="0"
     fit-margin-left="0"
     fit-margin-right="0"
     fit-margin-bottom="0"
     inkscape:zoom="6.0255155"
     inkscape:cx="32.795387"
     inkscape:cy="24.214879"
     inkscape:window-x="-4"
     inkscape:window-y="-4"
     inkscape:window-maximized="1"
     inkscape:current-layer="_18" />
  <metadata
     id="metadata48">
    <rdf:RDF>
      <cc:Work
         rdf:about="">
        <dc:format>image/svg+xml</dc:format>
        <dc:type
           rdf:resource="http://purl.org/dc/dcmitype/StillImage" />
        <dc:title>Artboard 11</dc:title>
      </cc:Work>
    </rdf:RDF>
  </metadata>
  <defs
     id="defs7">
    <style
       id="style2">.cls-1{fill:none;}.cls-2{fill:#4885ed;}.cls-3{fill:#3cba54;}.cls-4{fill:#db3236;}.cls-5{fill:#f4c20d;}.cls-6{font-size:13.75px;font-family:Ebrima, Ebrima;}.cls-7{clip-path:url(#clip-path);}.cls-8{fill:#4286f5;}.cls-9{fill:#ea4235;}.cls-10{fill:#fabc05;}.cls-11{fill:#34a853;}</style>
    <clipPath
       id="clip-path">
      <path
         style="fill:none"
         id="path4"
         d="M 62.89,0.79 A 62.11,62.11 0 1 0 125,62.89 62.1,62.1 0 0 0 62.89,0.79 Z m 0,116.36 a 54.26,54.26 0 1 1 54.26,-54.26 54.26,54.26 0 0 1 -54.26,54.26 z"
         class="cls-1"
         inkscape:connector-curvature="0" />
    </clipPath>
  </defs>
  <title
     id="title9">Artboard 11</title>
  <g
     transform="matrix(0.81265957,0,0,0.81265957,-0.64200108,-0.64200108)"
     id="g875">
    <path
       style="fill:#4885ed"
       class="cls-2"
       d="m 27.54,47.21 h 0.8 a 10.91,10.91 0 0 1 7.51,3.17 c -0.73,0.74 -1.47,1.45 -2.18,2.2 a 8.2,8.2 0 0 0 -13.78,5 8.44,8.44 0 0 0 1.83,6.52 8.11,8.11 0 0 0 5.92,2.9 7.83,7.83 0 0 0 5.89,-2 6.4,6.4 0 0 0 2,-4.18 c -2.52,0 -5,0 -7.56,0 v -3.19 h 10.57 c 0.54,3.35 -0.24,7.13 -2.79,9.53 A 10.41,10.41 0 0 1 29.3,70.06 11.76,11.76 0 0 1 17.09,62.55 11.18,11.18 0 0 1 17,55 a 11.49,11.49 0 0 1 4.17,-5.54 11.89,11.89 0 0 1 6.37,-2.25 z"
       id="path11"
       inkscape:connector-curvature="0" />
    <path
       style="fill:#3cba54"
       class="cls-3"
       d="m 88.39,48 h 3.25 v 21.67 c -1.08,0 -2.17,0 -3.25,0 0.02,-7.23 0,-14.45 0,-21.67 z"
       id="path13"
       inkscape:connector-curvature="0" />
    <path
       style="fill:#db3236"
       class="cls-4"
       d="m 45.76,55.51 a 7.61,7.61 0 0 1 5.83,1.24 7.14,7.14 0 0 1 2.87,4.55 7.34,7.34 0 0 1 -7.71,8.81 7.42,7.42 0 0 1 -5.52,-3 7.58,7.58 0 0 1 -1,-6.9 7.2,7.2 0 0 1 5.54,-4.74 m 0.46,2.88 A 4.08,4.08 0 0 0 44.1,59.7 4.81,4.81 0 0 0 44.34,66 4,4 0 0 0 48,67.13 4.09,4.09 0 0 0 50.82,65.05 4.8,4.8 0 0 0 50,59.35 4.11,4.11 0 0 0 46.22,58.39 Z"
       id="path15"
       inkscape:connector-curvature="0" />
    <path
       style="fill:#f4c20d"
       class="cls-5"
       d="m 61.85,55.51 a 7.37,7.37 0 0 1 7.22,11.88 7.5,7.5 0 0 1 -11.76,-0.24 7.65,7.65 0 0 1 -1,-7 7.17,7.17 0 0 1 5.49,-4.6 m 0.45,2.88 a 4.13,4.13 0 0 0 -2.12,1.34 4.8,4.8 0 0 0 0.17,6.2 4,4 0 0 0 3.7,1.2 4.14,4.14 0 0 0 2.82,-2.08 A 4.82,4.82 0 0 0 66,59.33 4.09,4.09 0 0 0 62.3,58.39 Z"
       id="path17"
       inkscape:connector-curvature="0" />
    <path
       style="fill:#4885ed"
       class="cls-2"
       d="m 75.49,56.39 a 6.19,6.19 0 0 1 6,-0.46 5.75,5.75 0 0 1 1.51,1.14 c 0,-0.41 0,-0.83 0,-1.26 1,0 2,0 3.06,0 v 13.4 a 8,8 0 0 1 -2,5.63 7.19,7.19 0 0 1 -6.24,1.79 7.05,7.05 0 0 1 -5.31,-4.23 c 0.91,-0.44 1.87,-0.79 2.81,-1.2 a 4.2,4.2 0 0 0 3,2.55 3.92,3.92 0 0 0 3.79,-1.22 c 0.94,-1.15 0.94,-2.73 0.9,-4.14 a 5.44,5.44 0 0 1 -2.47,1.52 6.67,6.67 0 0 1 -6.06,-1.57 7.46,7.46 0 0 1 1,-12 m 3.14,1.94 a 4,4 0 0 0 -2.38,1.38 4.83,4.83 0 0 0 0,6.09 4,4 0 0 0 3.41,1.39 3.85,3.85 0 0 0 2.9,-1.93 5.12,5.12 0 0 0 -0.52,-5.73 3.72,3.72 0 0 0 -3.4,-1.15 z"
       id="path19"
       inkscape:connector-curvature="0" />
    <path
       style="fill:#db3236"
       class="cls-4"
       d="m 95.54,57.16 a 6.84,6.84 0 0 1 7,-1.38 7.85,7.85 0 0 1 4.34,5.11 L 97,65 a 4,4 0 0 0 2.09,2 4.25,4.25 0 0 0 4,-0.58 6.43,6.43 0 0 0 1.13,-1.2 c 0.83,0.57 1.67,1.11 2.5,1.67 A 7.43,7.43 0 0 1 95,67.59 7.78,7.78 0 0 1 95.56,57.16 m 1.6,2.84 a 4.4,4.4 0 0 0 -0.71,2.55 c 2.2,-0.91 4.4,-1.82 6.6,-2.75 a 2.7,2.7 0 0 0 -2.14,-1.5 3.87,3.87 0 0 0 -3.75,1.7 z"
       id="path21"
       inkscape:connector-curvature="0" />
    <text
       class="cls-6"
       transform="translate(21.9,41.27)"
       id="text23"
       style="font-size:13.75px;font-family:Ebrima, Ebrima;fill:#bf9a2f;fill-opacity:1">Review us on</text>
    <polygon
       class="cls-5"
       points="27.96,85.14 29.85,81.36 31.86,85.08 36.05,85.7 33.14,88.77 33.84,92.93 30.02,91.12 26.27,93.07 26.82,88.88 23.81,85.92 "
       id="polygon25"
       style="fill:#bf9a2f;fill-opacity:1" />
    <polygon
       class="cls-5"
       points="42.3,85.14 44.19,81.36 46.21,85.08 50.39,85.7 47.48,88.77 48.18,92.93 44.36,91.12 40.61,93.07 41.16,88.88 38.15,85.92 "
       id="polygon27"
       style="fill:#bf9a2f;fill-opacity:1" />
    <polygon
       class="cls-5"
       points="59.38,84.31 62.02,79.02 64.85,84.22 70.7,85.09 66.63,89.39 67.61,95.22 62.26,92.68 57.02,95.42 57.78,89.54 53.56,85.4 "
       id="polygon29"
       style="fill:#bf9a2f;fill-opacity:1" />
    <polygon
       class="cls-5"
       points="78.26,85.14 80.14,81.36 82.16,85.08 86.34,85.7 83.44,88.77 84.13,92.93 80.32,91.12 76.57,93.07 77.12,88.88 74.1,85.92 "
       id="polygon31"
       style="fill:#bf9a2f;fill-opacity:1" />
    <polygon
       class="cls-5"
       points="92.6,85.14 94.48,81.36 96.5,85.08 100.69,85.7 97.78,88.77 98.47,92.93 94.66,91.12 90.91,93.07 91.46,88.88 88.44,85.92 "
       id="polygon33"
       style="fill:#bf9a2f;fill-opacity:1" />
    <g
       class="cls-7"
       clip-path="url(#clip-path)"
       id="g43">
      <rect
         class="cls-8"
         x="0.79000002"
         y="0.79000002"
         width="62.110001"
         height="62.110001"
         id="rect35"
         style="fill:#bf9a2f;fill-opacity:1" />
      <rect
         class="cls-9"
         x="62.889999"
         y="0.79000002"
         width="62.110001"
         height="62.110001"
         id="rect37"
         style="fill:#bf9a2f;fill-opacity:1" />
      <rect
         class="cls-10"
         x="0.79000002"
         y="62.889999"
         width="62.110001"
         height="62.110001"
         id="rect39"
         style="fill:#bf9a2f;fill-opacity:1" />
      <rect
         class="cls-11"
         x="62.889999"
         y="62.889999"
         width="62.110001"
         height="62.110001"
         id="rect41"
         style="fill:#bf9a2f;fill-opacity:1" />
    </g>
  </g>
</svg>
