<?xml version="1.0" encoding="UTF-8" standalone="no"?>
<!-- Generator: Adobe Illustrator 19.0.0, SVG Export Plug-In . SVG Version: 6.00 Build 0)  -->

<svg
   xmlns:dc="http://purl.org/dc/elements/1.1/"
   xmlns:cc="http://creativecommons.org/ns#"
   xmlns:rdf="http://www.w3.org/1999/02/22-rdf-syntax-ns#"
   xmlns:svg="http://www.w3.org/2000/svg"
   xmlns="http://www.w3.org/2000/svg"
   xmlns:sodipodi="http://sodipodi.sourceforge.net/DTD/sodipodi-0.dtd"
   xmlns:inkscape="http://www.inkscape.org/namespaces/inkscape"
   version="1.1"
   id="Layer_1"
   x="0px"
   y="0px"
   viewBox="0 0 41.516888 41.516888"
   xml:space="preserve"
   sodipodi:docname="happyClient.svg"
   width="41.516888"
   height="41.516888"
   inkscape:version="0.92.4 (5da689c313, 2019-01-14)"><metadata
   id="metadata71"><rdf:RDF><cc:Work
       rdf:about=""><dc:format>image/svg+xml</dc:format><dc:type
         rdf:resource="http://purl.org/dc/dcmitype/StillImage" /><dc:title></dc:title></cc:Work></rdf:RDF></metadata><defs
   id="defs69">
	
	
	
	
	
	
	
	
	
	
	
	
	
	
	
	
</defs><sodipodi:namedview
   pagecolor="#ffffff"
   bordercolor="#666666"
   borderopacity="1"
   objecttolerance="10"
   gridtolerance="10"
   guidetolerance="10"
   inkscape:pageopacity="0"
   inkscape:pageshadow="2"
   inkscape:window-width="1366"
   inkscape:window-height="705"
   id="namedview67"
   showgrid="false"
   fit-margin-top="0"
   fit-margin-left="0"
   fit-margin-right="0"
   fit-margin-bottom="0"
   inkscape:zoom="1.0010986"
   inkscape:cx="256"
   inkscape:cy="-214.48311"
   inkscape:window-x="-4"
   inkscape:window-y="-4"
   inkscape:window-maximized="1"
   inkscape:current-layer="Layer_1" />















<g
   id="g925"
   transform="scale(0.08108767)"><path
     style="fill:#bf9a2f;fill-opacity:1"
     d="M 503.467,256 C 503.467,392.533 392.534,503.467 256,503.467 119.466,503.467 8.533,392.533 8.533,256 8.533,119.467 119.467,8.533 256,8.533 392.533,8.533 503.467,119.467 503.467,256"
     id="path2"
     inkscape:connector-curvature="0" /><path
     style="fill:#bf9a2f;fill-opacity:1"
     d="m 256,8.533 c -4.267,0 -8.533,0 -12.8,0 130.56,6.827 234.667,115.2 234.667,247.467 0,132.267 -104.107,240.64 -234.667,247.467 4.267,0 8.533,0 12.8,0 C 392.533,503.467 503.467,392.534 503.467,256 503.467,119.466 392.533,8.533 256,8.533"
     id="path4"
     inkscape:connector-curvature="0" /><path
     style="fill:#bf9a2f;fill-opacity:1"
     d="m 256,8.533 c 4.267,0 8.533,0 12.8,0 C 138.24,15.36 34.133,123.733 34.133,256 c 0,132.267 104.107,240.64 234.667,247.467 -4.267,0 -8.533,0 -12.8,0 C 119.467,503.467 8.533,392.533 8.533,256 8.533,119.467 119.467,8.533 256,8.533"
     id="path6"
     inkscape:connector-curvature="0" /><path
     style="fill:#3d310f;fill-opacity:0.94117647"
     d="m 418.133,187.733 c 0,37.547 -30.72,68.267 -68.267,68.267 -37.547,0 -68.266,-30.72 -68.266,-68.267 0,-37.547 30.72,-68.267 68.267,-68.267 37.547,0 68.266,30.721 68.266,68.267"
     id="path8"
     inkscape:connector-curvature="0" /><path
     style="fill:#bf9a2f;fill-opacity:1"
     d="m 375.467,187.733 c 0,14.507 -11.093,25.6 -25.6,25.6 -14.507,0 -25.6,-11.093 -25.6,-25.6 0,-14.507 11.093,-25.6 25.6,-25.6 14.506,0 25.6,11.094 25.6,25.6"
     id="path10"
     inkscape:connector-curvature="0" /><path
     style="fill:#3d310f;fill-opacity:0.94117647"
     d="m 230.4,187.733 c 0,37.547 -30.72,68.267 -68.267,68.267 -37.547,0 -68.267,-30.72 -68.267,-68.267 0,-37.547 30.72,-68.267 68.267,-68.267 37.547,0 68.267,30.721 68.267,68.267"
     id="path12"
     inkscape:connector-curvature="0" /><path
     style="fill:#bf9a2f;fill-opacity:1"
     d="m 187.733,187.733 c 0,14.507 -11.093,25.6 -25.6,25.6 -14.507,0 -25.6,-11.093 -25.6,-25.6 0,-14.507 11.093,-25.6 25.6,-25.6 14.507,0 25.6,11.094 25.6,25.6"
     id="path14"
     inkscape:connector-curvature="0" /><path
     d="M 256,512 C 115.2,512 0,396.8 0,256 0,115.2 115.2,0 256,0 396.8,0 512,115.2 512,256 512,396.8 396.8,512 256,512 Z M 256,17.067 C 124.587,17.067 17.067,124.587 17.067,256 17.067,387.413 124.587,494.933 256,494.933 387.413,494.933 494.933,387.413 494.933,256 494.933,124.587 387.413,17.067 256,17.067 Z"
     id="path16"
     inkscape:connector-curvature="0" /><path
     d="m 349.867,221.867 c -18.773,0 -34.133,-15.36 -34.133,-34.133 0,-18.773 15.36,-34.133 34.133,-34.133 18.773,0 34.133,15.36 34.133,34.133 0,18.773 -15.36,34.133 -34.133,34.133 z m 0,-51.2 c -9.387,0 -17.067,7.68 -17.067,17.067 0,9.387 7.68,17.067 17.067,17.067 9.387,0 17.067,-7.68 17.067,-17.067 -0.001,-9.387 -7.681,-17.067 -17.067,-17.067 z"
     id="path18"
     inkscape:connector-curvature="0" /><path
     d="m 162.133,221.867 c -18.773,0 -34.133,-15.36 -34.133,-34.133 0,-18.773 15.36,-34.133 34.133,-34.133 18.773,0 34.133,15.36 34.133,34.133 0,18.773 -15.359,34.133 -34.133,34.133 z m 0,-51.2 c -9.387,0 -17.067,7.68 -17.067,17.067 0,9.387 7.68,17.067 17.067,17.067 9.387,0 17.067,-7.68 17.067,-17.067 0,-9.387 -7.68,-17.067 -17.067,-17.067 z"
     id="path20"
     inkscape:connector-curvature="0" /><path
     d="m 162.133,264.533 c -42.667,0 -76.8,-34.133 -76.8,-76.8 0,-42.667 34.133,-76.8 76.8,-76.8 42.667,0 76.8,34.133 76.8,76.8 0,42.667 -34.133,76.8 -76.8,76.8 z m 0,-136.533 c -33.28,0 -59.733,26.453 -59.733,59.733 0,33.28 26.453,59.733 59.733,59.733 33.28,0 59.733,-26.453 59.733,-59.733 0,-33.28 -26.453,-59.733 -59.733,-59.733 z"
     id="path22"
     inkscape:connector-curvature="0" /><path
     d="m 349.867,264.533 c -42.667,0 -76.8,-34.133 -76.8,-76.8 0,-42.667 34.133,-76.8 76.8,-76.8 42.667,0 76.8,34.133 76.8,76.8 0,42.667 -34.134,76.8 -76.8,76.8 z m 0,-136.533 c -33.28,0 -59.733,26.453 -59.733,59.733 0,33.28 26.453,59.733 59.733,59.733 33.28,0 59.733,-26.453 59.733,-59.733 C 409.6,154.453 383.147,128 349.867,128 Z"
     id="path24"
     inkscape:connector-curvature="0" /><path
     d="m 281.6,196.267 h -51.2 c -5.12,0 -8.533,-3.413 -8.533,-8.533 0,-5.12 3.413,-8.533 8.533,-8.533 h 51.2 c 5.12,0 8.533,3.413 8.533,8.533 0,5.119 -3.413,8.533 -8.533,8.533 z"
     id="path26"
     inkscape:connector-curvature="0" /><path
     d="m 435.2,196.267 h -17.067 c -5.12,0 -8.533,-3.413 -8.533,-8.533 0,-5.12 3.413,-8.533 8.533,-8.533 H 435.2 c 5.12,0 8.533,3.413 8.533,8.533 0,5.119 -3.413,8.533 -8.533,8.533 z"
     id="path28"
     inkscape:connector-curvature="0" /><path
     d="M 93.867,196.267 H 76.8 c -5.12,0 -8.533,-3.413 -8.533,-8.533 0,-5.12 3.413,-8.533 8.533,-8.533 h 17.067 c 5.12,0 8.533,3.413 8.533,8.533 0,5.119 -3.413,8.533 -8.533,8.533 z"
     id="path30"
     inkscape:connector-curvature="0" /><path
     d="m 256,401.067 c -52.907,0 -104.96,-27.307 -134.827,-71.68 -2.56,-4.267 -1.707,-9.387 2.56,-11.947 4.267,-2.56 9.387,-1.707 11.947,2.56 26.453,39.253 72.533,64 120.32,64 47.787,0 93.867,-24.747 121.173,-64.853 2.56,-4.267 7.68,-5.12 11.947,-2.56 4.267,2.56 5.12,7.68 2.56,11.947 -30.72,45.226 -82.773,72.533 -135.68,72.533 z"
     id="path32"
     inkscape:connector-curvature="0" /><g
     id="g36">
</g><g
     id="g38">
</g><g
     id="g40">
</g><g
     id="g42">
</g><g
     id="g44">
</g><g
     id="g46">
</g><g
     id="g48">
</g><g
     id="g50">
</g><g
     id="g52">
</g><g
     id="g54">
</g><g
     id="g56">
</g><g
     id="g58">
</g><g
     id="g60">
</g><g
     id="g62">
</g><g
     id="g64">
</g></g>
</svg>