<?xml version="1.0" encoding="UTF-8" standalone="no"?>
<!-- Created with Inkscape (http://www.inkscape.org/) -->

<svg
   xmlns:dc="http://purl.org/dc/elements/1.1/"
   xmlns:cc="http://creativecommons.org/ns#"
   xmlns:rdf="http://www.w3.org/1999/02/22-rdf-syntax-ns#"
   xmlns:svg="http://www.w3.org/2000/svg"
   xmlns="http://www.w3.org/2000/svg"
   xmlns:sodipodi="http://sodipodi.sourceforge.net/DTD/sodipodi-0.dtd"
   xmlns:inkscape="http://www.inkscape.org/namespaces/inkscape"
   width="13.310347mm"
   height="10.715128mm"
   viewBox="0 0 13.310347 10.715128"
   version="1.1"
   id="svg5103"
   inkscape:version="0.92.4 (5da689c313, 2019-01-14)"
   sodipodi:docname="installation.svg">
  <defs
     id="defs5097" />
  <sodipodi:namedview
     id="base"
     pagecolor="#ffffff"
     bordercolor="#666666"
     borderopacity="1.0"
     inkscape:pageopacity="0.0"
     inkscape:pageshadow="2"
     inkscape:zoom="0.76015625"
     inkscape:cx="-108.28955"
     inkscape:cy="-55.452675"
     inkscape:document-units="mm"
     inkscape:current-layer="layer1"
     showgrid="false"
     fit-margin-top="0"
     fit-margin-left="0"
     fit-margin-right="0"
     fit-margin-bottom="0"
     inkscape:window-width="1366"
     inkscape:window-height="705"
     inkscape:window-x="-4"
     inkscape:window-y="-4"
     inkscape:window-maximized="1" />
  <metadata
     id="metadata5100">
    <rdf:RDF>
      <cc:Work
         rdf:about="">
        <dc:format>image/svg+xml</dc:format>
        <dc:type
           rdf:resource="http://purl.org/dc/dcmitype/StillImage" />
        <dc:title></dc:title>
      </cc:Work>
    </rdf:RDF>
  </metadata>
  <g
     inkscape:label="Layer 1"
     inkscape:groupmode="layer"
     id="layer1"
     transform="translate(-73.573672,-123.44635)">
    <g
       transform="matrix(0.19745778,0,0,0.19745778,-30.774037,45.714356)"
       id="g5038">
      <g
         transform="matrix(0.67577514,0,0,0.67577514,528.4558,392.92052)"
         style="opacity:1;fill:#bf9a2f;fill-opacity:1"
         id="g91">
        <g
           style="opacity:1;fill:#bf9a2f;fill-opacity:1"
           id="g9"
           transform="translate(49.5,65.4)">
          <path
             style="fill:#bf9a2f;fill-opacity:1"
             inkscape:connector-curvature="0"
             id="path7"
             d="M 0,0 M -49.5,0 C -49.5,0 0,11 0,11 0,11 49.5,0 49.5,0 49.5,0 0,-11 0,-11 0,-11 -49.5,0 -49.5,0 Z" />
        </g>
        <g
           style="opacity:1;fill:#bf9a2f;fill-opacity:1"
           id="g13"
           transform="translate(24.5,73.401)">
          <path
             style="fill:#bf9a2f;fill-opacity:1"
             inkscape:connector-curvature="0"
             id="path11"
             d="m 0,0 m -24.5,-3 c 0,0 49,11 49,11 0,0 -0.1,-4.95 -0.1,-4.95 0,0 -48.9,-11.05 -48.9,-11.05 0,0 0,5 0,5 z" />
        </g>
        <g
           style="opacity:1;fill:#bf9a2f;fill-opacity:1"
           id="g17"
           transform="translate(74.5,73.401)">
          <path
             style="fill:#bf9a2f;fill-opacity:1"
             inkscape:connector-curvature="0"
             id="path15"
             d="m 0,0 m 24.5,-3.051 c 0,0 0,-4.949 0,-4.949 0,0 -48.9,11.099 -48.9,11.099 0,0 -0.1,4.901 -0.1,4.901 0,0 49,-11.051 49,-11.051 z" />
        </g>
        <g
           style="opacity:1;fill:#bf9a2f;fill-opacity:1"
           id="g21"
           transform="translate(91.85,68.7)">
          <path
             style="fill:#bf9a2f;fill-opacity:1"
             inkscape:connector-curvature="0"
             id="path19"
             d="m 0,0 m 7.551,-1.4 c 0,0 -0.25,-0.35 -0.25,-0.35 -5.101,3.1 -9.984,3.5 -14.651,1.201 0,0 -0.201,0.399 -0.201,0.399 2.034,0.967 4.118,1.45 6.25,1.45 2.967,0 5.918,-0.9 8.852,-2.7 z" />
        </g>
        <g
           style="opacity:1;fill:#bf9a2f;fill-opacity:1"
           id="g25"
           transform="translate(93.25,66.825)">
          <path
             style="fill:#bf9a2f;fill-opacity:1"
             inkscape:connector-curvature="0"
             id="path23"
             d="m 0,0 m 0.8,1.025 c 0.934,-0.233 1.783,-0.566 2.55,-1 0.834,-0.466 1.35,-0.933 1.551,-1.399 0,0 -0.401,-0.151 -0.401,-0.151 -0.167,0.367 -0.599,0.75 -1.3,1.151 -0.7,0.433 -1.533,0.766 -2.5,1 -2.533,0.7 -4.335,0.666 -5.401,-0.101 0,0 -0.199,0.301 -0.199,0.301 0.634,0.466 1.499,0.699 2.599,0.699 1.034,0 2.068,-0.166 3.101,-0.5 z" />
        </g>
        <g
           style="opacity:1;fill:#bf9a2f;fill-opacity:1"
           id="g29"
           transform="translate(84.1,70.925)">
          <path
             style="fill:#bf9a2f;fill-opacity:1"
             inkscape:connector-curvature="0"
             id="path27"
             d="m 0,0 m 4.1,1.725 c 0,0 0.05,-0.4 0.05,-0.4 -3.6,-0.367 -6.283,-1.384 -8.05,-3.05 0,0 -0.25,0.3 -0.25,0.3 1.767,1.733 4.517,2.783 8.25,3.15 z" />
        </g>
        <g
           style="opacity:1;fill:#bf9a2f;fill-opacity:1"
           id="g33"
           transform="translate(79.15,72)">
          <path
             style="fill:#bf9a2f;fill-opacity:1"
             inkscape:connector-curvature="0"
             id="path31"
             d="M 0,0 M 2.9,2 C 2.9,2 3.05,1.6 3.05,1.6 0.95,0.767 -0.999,-0.434 -2.8,-2 c 0,0 -0.25,0.3 -0.25,0.3 1.834,1.634 3.817,2.867 5.95,3.7 z" />
        </g>
        <g
           style="opacity:1;fill:#bf9a2f;fill-opacity:1"
           id="g37"
           transform="translate(50.325,79.6)">
          <path
             style="fill:#bf9a2f;fill-opacity:1"
             inkscape:connector-curvature="0"
             id="path35"
             d="m 0,0 m 0.325,1.25 c 0,0 0.35,-0.25 0.35,-0.25 -0.567,-0.666 -0.884,-1.416 -0.951,-2.25 0,0 -0.399,0 -0.399,0 0.066,0.967 0.399,1.801 1,2.5 z" />
        </g>
        <g
           style="opacity:1;fill:#bf9a2f;fill-opacity:1"
           id="g41"
           transform="translate(74.4,72.975)">
          <path
             style="fill:#bf9a2f;fill-opacity:1"
             inkscape:connector-curvature="0"
             id="path39"
             d="m 0,0 m 3,1.926 c 0,0 0.25,-0.351 0.25,-0.351 -3.2,-2.233 -5.351,-3.4 -6.45,-3.501 0,0 -0.05,0.451 -0.05,0.451 1.1,0.066 3.183,1.201 6.25,3.401 z" />
        </g>
        <g
           style="opacity:1;fill:#bf9a2f;fill-opacity:1"
           id="g45"
           transform="translate(71.7,73.625)">
          <path
             style="fill:#bf9a2f;fill-opacity:1"
             inkscape:connector-curvature="0"
             id="path43"
             d="m 0,0 m 3.1,1.975 c 0,0 0.25,-0.301 0.25,-0.301 -3.3,-2.366 -5.533,-3.583 -6.7,-3.649 0,0 0,0.449 0,0.449 0.967,0.067 3.117,1.234 6.45,3.501 z" />
        </g>
        <g
           style="opacity:1;fill:#bf9a2f;fill-opacity:1"
           id="g49"
           transform="translate(69.6,74.05)">
          <path
             style="fill:#bf9a2f;fill-opacity:1"
             inkscape:connector-curvature="0"
             id="path47"
             d="m 0,0 m 3,1.9 c 0,0 0.25,-0.351 0.25,-0.351 -3.267,-2.266 -5.433,-3.416 -6.5,-3.449 0,0 0,0.4 0,0.4 0.934,0.066 3.017,1.2 6.25,3.4 z" />
        </g>
        <g
           style="opacity:1;fill:#bf9a2f;fill-opacity:1"
           id="g53"
           transform="translate(57.534,76.8)">
          <path
             style="fill:#bf9a2f;fill-opacity:1"
             inkscape:connector-curvature="0"
             id="path51"
             d="m 0,0 m 1.816,2.25 c 0,0 0.101,-0.399 0.101,-0.399 -1.601,-0.5 -2.651,-1.217 -3.151,-2.151 -0.2,-0.4 -0.283,-0.816 -0.25,-1.25 0,0 0.101,-0.55 0.101,-0.55 0,0 -0.351,-0.15 -0.351,-0.15 -0.066,0 -0.116,0.217 -0.149,0.65 -0.034,0.5 0.066,1 0.3,1.5 0.5,1.067 1.632,1.85 3.399,2.35 z" />
        </g>
        <g
           style="opacity:1;fill:#bf9a2f;fill-opacity:1"
           id="g57"
           transform="translate(54.641,77.275)">
          <path
             style="fill:#bf9a2f;fill-opacity:1"
             inkscape:connector-curvature="0"
             id="path55"
             d="m 0,0 m 0.909,2.475 c 0,0 0.15,-0.35 0.15,-0.35 -0.566,-0.3 -0.966,-0.667 -1.2,-1.1 -0.533,-0.9 -0.45,-2 0.25,-3.3 0,0 -0.4,-0.2 -0.4,-0.2 -0.699,1.5 -0.767,2.733 -0.199,3.7 0.266,0.533 0.733,0.95 1.399,1.25 z" />
        </g>
        <g
           style="opacity:1;fill:#bf9a2f;fill-opacity:1"
           id="g61"
           transform="translate(52.109,78)">
          <path
             style="fill:#bf9a2f;fill-opacity:1"
             inkscape:connector-curvature="0"
             id="path59"
             d="m 0,0 m 0.441,2.55 c 0,0 0.351,-0.25 0.351,-0.25 0,0 -0.551,-0.75 -0.551,-0.75 -0.333,-0.5 -0.517,-1.149 -0.55,-1.95 -0.066,-0.699 0,-1.383 0.2,-2.05 0,0 -0.4,-0.1 -0.4,-0.1 -0.199,0.701 -0.283,1.434 -0.25,2.201 0.067,0.866 0.284,1.583 0.65,2.149 0,0 0.55,0.75 0.55,0.75 z" />
        </g>
        <g
           style="opacity:1;fill:#bf9a2f;fill-opacity:1"
           id="g65"
           transform="translate(62.551,75.675)">
          <path
             style="fill:#bf9a2f;fill-opacity:1"
             inkscape:connector-curvature="0"
             id="path63"
             d="m 0,0 m 3.799,1.775 c 0,0 0.051,-0.4 0.051,-0.4 0,0 -1.051,-0.1 -1.051,-0.1 -1.6,-0.134 -2.767,-0.334 -3.5,-0.601 -1.199,-0.465 -2.133,-1.283 -2.8,-2.449 0,0 -0.349,0.199 -0.349,0.199 0.7,1.267 1.683,2.134 2.95,2.601 0.766,0.3 1.983,0.517 3.649,0.649 0,0 1.05,0.101 1.05,0.101 z" />
        </g>
        <g
           style="opacity:1;fill:#bf9a2f;fill-opacity:1"
           id="g69"
           transform="translate(66.625,74.825)">
          <path
             style="fill:#bf9a2f;fill-opacity:1"
             inkscape:connector-curvature="0"
             id="path67"
             d="m 0,0 m 3.625,1.725 c 0,0 0.15,-0.399 0.15,-0.399 -1,-0.401 -2.2,-0.785 -3.6,-1.151 -1.166,-0.3 -1.95,-0.55 -2.35,-0.75 -0.667,-0.3 -1.066,-0.683 -1.2,-1.15 0,0 -0.4,0.1 -0.4,0.1 0.167,0.6 0.617,1.067 1.35,1.4 0.467,0.233 1.3,0.5 2.5,0.801 1.467,0.399 2.65,0.783 3.55,1.149 z" />
        </g>
        <g
           style="opacity:1;fill:#bf9a2f;fill-opacity:1"
           id="g73"
           transform="translate(49.85,65.1)">
          <path
             style="fill:#bf9a2f;fill-opacity:1"
             inkscape:connector-curvature="0"
             id="path71"
             d="m 0,0 m 49.45,0.15 c 0.1,0 0.15,-0.067 0.15,-0.201 0,-0.133 -0.05,-0.2 -0.15,-0.2 0,0 -49.4,-10.8 -49.4,-10.8 0,0 -0.1,0 -0.1,0 0,0 -49.4,10.8 -49.4,10.8 -0.1,0 -0.15,0.067 -0.15,0.2 0,0.134 0.05,0.201 0.15,0.201 0,0 49.4,10.901 49.4,10.901 0,0 0.1,0 0.1,0 0,0 49.4,-10.901 49.4,-10.901 z M 0,0 m -48.45,-0.051 c 0,0 48.45,-10.599 48.45,-10.599 0,0 48.45,10.599 48.45,10.599 C 48.45,-0.051 0,10.6 0,10.6 0,10.6 -48.45,-0.051 -48.45,-0.051 Z" />
        </g>
        <g
           style="opacity:1;fill:#bf9a2f;fill-opacity:1"
           id="g77"
           transform="translate(96.875,68.075)">
          <path
             style="fill:#bf9a2f;fill-opacity:1"
             inkscape:connector-curvature="0"
             id="path75"
             d="m 0,0 m 2.575,-3.025 c 0,-0.133 -0.066,-0.2 -0.2,-0.2 -0.134,0 -0.2,0.067 -0.2,0.2 0,0 0,4.8 0,4.8 0,0 -4.6,1 -4.6,1 -0.101,0.067 -0.15,0.15 -0.15,0.25 0.066,0.134 0.133,0.2 0.2,0.2 0,0 0.05,0 0.05,0 0,0 4.75,-1.1 4.75,-1.1 0.1,0 0.15,-0.066 0.15,-0.2 0,0 0,-4.95 0,-4.95 z" />
        </g>
        <g
           style="opacity:1;fill:#bf9a2f;fill-opacity:1"
           id="g81"
           transform="translate(49.9,78.425)">
          <path
             style="fill:#bf9a2f;fill-opacity:1"
             inkscape:connector-curvature="0"
             id="path79"
             d="m 0,0 m 0,2.675 c 0.167,0 0.25,-0.066 0.25,-0.199 0,0 0,-4.95 0,-4.95 0,-0.134 -0.083,-0.201 -0.25,-0.201 -0.167,0 -0.25,0.067 -0.25,0.201 0,0 0,4.95 0,4.95 0,0.133 0.083,0.199 0.25,0.199 z" />
        </g>
        <g
           style="opacity:1;fill:#bf9a2f;fill-opacity:1"
           id="g85"
           transform="translate(47.508,72.975)">
          <path
             style="fill:#bf9a2f;fill-opacity:1"
             inkscape:connector-curvature="0"
             id="path83"
             d="m 0,0 m 47.042,-1.675 c 0.167,-0.066 0.216,-0.149 0.149,-0.25 0,-0.133 -0.084,-0.2 -0.25,-0.2 0,0 -44.599,9.85 -44.599,9.85 0,0 -49.201,-10.85 -49.201,-10.85 0,0 0,-4.8 0,-4.8 0,-0.133 -0.066,-0.2 -0.2,-0.2 -0.133,0 -0.199,0.067 -0.199,0.2 0,0 0,4.95 0,4.95 0,0.134 0.049,0.2 0.149,0.2 0,0 49.401,10.9 49.401,10.9 0,0 0.1,0 0.1,0 0,0 44.65,-9.8 44.65,-9.8 z" />
        </g>
        <g
           style="opacity:1;fill:#bf9a2f;fill-opacity:1"
           id="g89"
           transform="translate(49.875,67.575)">
          <path
             style="fill:#bf9a2f;fill-opacity:1"
             inkscape:connector-curvature="0"
             id="path87"
             d="m 0,0 m 49.875,-2.624 c 0,-0.267 -0.134,-0.434 -0.4,-0.5 0,0 -49.7,-10.702 -49.7,-10.702 0,0 -49.15,10.801 -49.15,10.801 -0.267,0.067 -0.4,0.234 -0.4,0.5 0,0 -0.1,4.949 -0.1,4.949 0,0.267 0.133,0.434 0.4,0.5 32.8,7.267 49.317,10.902 49.55,10.902 0,0 49.4,-10.851 49.4,-10.851 0.266,-0.099 0.4,-0.284 0.4,-0.551 0,0 0,-5.048 0,-5.048 z M 0,0 m 48.875,-2.226 c 0,0 0,4.251 0,4.251 0,0 -48.9,10.801 -48.9,10.801 0,0 -48.85,-10.801 -48.85,-10.801 0,0 0.1,-4.149 0.1,-4.149 0,0 48.6,-10.75 48.6,-10.75 0,0 49.05,10.648 49.05,10.648 z" />
        </g>
      </g>
      <g
         style="opacity:1;fill:#dcc070;fill-opacity:1"
         id="g101"
         transform="matrix(0.67577514,0,0,0.67577514,528.4558,381.09446)">
        <g
           style="opacity:1;fill:#dcc070;fill-opacity:1"
           id="g95"
           transform="translate(49.866,41.8)">
          <path
             style="fill:#dcc070;fill-opacity:1"
             inkscape:connector-curvature="0"
             id="path93"
             d="m 0,0 m 7.434,-22.7 c 0,-0.333 -0.166,-0.5 -0.5,-0.5 0,0 -13.851,0 -13.851,0 -0.367,0 -0.549,0.167 -0.549,0.5 0,0 0,25 0,25 0,0 -8.75,0 -8.75,0 -0.233,0 -0.4,0.1 -0.5,0.3 -0.067,0.233 -0.034,0.417 0.099,0.55 0,0 16.2,19.85 16.2,19.85 0.133,0.133 0.268,0.2 0.401,0.2 0.133,0 0.266,-0.067 0.4,-0.2 0,0 16.25,-19.85 16.25,-19.85 0.134,-0.2 0.15,-0.383 0.05,-0.55 -0.1,-0.2 -0.25,-0.3 -0.45,-0.3 0,0 -8.8,0 -8.8,0 0,0 0,-25 0,-25 z M 0,0 m -15.117,3.3 c 0,0 8.2,0 8.2,0 0.333,0 0.5,-0.167 0.5,-0.5 0,0 0,-24.95 0,-24.95 0,0 12.801,0 12.801,0 0,0 0,24.95 0,24.95 0,0.333 0.184,0.5 0.55,0.5 0,0 8.2,0 8.2,0 0,0 -15.15,18.55 -15.15,18.55 0,0 -15.101,-18.55 -15.101,-18.55 z" />
        </g>
        <g
           style="opacity:1;fill:#dcc070;fill-opacity:1"
           id="g99"
           transform="translate(49.875,41.65)">
          <path
             style="fill:#dcc070;fill-opacity:1"
             inkscape:connector-curvature="0"
             id="path97"
             d="m 0,0 m -6.925,3.45 c 0,0 -8.2,0 -8.2,0 0,0 15.1,18.55 15.1,18.55 0,0 15.15,-18.55 15.15,-18.55 0,0 -8.2,0 -8.2,0 -0.367,0 -0.55,-0.167 -0.55,-0.5 0,0 0,-24.95 0,-24.95 0,0 -12.8,0 -12.8,0 0,0 0,24.95 0,24.95 0,0.333 -0.167,0.5 -0.5,0.5 z" />
        </g>
      </g>
    </g>
  </g>
</svg>
