<?xml version="1.0" encoding="UTF-8" standalone="no"?>
<!-- Created with Inkscape (http://www.inkscape.org/) -->

<svg
   xmlns:dc="http://purl.org/dc/elements/1.1/"
   xmlns:cc="http://creativecommons.org/ns#"
   xmlns:rdf="http://www.w3.org/1999/02/22-rdf-syntax-ns#"
   xmlns:svg="http://www.w3.org/2000/svg"
   xmlns="http://www.w3.org/2000/svg"
   xmlns:sodipodi="http://sodipodi.sourceforge.net/DTD/sodipodi-0.dtd"
   xmlns:inkscape="http://www.inkscape.org/namespaces/inkscape"
   width="6.486568mm"
   height="6.84694mm"
   viewBox="0 0 6.486568 6.84694"
   version="1.1"
   id="svg2955"
   inkscape:version="0.92.4 (5da689c313, 2019-01-14)"
   sodipodi:docname="instagram.svg">
  <defs
     id="defs2949" />
  <sodipodi:namedview
     id="base"
     pagecolor="#ffffff"
     bordercolor="#666666"
     borderopacity="1.0"
     inkscape:pageopacity="0.0"
     inkscape:pageshadow="2"
     inkscape:zoom="0.98994949"
     inkscape:cx="81.840861"
     inkscape:cy="-65.149317"
     inkscape:document-units="mm"
     inkscape:current-layer="layer1"
     showgrid="false"
     fit-margin-top="0"
     fit-margin-left="0"
     fit-margin-right="0"
     fit-margin-bottom="0"
     inkscape:window-width="1366"
     inkscape:window-height="705"
     inkscape:window-x="-4"
     inkscape:window-y="-4"
     inkscape:window-maximized="1" />
  <metadata
     id="metadata2952">
    <rdf:RDF>
      <cc:Work
         rdf:about="">
        <dc:format>image/svg+xml</dc:format>
        <dc:type
           rdf:resource="http://purl.org/dc/dcmitype/StillImage" />
        <dc:title></dc:title>
      </cc:Work>
    </rdf:RDF>
  </metadata>
  <g
     inkscape:label="Layer 1"
     inkscape:groupmode="layer"
     id="layer1"
     transform="translate(-33.580225,-124.74897)">
    <path
       style="color:#000000;font-style:normal;font-variant:normal;font-weight:normal;font-stretch:normal;font-size:medium;line-height:normal;font-family:Sans;-inkscape-font-specification:Sans;text-indent:0;text-align:start;text-decoration:none;text-decoration-line:none;letter-spacing:normal;word-spacing:normal;text-transform:none;writing-mode:lr-tb;direction:ltr;baseline-shift:baseline;text-anchor:start;display:inline;overflow:visible;visibility:visible;fill:#bf9a2f;fill-opacity:1;stroke:none;stroke-width:4.82804394;marker:none;enable-background:accumulate"
       d="m 35.457695,124.74897 c -1.035438,0 -1.87747,0.89147 -1.87747,1.9871 v 2.87324 c 0,1.09562 0.842032,1.9866 1.87747,1.9866 h 2.731628 c 1.035438,0 1.87747,-0.89098 1.87747,-1.9866 v -2.87324 c 0,-1.09563 -0.842032,-1.9871 -1.87747,-1.9871 z m 0,0.58863 h 2.731628 c 0.736936,0 1.321667,0.6187 1.321667,1.39847 v 2.87324 c 0,0.77974 -0.584731,1.39797 -1.321667,1.39797 h -2.731628 c -0.736935,0 -1.3212,-0.61823 -1.3212,-1.39797 v -2.87324 c 0,-0.77977 0.584265,-1.39847 1.3212,-1.39847 z m 3.106658,0.58857 c -0.214879,0 -0.388971,0.18422 -0.388971,0.41158 0,0.22741 0.174092,0.41162 0.388971,0.41162 0.214877,0 0.388972,-0.18421 0.388972,-0.41162 0,-0.22736 -0.174095,-0.41158 -0.388972,-0.41158 z m -1.740846,0.48338 c -0.91688,0 -1.66602,0.7927 -1.66602,1.76288 0,0.97019 0.74914,1.76289 1.66602,1.76289 0.916884,0 1.666492,-0.7927 1.666492,-1.76289 0,-0.97018 -0.749608,-1.76288 -1.666492,-1.76288 z m 0,0.58863 c 0.616302,0 1.110218,0.52214 1.110218,1.17425 0,0.65212 -0.493916,1.17427 -1.110218,1.17427 -0.616299,0 -1.109748,-0.52215 -1.109748,-1.17427 0,-0.65211 0.493449,-1.17425 1.109748,-1.17425 z"
       id="rect3687"
       inkscape:connector-curvature="0"
       inkscape:export-filename="C:\Users\root_x90\Desktop\insta.png"
       inkscape:export-xdpi="90"
       inkscape:export-ydpi="90" />
  </g>
</svg>
