<svg width="15.422" height="17.236" version="1.1" viewBox="0 0 4.0803 4.5604" xmlns="http://www.w3.org/2000/svg"><g transform="translate(46.377 -124.09)"><g transform="matrix(.015458 0 0 .013042 -47.04 124.09)" fill="#bf9a2f"><path d="m174.83 0c-72.775 0-131.98 59.207-131.98 131.98 0 30.083 21.156 74.658 62.881 132.48 30.46 42.215 61.363 76.607 61.671 76.95l7.429 8.245 7.429-8.245c0.309-0.342 31.211-34.734 61.671-76.95 41.725-57.828 62.881-102.4 62.881-132.48 1e-3 -72.774-59.206-131.98-131.98-131.98zm-1e-3 319.62c-37.058-42.692-111.98-139.05-111.98-187.64-1e-3 -61.746 50.234-111.98 111.98-111.98s111.98 50.235 111.98 111.98c0 48.559-74.924 144.93-111.98 187.64z"/><circle cx="174.83" cy="131.98" r="49.696"/></g></g></svg>
