<svg width="316.88" height="54.743" version="1.1" viewBox="0 0 83.841 14.484" xmlns="http://www.w3.org/2000/svg"><g transform="translate(137.36 -92.123)"><g transform="matrix(.37566 0 0 .37566 -88.835 58.414)" fill="#b8942f" fill-opacity=".94118" stroke-width=".92043" style="font-feature-settings:normal;font-variant-caps:normal;font-variant-ligatures:normal;font-variant-numeric:normal" aria-label="الأرضيات الساحرة"><path d="m92.61 113.68q0 1.4382-0.52134 2.7865-0.26966 0.7191-1.1685 2.2831l-0.32359-0.17977q0.05393-0.52134 0.08989-1.2045 0.05393-0.68314 0.05393-0.91684 0-1.8696-0.30561-5.2134-0.28764-3.3618-0.70112-7.0112-0.25168-2.2112-0.5573-4.5123 0.35955-0.791 0.80898-1.7078 0.46741-0.91684 0.88089-1.7258 0.28764 2.0494 0.71909 5.6089 0.44943 3.5595 0.70112 6.4179 0.32359 3.5595 0.32359 5.3752z" style="font-feature-settings:normal;font-variant-caps:normal;font-variant-ligatures:normal;font-variant-numeric:normal"/><path d="m85.132 99.266-0.86291 3.2359-1.0607-0.52134 0.03596 1.6359q0 2.409-0.61123 4.6741-0.66516 2.4809-2.1033 4.9078 0.68314 1.2584 0.9528 1.9775 0.41348 1.1326 0.41348 2.3011 0 0.66517-0.03596 1.1326t-0.1618 1.0966q-1.9056 0.43146-4.0809 0.68314-2.1573 0.23371-4.2067 0.23371 0.01798-0.34157 0.01798-0.57528 0.08989-1.3663 0.43146-2.5348 3.0561-1.6359 5.1595-4.2426-1.2584-2.373-1.8337-3.3618-0.62921-1.0786-2.1393-3.3618-0.5573-0.77302-0.98875-1.2404-0.59325-0.62921-0.93482-0.62921-0.23371 0-0.77303 0.26966-0.28764 0.14382-0.48539 0.14382-0.3955 0-1.2404-0.791-0.73707-0.70112-1.5461-1.7258-0.64718-0.82696-0.88089-1.3663-0.2337-0.55729-0.2337-1.3303 0-1.1146 0.14382-1.7438 0.21573-0.9528 0.73707-0.9528 0.73707 0 2.1393 1.4022 1.2404 1.2584 2.7685 3.3078 1.3483 1.8157 2.6606 3.9191l1.8337 2.9483q0.80898 1.3303 1.6539 3.0202 1.2045-2.4269 1.6539-4.9078 0.3955-2.1573 0.3955-5.5011l-1.0247-0.59325q0-1.1865 0.19775-2.1393 0.21573-0.97078 0.59325-1.7618l0.41348 0.10786q0.07191 0.77302 0.86291 1.2404 0.43146 0.25168 1.0966 0.57528 0.68314 0.32359 1.0427 0.46741zm-4.6741 17.492q0-0.3955-0.1618-0.80898-0.14382-0.43146-0.66516-1.4022-0.53932 0.70111-1.618 1.618-1.0607 0.91684-2.1033 1.564 2.1213 0 3.0202-0.12584 1.5281-0.21573 1.5281-0.84494zm-8.2696-22.669q0 0.44943-0.5573 0.80898-0.37752 0.2337-1.1326 0.50336l-3.3438 1.1505q0-0.82696 1.7977-1.4562-0.5573-0.28764-0.84493-0.5573-0.37752-0.34157-0.37752-0.71909 0-0.5573 0.9528-1.564 1.0607-1.1146 1.8696-1.1146 0.35955 0 0.61123 0.25168 0.26966 0.2337 0.26966 0.62921 0 0.25168-0.10786 0.52134-0.10786 0.25168-0.30562 0.57528-0.5573-0.50336-1.2045-0.50336-0.3955 0-0.791 0.1618-0.37752 0.1618-0.37752 0.37752 0 0.26966 0.82696 0.73707 0.84494 0.46741 1.4382 0.46741 0.3955 0 0.5573-0.01798 0.17977-0.03595 0.71909-0.25168z" style="font-feature-settings:normal;font-variant-caps:normal;font-variant-ligatures:normal;font-variant-numeric:normal"/><path d="m66.489 118.27q0 1.9775-1.6899 4.0988-1.4741 1.8696-3.6674 3.2179-2.0854 1.2944-3.4337 1.2944-1.2404 0-2.6786-0.35955-1.0966-0.26966-2.6247-0.84493-1.2944-0.48539-2.5708-0.97078l0.30562-0.71909q1.1865 0.23371 2.4629 0.46741 1.2944 0.25168 2.3371 0.25168 2.3011 0 4.7999-1.4741 2.2651-1.3483 3.8651-3.3977 1.6-2.0674 1.6-3.7213 0-1.4202-0.82696-2.9842-0.66516-1.2584-1.8696-2.5887l1.0247-2.8224q1.4741 1.3663 2.1753 2.7326 0.791 1.546 0.791 3.4516z" style="font-feature-settings:normal;font-variant-caps:normal;font-variant-ligatures:normal;font-variant-numeric:normal"/><path d="m37.078 103.33-1.3663 2.6067-2.9123-1.5101 1.3303-2.6247zm11.434 14.939h-21.609q-0.97078 0-1.8517-0.3236-0.66516-0.25168-1.564-0.80898-0.75505 0.64719-1.5101 0.89887-0.75505 0.23371-2.409 0.23371h-3.4696v-3.1281h3.4696q1.4562 0 2.0854-0.25168 1.0427-0.41348 1.0427-1.6539 0-0.52134-0.07191-1.0427-0.05393-0.53932-0.17977-1.1685l0.73707-1.0786q0.62921 2.4449 1.7258 3.7752 1.1685 1.4202 2.7505 1.4202 1.5101 0 3.5415-0.68314 2.1932-0.73707 3.7752-1.8696 2.5708-1.8337 3.146-2.1932 1.4562-0.93482 2.6427-1.3303 1.3303-0.44943 2.9123-0.44943 2.4449 0 3.6854 1.4202 1.1505 1.3123 1.1505 3.6854zm-2.9303-4.5123q0-0.88089-1.0966-1.3663-1.0966-0.50337-2.5528-0.50337-1.7977 0-4.3505 1.2045-2.0314 1.0247-4.0449 2.0494h8.2876q1.9595 0 2.8584-0.34157 0.89887-0.34157 0.89887-1.0427z" style="font-feature-settings:normal;font-variant-caps:normal;font-variant-ligatures:normal;font-variant-numeric:normal"/><path d="m17.357 118.27h-10.247v-3.1281h8.9347q0-2.1213-0.50336-3.2359-0.34157-0.77303-1.6899-2.2292l1.4022-2.9303q1.2944 1.6359 1.618 2.5528 0.48539 1.3842 0.48539 4.5842zm-0.08989 3.5955-1.4022 2.5887-2.9123-1.546 1.3483-2.5708zm-4.1348 1.618-1.3663 2.6067-2.9123-1.5101 1.3303-2.6067z" style="font-feature-settings:normal;font-variant-caps:normal;font-variant-ligatures:normal;font-variant-numeric:normal"/><path d="m8.3325 118.27h-2.5168q-1.2225 0-1.9595-0.98876-0.64718-0.86291-0.98875-2.5708-0.32359-1.7078-0.50337-4.2067-0.10786-2.0314-0.23371-4.1707-0.10786-2.1393-0.30561-3.2359-0.17977-1.1146-0.50337-1.8157-0.3955-0.86291-1.0966-1.5101l2.2112-3.4876q0.70112 2.1573 0.98875 5.1595 0.17977 1.8696 0.35955 8.8448 0.32359 3.2 0.93482 4.0988 0.50337 0.75505 1.0966 0.75505h2.5168z" style="font-feature-settings:normal;font-variant-caps:normal;font-variant-ligatures:normal;font-variant-numeric:normal"/><path d="m-8.5482 101.94-1.4022 2.5887-2.9123-1.546 1.3483-2.5708zm-4.1348 1.618-1.3663 2.6067-2.9123-1.5101 1.3303-2.6067zm12.584 14.705h-17.15q-3.4516 0-5.5011-1.2045-2.5708-1.5101-2.5708-4.728 0-1.6719 0.75505-3.4157 0.26966-0.6292 1.2944-2.391l0.53932 0.34157q-0.3955 0.82695-0.77302 1.6539-0.52134 1.2764-0.52134 2.2831 0 2.1213 2.2292 3.2898 1.9955 1.0427 5.0516 1.0427h15.227v-0.48539q0-2.0135-0.48539-3.2719-0.48539-1.2764-1.6539-2.1753l1.3843-2.9303q0.791 0.98876 0.9528 1.2404 1.2225 2.0135 1.2225 5.8606z" style="font-feature-settings:normal;font-variant-caps:normal;font-variant-ligatures:normal;font-variant-numeric:normal"/><path d="m-38.121 113.68q0 1.4382-0.52134 2.7865-0.26966 0.7191-1.1685 2.2831l-0.32359-0.17977q0.05393-0.52134 0.08989-1.2045 0.05393-0.68314 0.05393-0.91684 0-1.8696-0.30562-5.2134-0.28764-3.3618-0.70112-7.0112-0.25168-2.2112-0.5573-4.5123 0.35955-0.791 0.80898-1.7078 0.46741-0.91684 0.88089-1.7258 0.28764 2.0494 0.71909 5.6089 0.44943 3.5595 0.70112 6.4179 0.32359 3.5595 0.32359 5.3752z" style="font-feature-settings:normal;font-variant-caps:normal;font-variant-ligatures:normal;font-variant-numeric:normal"/><path d="m-44.197 118.27h-8.8808v-3.1281h7.0651l-2.1393-15.245-0.93482-0.44943q0-1.2404 0.21573-2.3191 0.21573-1.0966 0.64718-2.1213l0.26966 0.19775q0 1.0427 1.1685 1.564 0.89887 0.35955 1.8157 0.71909 0 0.89887-0.14382 1.9236-0.14382 1.0247-0.34157 1.5281l-0.86291-0.28763 2.1213 14.094z" style="font-feature-settings:normal;font-variant-caps:normal;font-variant-ligatures:normal;font-variant-numeric:normal"/><path d="m-51.838 118.27h-1.3843q-1.1505 0-1.9775-0.30562-0.82696-0.32359-1.5101-0.89886-0.84494 0.66516-1.4741 0.88088-0.91684 0.3236-2.5168 0.3236h-1.1685q-0.93482 0-1.8696-0.35955-0.61123-0.23371-1.5101-0.77303-0.86291 0.64719-1.582 0.89887-0.71909 0.23371-2.3371 0.23371h-3.4696v-3.1281h3.4696q1.4562 0 2.0854-0.25168 1.0427-0.41348 1.0427-1.6539 0-0.52134-0.05393-1.0427-0.05393-0.52135-0.19775-1.1685l0.73707-1.0786q0.50337 1.6539 0.82696 2.409 0.57528 1.3124 1.2584 1.9775 0.82696 0.80898 1.9775 0.80898h1.2045q1.3483 0 1.9955-0.41348 0.71909-0.46741 0.71909-1.4921 0-0.55729-0.07191-1.0786-0.07191-0.52134-0.19775-1.1326l0.75505-1.0786 0.37752 1.6899q0.48539 1.9955 1.1865 2.7685 0.61123 0.68314 1.6539 0.68314 0.48539 0 0.77302-0.28764 0.30562-0.30561 0.30562-0.77302 0-1.0067-0.73707-2.1213-0.12584-0.17977-0.88089-1.1685l1.1685-1.9595q0.73707 1.1146 1.0067 1.9236 0.3955 1.2225 0.3955 3.2539z" style="font-feature-settings:normal;font-variant-caps:normal;font-variant-ligatures:normal;font-variant-numeric:normal"/><path d="m-71.415 118.27h-2.5168q-1.2225 0-1.9595-0.98876-0.64718-0.86291-0.98875-2.5708-0.32359-1.7078-0.50336-4.2067-0.10786-2.0314-0.23371-4.1707-0.10786-2.1393-0.30561-3.2359-0.17977-1.1146-0.50337-1.8157-0.3955-0.86291-1.0966-1.5101l2.2112-3.4876q0.70112 2.1573 0.98875 5.1595 0.17977 1.8696 0.35955 8.8448 0.32359 3.2 0.93482 4.0988 0.50336 0.75505 1.0966 0.75505h2.5168z" style="font-feature-settings:normal;font-variant-caps:normal;font-variant-ligatures:normal;font-variant-numeric:normal"/><path d="m-79.846 118.27h-20.764v-3.1281h14.652q-1.8337-1.4202-3.0921-2.2112-1.564-0.98876-2.8584-1.4382-1.4562-0.50336-2.9483-0.50336-0.91684 0-1.8517 0.12584 0.52134-1.3303 1.3663-2.1393 1.2225-1.1685 3.0921-1.1685 1.8337 0 4.3325 1.7977 1.2404 0.89887 4.0449 3.4157 2.1753 1.9595 2.9483 2.1213h1.0786z" style="font-feature-settings:normal;font-variant-caps:normal;font-variant-ligatures:normal;font-variant-numeric:normal"/><path d="m-99.334 118.27q0 1.9775-1.6899 4.0988-1.4741 1.8696-3.6674 3.2179-2.0854 1.2944-3.4337 1.2944-1.2404 0-2.6786-0.35955-1.0966-0.26966-2.6247-0.84493-1.2944-0.48539-2.5708-0.97078l0.30562-0.71909q1.1865 0.23371 2.4629 0.46741 1.2944 0.25168 2.337 0.25168 2.3011 0 4.8-1.4741 2.2652-1.3483 3.8651-3.3977 1.6-2.0674 1.6-3.7213 0-1.4202-0.82695-2.9842-0.66517-1.2584-1.8696-2.5887l1.0247-2.8224q1.4741 1.3663 2.1753 2.7326 0.791 1.546 0.791 3.4516z" style="font-feature-settings:normal;font-variant-caps:normal;font-variant-ligatures:normal;font-variant-numeric:normal"/><path d="m-119.34 101.48-1.4022 2.5887-2.9123-1.546 1.3483-2.5708zm-4.1348 1.618-1.3663 2.6067-2.9123-1.5101 1.3303-2.6067zm5.7168 9.8696q0 2.5348-0.82695 3.8112-1.2764 1.9775-4.6741 1.9775-1.3124 0-2.1753-0.52134-0.98875-0.59325-0.98875-1.6899 0-1.2584 0.6292-2.9123 0.57528-1.4022 1.1685-2.8224l-0.26966-0.0719 1.0966-3.0382q3.2539 1.7078 3.8831 2.1573 2.1573 1.5101 2.1573 3.1101zm-1.564 1.4022q0-0.68313-1.9775-1.8157-0.84494-0.48538-1.8157-0.95279-0.80898 0.88088-0.97078 1.0966-0.50336 0.70112-0.50336 1.3303 0 0.91684 0.50336 1.4382 0.52134 0.50337 1.3843 0.50337 1.0067 0 2.1932-0.5573 1.1865-0.57527 1.1865-1.0427z" style="font-feature-settings:normal;font-variant-caps:normal;font-variant-ligatures:normal;font-variant-numeric:normal"/></g></g></svg>
