<svg width="74.837" height="74.224" version="1.1" viewBox="0 0 19.8 19.639" xmlns="http://www.w3.org/2000/svg" xmlns:xlink="http://www.w3.org/1999/xlink"><defs><marker id="TriangleOutM" overflow="visible" orient="auto"><path transform="scale(.4)" d="m5.77 0-8.65 5v-10z" fill-rule="evenodd" stroke="#000" stroke-width="1pt"/></marker><marker id="Arrow2Send" overflow="visible" orient="auto"><path transform="matrix(-.3 0 0 -.3 .69 0)" d="m8.7186 4.0337-10.926-4.0177 10.926-4.0177c-1.7455 2.3721-1.7354 5.6175 0 8.0354z" fill-opacity=".99216" fill-rule="evenodd" stroke="#000" stroke-linejoin="round" stroke-opacity=".99216" stroke-width=".625"/></marker><linearGradient id="linearGradient836"><stop stop-color="#ff7f2a" offset="0"/><stop stop-color="#520" offset="1"/></linearGradient><linearGradient id="linearGradient838" x1="130.35" x2="69.548" y1="119.13" y2="104.99" gradientUnits="userSpaceOnUse" xlink:href="#linearGradient836"/><filter id="filter2904" x="-.032958" y="-.03186" width="1.0659" height="1.0637" color-interpolation-filters="sRGB"><feGaussianBlur stdDeviation="1.6377053"/></filter><linearGradient id="linearGradient1208" x1="126.12" x2="33.426" y1="31.036" y2="30.514" gradientTransform="matrix(1.6085,0,0,1.6085,-10.019,-25.091)" gradientUnits="userSpaceOnUse" xlink:href="#linearGradient836"/><filter id="filter1224" color-interpolation-filters="sRGB"><feMorphology in="SourceAlpha" radius="4.3" result="result91"/><feComposite in="SourceGraphic" in2="result91" operator="out"/><feGaussianBlur result="result0" stdDeviation="1.2"/><feDiffuseLighting><feDistantLight azimuth="225" elevation="66"/></feDiffuseLighting><feBlend in2="SourceGraphic" mode="multiply"/><feComposite in2="SourceAlpha" operator="in"/></filter></defs><g transform="matrix(1.005 0 0 .99996 -.12447 -.26455)"><text x="282.85846" y="-32.428898" fill="#000000" font-family="sans-serif" font-size="10.632px" letter-spacing="0px" stroke-width=".2658" word-spacing="0px" style="line-height:1.25" xml:space="preserve"><tspan x="282.85846" y="-22.728983" stroke-width=".2658"/></text><path d="m19.212 10.308a9.2367 8.9787 0 0 1-9.2362 8.9787 9.2367 8.9787 0 0 1-9.2371-8.9779 9.2367 8.9787 0 0 1 9.2355-8.9795 9.2367 8.9787 0 0 1 9.2378 8.9772" fill-rule="evenodd" stroke="#000" stroke-linejoin="round" stroke-opacity=".99216" stroke-width=".17672"/><g transform="translate(-.14299)"><path transform="matrix(.14445 0 0 .1362 -4.3599 -18.135)" d="m159.85 204.59a59.628 61.683 0 0 1-59.626 61.683 59.628 61.683 0 0 1-59.631-61.678 59.628 61.683 0 0 1 59.621-61.688 59.628 61.683 0 0 1 59.636 61.672" fill="#fff" fill-rule="evenodd" filter="url(#filter2904)" stroke="#000" stroke-linejoin="round" stroke-opacity=".99216" stroke-width="1.1769"/></g><g transform="matrix(.12141 -.00018485 .00019604 .11447 .092839 -2.8451)" fill="url(#linearGradient838)" stroke-width="3.9521" style="font-feature-settings:normal;font-variant-caps:normal;font-variant-ligatures:normal;font-variant-numeric:normal" aria-label="MF"><path d="m113.38 143.37h-29.333v-1.8912h2.4315q3.2421 0 5.2876-1.621 2.0456-1.621 2.0456-8.4525v-46.161l-26.631 58.126h-1.6982l-26.708-58.126v46.161q0 6.8315 1.8912 8.4525t5.4806 1.621h2.4315v1.8912h-24.045v-1.8912h2.4315q3.1649 0 5.2491-1.621t2.0842-8.4525v-45.157q0-5.3648-1.7368-7.7192t-8.028-2.3544v-1.8912h19.568l25.049 54.073 24.663-54.073h19.568v1.8912h-2.393q-3.2035 0-5.2876 1.6596-2.0842 1.621-2.0842 8.4139v45.157q0 6.7543 1.8912 8.4139 1.9298 1.6596 5.4806 1.6596h2.393z" style="font-feature-settings:normal;font-variant-caps:normal;font-variant-ligatures:normal;font-variant-numeric:normal"/><path d="m139.26 89.447h-1.814q-1.3895-5.0561-3.9754-8.2209-2.5859-3.1649-11.386-3.1649h-15.245v27.133h12.582q4.8631 0 6.6385-2.2386t2.393-7.2174h1.8912v23.389h-1.8912q-0.0772-5.3262-2.2386-7.4876-2.1228-2.2-6.7929-2.2h-12.582v21.691q0 5.7122 0.73333 7.1017 0.73332 1.3895 2.7017 2.3158 2.007 0.9263 4.0526 0.9263h2.5087v1.8912h-29.642v-1.8912h2.4315q4.7087 0 6.0596-2.2386 1.3895-2.2772 1.3895-8.1052v-44.617q0-6.5613-1.7754-8.4525-1.7368-1.8912-5.6736-1.8912h-2.4315v-1.8912h51.371z" style="font-feature-settings:normal;font-variant-caps:normal;font-variant-ligatures:normal;font-variant-numeric:normal"/></g><g transform="matrix(-.026505 .0012378 -.0013127 -.024992 16.211 20.033)"><g transform="translate(35.417)" fill-rule="evenodd"><g transform="matrix(.23842 0 0 .23842 17.188 124.47)"><rect transform="rotate(31.059)" x="150.72" y="164.74" width="410.51" height="41.773" ry="0" fill="#520"/><rect transform="rotate(31.059)" x="202.25" y="103.17" width="326.57" height="41.758" ry="0" fill="#a40"/><rect transform="rotate(31.059)" x="250.97" y="39.642" width="245.87" height="41.758" ry="0" fill="#ff7f2a"/></g><g transform="matrix(.23842 0 0 .23842 140.88 130.99)"><rect transform="rotate(31.059)" x="150.72" y="164.74" width="410.51" height="41.773" ry="0" fill="#520"/><rect transform="rotate(31.059)" x="202.25" y="103.17" width="326.57" height="41.758" ry="0" fill="#a40"/><rect transform="rotate(31.059)" x="250.97" y="39.642" width="245.87" height="41.758" ry="0" fill="#ff7f2a"/></g><g transform="matrix(.23842 0 0 .23842 264.57 133.83)"><rect transform="rotate(31.059)" x="150.72" y="164.74" width="410.51" height="41.773" ry="0" fill="#520"/><rect transform="rotate(31.059)" x="202.25" y="103.17" width="326.57" height="41.758" ry="0" fill="#a40"/><rect transform="rotate(31.059)" x="250.97" y="39.642" width="245.87" height="41.758" ry="0" fill="#ff7f2a"/></g></g></g><path d="m18.588 9.7306a8.6133 8.4015 0 0 1-8.613 8.4015 8.6133 8.4015 0 0 1-8.6137-8.4008 8.6133 8.4015 0 0 1 8.6123-8.4022 8.6133 8.4015 0 0 1 8.6145 8.4" fill="none" stroke="#000" stroke-linejoin="round" stroke-opacity=".99216" stroke-width=".16508"/><g transform="matrix(.042197 0 0 .039788 7.5521 2.1604)"><text x="144.19792" y="38.502083" fill="#2b1100" font-family="sans-serif" font-size="10.583px" letter-spacing="0px" stroke-width=".26458" word-spacing="0px" style="line-height:1.25" xml:space="preserve"><tspan x="144.19792" y="38.502083" fill="#2b1100" stroke-width=".26458">R</tspan></text><path d="m155.31 34.004a7.5406 7.1437 0 0 1-7.5403 7.1437 7.5406 7.1437 0 0 1-7.541-7.1431 7.5406 7.1437 0 0 1 7.5396-7.1444 7.5406 7.1437 0 0 1 7.5416 7.1425" fill="none" marker-end="url(#TriangleOutM)" marker-mid="url(#Arrow2Send)" stroke="#000" stroke-dasharray="0.19125, 0.19125" stroke-dashoffset="5.7375" stroke-opacity=".99216" stroke-width=".765"/></g><text transform="matrix(.079411 0 0 .11426 3.3696 1.3151)" x="40.349289" y="27.286007" fill="url(#linearGradient1208)" filter="url(#filter1224)" font-family="Aparajita" font-size="17.023px" letter-spacing="0px" stroke-width=".42557" word-spacing="0px" style="font-feature-settings:normal;font-variant-caps:normal;font-variant-ligatures:normal;font-variant-numeric:normal;line-height:1.25" xml:space="preserve"><tspan x="40.349289" y="27.286007" fill="url(#linearGradient1208)" font-family="Aparajita" font-size="17.023px" stroke-width=".42557" style="font-feature-settings:normal;font-variant-caps:normal;font-variant-ligatures:normal;font-variant-numeric:normal">Magic Flooring</tspan></text></g></svg>
