<?xml version="1.0" encoding="UTF-8" standalone="no"?>
<svg
   xmlns:dc="http://purl.org/dc/elements/1.1/"
   xmlns:cc="http://creativecommons.org/ns#"
   xmlns:rdf="http://www.w3.org/1999/02/22-rdf-syntax-ns#"
   xmlns:svg="http://www.w3.org/2000/svg"
   xmlns="http://www.w3.org/2000/svg"
   xmlns:xlink="http://www.w3.org/1999/xlink"
   xmlns:sodipodi="http://sodipodi.sourceforge.net/DTD/sodipodi-0.dtd"
   xmlns:inkscape="http://www.inkscape.org/namespaces/inkscape"
   id="Layer_1"
   enable-background="new 0 0 512 512"
   height="40.012634"
   viewBox="0 0 49.293766 40.012634"
   width="49.293766"
   version="1.1"
   sodipodi:docname="mission.svg"
   inkscape:version="0.92.4 (5da689c313, 2019-01-14)">
  <metadata
     id="metadata15">
    <rdf:RDF>
      <cc:Work
         rdf:about="">
        <dc:format>image/svg+xml</dc:format>
        <dc:type
           rdf:resource="http://purl.org/dc/dcmitype/StillImage" />
        <dc:title></dc:title>
      </cc:Work>
    </rdf:RDF>
  </metadata>
  <defs
     id="defs13">
    <linearGradient
       inkscape:collect="always"
       id="linearGradient835">
      <stop
         style="stop-color:#bf9a2f;stop-opacity:1;"
         offset="0"
         id="stop831" />
      <stop
         style="stop-color:#000000;stop-opacity:0.81696427"
         offset="1"
         id="stop833" />
    </linearGradient>
    <linearGradient
       inkscape:collect="always"
       xlink:href="#linearGradient835"
       id="linearGradient837"
       x1="0"
       y1="256"
       x2="200.74092"
       y2="577.63495"
       gradientUnits="userSpaceOnUse" />
    <linearGradient
       inkscape:collect="always"
       xlink:href="#linearGradient835"
       id="linearGradient839"
       gradientUnits="userSpaceOnUse"
       x1="0"
       y1="256"
       x2="200.74092"
       y2="577.63495" />
    <linearGradient
       inkscape:collect="always"
       xlink:href="#linearGradient835"
       id="linearGradient841"
       gradientUnits="userSpaceOnUse"
       x1="0"
       y1="256"
       x2="200.74092"
       y2="577.63495" />
    <linearGradient
       inkscape:collect="always"
       xlink:href="#linearGradient835"
       id="linearGradient843"
       gradientUnits="userSpaceOnUse"
       x1="0"
       y1="256"
       x2="200.74092"
       y2="577.63495" />
    <linearGradient
       inkscape:collect="always"
       xlink:href="#linearGradient835"
       id="linearGradient845"
       gradientUnits="userSpaceOnUse"
       x1="0"
       y1="256"
       x2="200.74092"
       y2="577.63495" />
  </defs>
  <sodipodi:namedview
     pagecolor="#ffffff"
     bordercolor="#666666"
     borderopacity="1"
     objecttolerance="10"
     gridtolerance="10"
     guidetolerance="10"
     inkscape:pageopacity="0"
     inkscape:pageshadow="2"
     inkscape:window-width="1366"
     inkscape:window-height="705"
     id="namedview11"
     showgrid="false"
     fit-margin-top="0"
     fit-margin-left="0"
     fit-margin-right="0"
     fit-margin-bottom="0"
     inkscape:zoom="2.0021973"
     inkscape:cx="176.1918"
     inkscape:cy="-47.919057"
     inkscape:window-x="-4"
     inkscape:window-y="-4"
     inkscape:window-maximized="1"
     inkscape:current-layer="Layer_1" />
  <g
     id="g829"
     style="fill:url(#linearGradient837);fill-opacity:1"
     transform="matrix(0.09627679,0,0,0.09627679,1.498357,-4.1410901)">
    <path
       id="path2"
       d="M 467.55,256 509,200.733 c 3.409,-4.545 3.958,-10.626 1.417,-15.708 -2.541,-5.082 -7.735,-8.292 -13.417,-8.292 h -80.333 c -4.721,0 -9.167,2.223 -12,6 L 356.467,247 c -4,5.333 -4,12.667 0,18 l 48.2,64.267 c 2.833,3.777 7.279,6 12,6 H 497 c 5.682,0 10.875,-3.21 13.417,-8.292 2.541,-5.082 1.992,-11.163 -1.417,-15.708 z"
       inkscape:connector-curvature="0"
       style="fill:url(#linearGradient839);fill-opacity:1" />
    <path
       id="path4"
       d="m 285.625,241 h 34.716 C 312.978,185.462 265.318,142.467 207.8,142.467 145.197,142.467 94.267,193.398 94.267,256 c 0,62.602 50.93,113.533 113.533,113.533 57.518,0 105.178,-42.995 112.541,-98.533 h -34.716 c -7.033,36.557 -39.246,64.267 -77.825,64.267 -43.708,0 -79.267,-35.559 -79.267,-79.267 0,-43.708 35.559,-79.267 79.267,-79.267 38.579,0 70.792,27.71 77.825,64.267 z"
       inkscape:connector-curvature="0"
       style="fill:url(#linearGradient841);fill-opacity:1" />
    <path
       id="path6"
       d="m 380.668,347.268 -36.007,-48.01 C 326.267,357.326 271.874,399.533 207.8,399.533 128.655,399.533 64.267,335.144 64.267,256 c 0,-79.144 64.388,-143.533 143.533,-143.533 64.074,0 118.467,42.207 136.861,100.275 l 36.006,-48.008 c 2.61,-3.479 5.698,-6.522 9.133,-9.071 C 354.403,91.596 286.174,48.2 207.8,48.2 93.035,48.2 0,141.235 0,256 c 0,114.765 93.035,207.8 207.8,207.8 78.374,0 146.603,-43.395 181.999,-107.462 -3.434,-2.549 -6.522,-5.591 -9.131,-9.07 z"
       inkscape:connector-curvature="0"
       style="fill:url(#linearGradient843);fill-opacity:1" />
    <path
       id="path8"
       d="m 207.8,241 h 46.924 c -6.361,-19.852 -24.988,-34.267 -46.924,-34.267 -27.166,0 -49.267,22.101 -49.267,49.267 0,27.166 22.101,49.267 49.267,49.267 21.937,0 40.563,-14.415 46.924,-34.267 H 207.8 c -8.284,0 -15,-6.716 -15,-15 0,-8.284 6.716,-15 15,-15 z"
       inkscape:connector-curvature="0"
       style="fill:url(#linearGradient845);fill-opacity:1" />
  </g>
</svg>
