<svg width="4.431mm" height="6.6465mm" version="1.1" viewBox="0 0 4.431 6.6465" xmlns="http://www.w3.org/2000/svg"><g transform="translate(-82.433 -136.12)"><g transform="matrix(.013994 0 0 .011702 80.674 136.12)" fill="#bf9a2f"><g fill="#bf9a2f"><path d="m213.45 9e-3c-44.303 0-87.784 41.128-87.784 83.041v406.61c0 45.422 60.923 78.297 101.99 78.297h112.62c41.07 0 102.01-32.875 102.01-78.297v-406.62c-1e-3 -41.903-43.483-83.041-87.786-83.041h-141.06zm214.5 83.032v406.61c0 35.305-53.045 63.953-87.67 63.953h-112.62c-34.606 0-87.65-28.658-87.65-63.953v-406.61c0-34.023 37.055-68.697 73.44-68.697h141.07c36.357 9e-3 73.431 34.673 73.431 68.697z"/><path d="m161.27 100.44v320.06c0 1.979 1.607 3.586 3.586 3.586h234.68c1.979 0 3.586-1.607 3.586-3.586v-320.06c0-1.979-1.607-3.586-3.586-3.586h-234.68c-1.989 0-3.586 1.598-3.586 3.586zm16.734 3.586h208.4c5.279 0 9.562 4.284 9.562 9.562v293.77c0 5.277-4.283 9.562-9.562 9.562h-208.4c-5.278 0-9.562-4.285-9.562-9.562v-293.77c0-5.288 4.275-9.563 9.562-9.563z"/><path d="m240.65 474.44c-70.466 3.443-79.598 15.922-80.717 18.389-0.631 1.406-0.296 3.051 0.823 4.102 0.803 0.746 20.225 18.266 79.732 24.031 1.233 0.02 2.094-0.316 2.764-0.908 0.746-0.68 1.176-1.645 1.176-2.658v-39.369c0-0.975-0.412-1.922-1.119-2.592-0.718-0.678-1.54-1.081-2.659-0.995zm-12.881 37.791c-24.795-3.51-40.822-9.123-50.375-13.598-4.781-2.238-4.619-6.617 0.401-8.242 8.778-2.842 23.973-6.072 49.917-7.986 5.269-0.381 9.543 3.672 9.543 8.951v12.498c1e-3 5.28-4.255 9.114-9.486 8.377z"/><path d="m322.6 474.4c-1.156-0.104-1.941 0.316-2.648 0.986-0.707 0.678-1.1 1.615-1.1 2.592v39.502c0 1.014 0.43 1.979 1.176 2.658 0.65 0.604 1.512 0.928 2.41 0.928 59.277-5.748 74.463-23.725 75.084-24.49 0.584-0.707 0.861-1.615 0.805-2.523-0.374-4.821-8.454-16.392-75.727-19.653zm3.414 29.539v-12.621c0-5.279 4.275-9.344 9.543-8.951 24.299 1.816 38.098 4.818 45.871 7.4 5.012 1.664 5.299 6.656 0.633 9.123-8.35 4.408-22.836 9.945-46.561 13.406-5.23 0.756-9.486-3.078-9.486-8.357z"/><path d="m311.35 474c-8.76-0.307-18.418-0.469-29.157-0.469-11.15 0-21.2 0.182-30.371 0.506-1.922 0.068-3.452 1.654-3.452 3.586v40.564c0 1.885 1.454 3.443 3.347 3.576 9.725 0.68 19.985 1.033 30.485 1.033 10.108 0 19.948-0.324 29.28-0.965 1.885-0.125 3.348-1.693 3.348-3.578v-40.667c-0.01-1.932-1.541-3.52-3.48-3.586zm-13.254 41.338c-10.835 0.383-22.147 0.373-33-0.037-5.279-0.201-9.553-4.754-9.553-10.031v-14.611c0-5.279 4.284-9.697 9.562-9.793 5.393-0.105 11.083-0.152 17.088-0.152 5.575 0 10.872 0.047 15.893 0.133 5.277 0.086 9.562 4.504 9.562 9.783v14.697c0 5.278-4.275 9.819-9.552 10.011z"/><path d="m282.19 51.073c30.868 0 46.655-17.05 47.305-17.777 0.918-0.994 1.176-2.419 0.689-3.682-0.488-1.262-1.627-2.151-2.975-2.295-15.271-1.645-30.867-2.477-46.349-2.477-26.431 0-43.146 2.4-43.834 2.496-1.33 0.191-2.41 1.09-2.859 2.333-0.45 1.243-0.191 2.639 0.708 3.615 0.659 0.737 16.456 17.787 47.315 17.787zm26.077-18.178c5.27 0.344 5.996 3.175 1.186 5.345-6.789 3.06-15.902 5.661-27.253 5.661-11.446 0-20.617-2.639-27.425-5.738-4.81-2.189-4.073-5.049 1.195-5.383 6.751-0.421 15.186-0.765 24.901-0.765 9.122 0 18.282 0.297 27.396 0.88z"/></g></g></g></svg>
