<?xml version="1.0" encoding="UTF-8" standalone="no"?>
<svg
   xmlns:dc="http://purl.org/dc/elements/1.1/"
   xmlns:cc="http://creativecommons.org/ns#"
   xmlns:rdf="http://www.w3.org/1999/02/22-rdf-syntax-ns#"
   xmlns:svg="http://www.w3.org/2000/svg"
   xmlns="http://www.w3.org/2000/svg"
   height="41.900944"
   width="41.900944"
   id="svg3300"
   xml:space="preserve"
   viewBox="0 0 41.900943 41.900943"
   version="1.1"><metadata
   id="metadata3306"><rdf:RDF><cc:Work
       rdf:about=""><dc:format>image/svg+xml</dc:format><dc:type
         rdf:resource="http://purl.org/dc/dcmitype/StillImage" /><dc:title></dc:title></cc:Work></rdf:RDF></metadata><defs
   id="defs3304">
		
		
		
		
		
	</defs>















<g
   id="g3877"><path
     style="fill:#bf9a2f;stroke-width:0.75612998"
     id="path3272"
     d="M 10.051992,19.328195 9.5438729,18.820076 C 9.0985123,18.373959 8.85277,17.781909 8.85277,17.151297 c 0,-1.273323 1.0147265,-2.306953 2.276707,-2.351565 0.04386,-1.234004 1.034386,-2.224534 2.26839,-2.26839 0.04386,-1.234004 1.034386,-2.224534 2.26839,-2.26839 0.03251,-0.9247465 0.595075,-1.6037512 1.396573,-1.9606446 L 16.101032,7.450905 H 15.214848 L 7.34051,15.104453 v 3.910704 l 1.51226,1.51226 z" /><path
     style="fill:#bf9a2f;fill-opacity:0.94117647;stroke-width:0.75612998"
     id="path3274"
     d="M 11.12116,3.7625029 3.8728979,11.010765 6.58438,13.721491 13.832642,6.4732289 Z m -2.0476,3.6884021 1.51226,-1.51226 1.069168,1.0691678 -1.51226,1.51226 z" /><path
     style="fill:#bf9a2f;fill-opacity:1;stroke-width:0.75612998"
     id="path3276"
     d="M 13.38955,35.649261 16.101032,32.937779 8.85277,25.690273 6.1412879,28.401755 Z m -0.977676,-4.758326 1.51226,1.51226 -1.069168,1.069168 -1.51226,-1.51226 z" /><polygon
     style="fill:#bf9a2f"
     id="polygon3278"
     points="28.122,13.854 41.708,27.147 41.708,23.976 31.293,13.854 "
     transform="scale(0.75613)" /><path
     style="fill:#bf9a2f;fill-opacity:1;stroke-width:0.75612998"
     id="path3280"
     d="m 25.044538,32.182405 2.711482,2.710726 7.248262,-7.248262 -2.711482,-2.710726 z m 6.270586,-2.489936 -1.069924,-1.069924 1.51226,-1.51226 1.069168,1.069168 z" /><path
     style="fill:#bf9a2f;stroke-width:0.75612998"
     id="path3282"
     d="m 15.65794,27.645625 v -2.711482 l -4.53678,-4.53678 -1.51226,1.51226 v 2.398444 l 7.874338,8.095128 h 2.398444 L 15.87873,28.290604 C 15.737334,28.148452 15.65794,27.846 15.65794,27.645625 Z" /><path
     style="fill:#bf9a2f;stroke-width:0.75612998"
     id="path3284"
     d="M 22.997694,16.524465 21.92777,17.593633 16.348287,12.01415 c -0.1603,-0.159544 -0.372772,-0.248011 -0.599611,-0.248011 -0.467289,0 -0.847622,0.380333 -0.847622,0.847622 0,0.226839 0.08847,0.439311 0.248011,0.599611 l 5.579483,5.579483 -1.069168,1.069168 -5.579483,-5.579483 c -0.1603,-0.159544 -0.372772,-0.248011 -0.599611,-0.248011 -0.467289,0 -0.847622,0.380333 -0.847622,0.847622 0,0.226839 0.08847,0.439311 0.248011,0.599611 l 5.579483,5.579483 -1.069168,1.069168 -5.579483,-5.579483 c -0.1603,-0.159544 -0.372772,-0.248011 -0.599611,-0.248011 -0.467289,0 -0.847622,0.380333 -0.847622,0.847622 0,0.226839 0.08847,0.439311 0.248011,0.599611 l 8.604003,8.604003 -1.069168,1.069168 -0.977676,-0.97692 v 0.886184 l 4.093688,4.314478 h 2.398444 l 7.874338,-8.095884 V 22.664997 L 18.616677,9.7457596 c -0.1603,-0.1595435 -0.372772,-0.2480107 -0.599611,-0.2480107 -0.467289,0 -0.847622,0.3803334 -0.847622,0.8476221 0,0.226839 0.08847,0.439311 0.248011,0.599611 z" /><path
     style="fill:#bf9a2f;fill-opacity:0.94117647;stroke-width:0.75612998"
     id="path3286"
     d="m 35.003526,14.035285 -7.248262,-7.2482621 -2.711482,2.7114822 7.248262,7.2475059 z m -6.270586,-2.490692 -1.51226,-1.51226 1.069168,-1.069168 1.51226,1.51226 z" /><path
     id="path3288"
     d="m 33.04893,22.352715 c 0,-0.200374 -0.08015,-0.393188 -0.221546,-0.534584 l -0.221546,-0.221546 0.221546,-0.221546 C 32.96878,21.232887 33.04893,21.04083 33.04893,20.840455 V 18.128973 L 41.900944,9.276959 40.83102,8.207035 36.072694,12.965361 28.824432,5.7170989 33.582758,0.95877284 32.51359,0 23.661576,8.963165 h -2.711482 c -0.200375,0 -0.393188,-0.031001 -0.534584,0.1111511 L 20.193964,9.2406647 19.972418,8.991898 19.685845,8.6917144 16.947898,6.0573574 C 16.805745,5.9144489 16.613688,5.938645 16.413314,5.938645 H 15.214092 L 9.3865978,7.5613e-4 8.31743,1.0147265 10.051236,2.7205557 2.8029739,9.9552076 1.0691678,8.2145963 0,9.2799835 5.8274939,15.104453 v 4.223742 c 0,0.200375 0.079394,0.392432 0.2215461,0.534584 l 2.0468439,2.046844 v 2.398444 l -8.09512777,8.095128 1.06916787,1.069168 4.002196,-4.00144 7.248262,7.248262 -4.0021959,4.00144 1.0691679,1.179563 8.095884,-7.984733 h 2.711482 c 0.200374,0 0.392432,-0.07939 0.534584,-0.221546 l 0.534584,-0.534584 h 2.398444 l 8.852014,8.741619 1.069168,-1.124365 -4.758326,-4.786303 7.248262,-7.261873 4.75757,4.751521 1.069168,-1.072948 -8.851258,-8.855795 z M 27.75602,6.7870229 35.004282,14.035285 32.2928,16.746011 25.044538,9.4977489 Z m -4.094444,3.6884021 7.874338,7.653548 v 2.398444 L 21.263888,10.475425 Z m 7.875094,12.190328 v 0.886184 l -7.875094,8.095128 h -2.398444 l -4.093688,-4.315234 v -0.886184 l 0.977676,0.977676 1.069168,-1.069168 -8.604003,-8.603247 c -0.159544,-0.1603 -0.248011,-0.373528 -0.248011,-0.599611 0,-0.467289 0.380333,-0.847622 0.847622,-0.847622 0.226839,0 0.439311,0.08847 0.599611,0.248011 l 5.579483,5.579483 1.069168,-1.069924 -5.579483,-5.579483 c -0.159544,-0.159544 -0.248011,-0.372772 -0.248011,-0.598855 0,-0.467289 0.380333,-0.847622 0.847622,-0.847622 0.226839,0 0.439311,0.08847 0.599611,0.248011 l 5.579483,5.579483 1.069168,-1.069924 -5.579483,-5.579483 c -0.159544,-0.159544 -0.248011,-0.372772 -0.248011,-0.598855 0,-0.467289 0.380333,-0.847622 0.847622,-0.847622 0.226839,0 0.439311,0.08847 0.599611,0.248011 l 5.579483,5.579483 1.069168,-1.069924 -5.579483,-5.579483 c -0.159544,-0.159544 -0.248011,-0.372772 -0.248011,-0.598855 0,-0.4672885 0.380333,-0.8476219 0.847622,-0.8476219 0.226839,0 0.439311,0.088467 0.599611,0.2480106 L 18.90325,10.033089 Z M 11.12116,3.7625029 13.832642,6.4739851 6.58438,13.721491 3.8728979,11.010009 Z M 7.34051,15.104453 15.214848,7.450905 h 0.886184 l 0.961798,0.8514024 c -0.801498,0.3568934 -1.364059,1.0910956 -1.396573,2.0158426 -1.234004,0.04386 -2.224534,1.007165 -2.26839,2.240413 -1.234004,0.04386 -2.224534,1.020776 -2.26839,2.25478 -1.2619805,0.04461 -2.276707,1.071436 -2.276707,2.344759 0,0.630612 0.2457423,1.219638 0.6911029,1.664998 L 10.051992,19.329707 8.85277,20.528173 7.34051,19.015157 Z M 13.38955,35.649261 6.1412879,28.400999 8.85277,25.690273 16.101032,32.938535 Z M 17.483238,32.403195 9.6089,24.307311 v -2.398444 l 1.51226,-1.51226 4.53678,4.53678 v 2.711482 c 0,0.200374 0.07939,0.503583 0.221546,0.644979 l 4.002196,4.113347 z m 10.272782,2.489936 -2.711482,-2.711482 7.248262,-7.247506 2.711482,2.711482 z"
     style="stroke-width:0.75612998" /><rect
     id="rect3290"
     height="1.5122455"
     width="2.1383152"
     y="41.626839"
     x="1.1472688"
     transform="rotate(-45)"
     style="stroke-width:0.75612277" /><rect
     id="rect3292"
     height="2.1383152"
     width="1.5122455"
     y="30.619221"
     x="-14.579856"
     transform="rotate(-45)"
     style="stroke-width:0.75612277" /><rect
     id="rect3294"
     height="1.5122455"
     width="2.1383152"
     y="11.684978"
     x="1.1469417"
     transform="rotate(-45)"
     style="stroke-width:0.75612277" /><rect
     id="rect3296"
     height="2.1383152"
     width="1.5122455"
     y="26.342607"
     x="12.153323"
     transform="rotate(-45)"
     style="stroke-width:0.75612277" /></g>
</svg>