<?xml version="1.0" encoding="UTF-8" standalone="no"?>
<svg
   xmlns:dc="http://purl.org/dc/elements/1.1/"
   xmlns:cc="http://creativecommons.org/ns#"
   xmlns:rdf="http://www.w3.org/1999/02/22-rdf-syntax-ns#"
   xmlns:svg="http://www.w3.org/2000/svg"
   xmlns="http://www.w3.org/2000/svg"
   xmlns:sodipodi="http://sodipodi.sourceforge.net/DTD/sodipodi-0.dtd"
   xmlns:inkscape="http://www.inkscape.org/namespaces/inkscape"
   height="25.104332"
   width="25.207296"
   id="svg4"
   version="1.1"
   viewBox="0 0 25.207296 25.104332"
   style="overflow:hidden;fill:currentColor"
   class="icon"
   sodipodi:docname="product.svg"
   inkscape:version="0.92.4 (5da689c313, 2019-01-14)">
  <sodipodi:namedview
     pagecolor="#ffffff"
     bordercolor="#666666"
     borderopacity="1"
     objecttolerance="10"
     gridtolerance="10"
     guidetolerance="10"
     inkscape:pageopacity="0"
     inkscape:pageshadow="2"
     inkscape:window-width="1366"
     inkscape:window-height="705"
     id="namedview6"
     showgrid="false"
     fit-margin-top="0"
     fit-margin-left="0"
     fit-margin-right="0"
     fit-margin-bottom="0"
     inkscape:zoom="12.800451"
     inkscape:cx="20.103384"
     inkscape:cy="5.0830647"
     inkscape:window-x="-4"
     inkscape:window-y="-4"
     inkscape:window-maximized="1"
     inkscape:current-layer="svg4" />
  <metadata
     id="metadata10">
    <rdf:RDF>
      <cc:Work
         rdf:about="">
        <dc:format>image/svg+xml</dc:format>
        <dc:type
           rdf:resource="http://purl.org/dc/dcmitype/StillImage" />
        <dc:title></dc:title>
      </cc:Work>
    </rdf:RDF>
  </metadata>
  <defs
     id="defs8" />
  <path
     style="fill:#bf9a2f;fill-opacity:1;stroke-width:0.02461301"
     id="path2"
     d="M 7.441187,12.376922 3.8244549,10.209396 c -0.2898414,-0.176421 -0.6678997,-0.08191 -0.8380203,0.207932 -0.1764276,0.289847 -0.081916,0.6679 0.2079252,0.844327 l 3.6167384,2.167519 c 0.2898413,0.176428 0.6678997,0.08192 0.8380203,-0.214232 0.1764276,-0.290468 0.081916,-0.668527 -0.2079315,-0.83802 z m 3.856174,12.702677 c 0.144917,0.04414 0.308743,0.03153 0.459968,-0.05674 -0.138623,0.07562 -0.302449,0.100818 -0.459968,0.05674 z M 7.441187,12.376922 3.8244549,10.209396 c -0.2898414,-0.176421 -0.6678997,-0.08191 -0.8380203,0.207932 -0.1764276,0.289847 -0.081916,0.6679 0.2079252,0.844327 l 3.6167384,2.167519 c 0.2898413,0.176428 0.6678997,0.08192 0.8380203,-0.214232 0.1764276,-0.290468 0.081916,-0.668527 -0.2079315,-0.83802 z m 0,0 -3.6167321,-2.167526 c -0.2898414,-0.176421 -0.6678997,-0.08191 -0.8380203,0.207932 -0.1764276,0.289847 -0.081916,0.6679 0.2079252,0.844327 l 3.6167384,2.167519 c 0.2898413,0.176428 0.6678997,0.08192 0.8380203,-0.214232 0.1764276,-0.290468 0.081916,-0.668527 -0.2079315,-0.83802 z m 0,0 -3.6167321,-2.167526 c -0.2898414,-0.176421 -0.6678997,-0.08191 -0.8380203,0.207932 -0.1764276,0.289847 -0.081916,0.6679 0.2079252,0.844327 l 3.6167384,2.167519 c 0.2898413,0.176428 0.6678997,0.08192 0.8380203,-0.214232 0.1764276,-0.290468 0.081916,-0.668527 -0.2079315,-0.83802 z m 0,0 -3.6167321,-2.167526 c -0.2898414,-0.176421 -0.6678997,-0.08191 -0.8380203,0.207932 -0.1764276,0.289847 -0.081916,0.6679 0.2079252,0.844327 l 3.6167384,2.167519 c 0.2898413,0.176428 0.6678997,0.08192 0.8380203,-0.214232 0.1764276,-0.290468 0.081916,-0.668527 -0.2079315,-0.83802 z m 0,0 -3.6167321,-2.167526 c -0.2898414,-0.176421 -0.6678997,-0.08191 -0.8380203,0.207932 -0.1764276,0.289847 -0.081916,0.6679 0.2079252,0.844327 l 3.6167384,2.167519 c 0.2898413,0.176428 0.6678997,0.08192 0.8380203,-0.214232 0.1764276,-0.290468 0.081916,-0.668527 -0.2079315,-0.83802 z m 4.316142,12.645337 c -0.151225,0.08821 -0.315051,0.100812 -0.459968,0.05668 0.157519,0.04476 0.321345,0.01956 0.459968,-0.05668 z m 0.318825,-1.585943 V 12.548302 l 9.590019,-5.4440033 0.981684,-0.5948046 c 0.19659,-0.1279086 0.233761,-0.2904746 0.259597,-0.4070418 0.0252,-0.2394353 -0.08822,-0.4914721 -0.333953,-0.6174937 L 11.735906,0.06615801 c -0.176427,-0.08821068 -0.378058,-0.08821068 -0.554486,0 L 0.34381927,5.4849586 C -0.05943585,5.7496032 0.00357178,6.3355868 0.00357178,6.3985944 V 17.960802 c 0,0.214232 0.11342001,0.415863 0.29614215,0.529283 0,0 10.60446707,6.408046 10.78719507,6.489956 0.371751,0.182728 0.604886,0.132322 0.781313,0.04414 l 3.528522,-2.041497 c 0.302443,-0.176428 0.403261,-0.560787 0.226834,-0.86323 -0.170127,-0.302443 -0.560781,-0.403261 -0.856929,-0.233134 l -2.438458,1.417709 v -0.0063 l -0.252037,0.138616 M 10.841173,12.548365 V 23.404869 L 1.2322519,17.614317 V 7.0917599 Z M 11.45866,11.47721 1.9253547,6.0710111 11.45866,1.3075087 20.991972,6.0710111 Z m 8.550368,11.054981 4.971434,-2.986637 c 0.138617,-0.08822 0.226834,-0.239435 0.226834,-0.409562 v -5.475508 c 0,-0.192809 -0.144924,-0.327652 -0.302449,-0.403261 l -0.126016,-0.06301 c -0.0126,-0.0063 -0.03154,-0.0063 -0.04414,-0.0063 h 0.0378 l -4.832817,-2.413255 c -0.132316,-0.06301 -0.289841,-0.06301 -0.422157,0 L 14.691,13.187913 c -0.352849,0.13547 -0.441066,0.437913 -0.441066,0.608039 v 5.340038 c 0,0.170127 0.08822,0.321352 0.233135,0.409563 0,0 4.926701,2.955766 4.951905,2.962067 0,6.2e-4 0.293621,0.218012 0.574015,0.02458 z m -0.749816,-1.209778 -4.064099,-2.45106 v -4.404352 l 4.064099,2.299841 z m 0.47257,-5.368394 -3.96328,-2.249429 3.96328,-1.978496 3.956986,1.978496 z m 4.530374,2.917334 -4.057804,2.444759 v -4.54927 l 4.057804,-2.299841 z"
     inkscape:connector-curvature="0" />
</svg>
