<?xml version="1.0" encoding="UTF-8" standalone="no"?>
<svg
   xmlns:dc="http://purl.org/dc/elements/1.1/"
   xmlns:cc="http://creativecommons.org/ns#"
   xmlns:rdf="http://www.w3.org/1999/02/22-rdf-syntax-ns#"
   xmlns:svg="http://www.w3.org/2000/svg"
   xmlns="http://www.w3.org/2000/svg"
   style="clip-rule:evenodd;fill-rule:evenodd;image-rendering:optimizeQuality;shape-rendering:geometricPrecision;text-rendering:geometricPrecision"
   height="40.7957"
   width="37.650101"
   id="svg4"
   version="1.1"
   viewBox="0 0 37.650101 40.7957">
  <metadata
     id="metadata10">
    <rdf:RDF>
      <cc:Work
         rdf:about="">
        <dc:format>image/svg+xml</dc:format>
        <dc:type
           rdf:resource="http://purl.org/dc/dcmitype/StillImage" />
        <dc:title></dc:title>
      </cc:Work>
    </rdf:RDF>
  </metadata>
  <defs
     id="defs8" />
  <path
     style="fill:#bf9a2f;fill-opacity:1;fill-rule:nonzero;stroke-width:0.01223994"
     id="path2"
     d="m 12.9621,26.475 c -0.4529,0 -0.8323,-0.4406 -0.8323,-0.9792 0,-0.5386 0.3672,-0.9792 0.8323,-0.9792 h 4.5288 c 0.4529,0 0.8323,0.4406 0.8323,0.9792 0,0.5386 -0.3672,0.9792 -0.8323,0.9792 z m 15.4835,-4.0882 c 2.5459,0 4.847,1.0282 6.5117,2.6928 1.6646,1.6647 2.6928,3.9658 2.6928,6.5117 0,2.5459 -1.0282,4.847 -2.6928,6.5116 -1.6647,1.6647 -3.9658,2.6928 -6.5117,2.6928 -2.5459,0 -4.847,-1.0281 -6.5116,-2.6928 -1.6646,-1.6646 -2.6928,-3.9657 -2.6928,-6.5116 0,-2.5459 1.0282,-4.847 2.6928,-6.5117 1.6646,-1.6646 3.9657,-2.6928 6.5116,-2.6928 z m -0.6977,4.896 c 0,-0.4528 0.3672,-0.82 0.8201,-0.82 0.4529,0 0.8201,0.3672 0.8201,0.82 v 4.2963 l 3.2069,1.8971 c 0.3916,0.2326 0.5141,0.7344 0.2937,1.1261 -0.2325,0.3917 -0.7344,0.5141 -1.126,0.2938 l -3.5619,-2.1175 c -0.2693,-0.1347 -0.4529,-0.4162 -0.4529,-0.7344 z m 6.0466,-1.0404 c -1.3709,-1.3708 -3.2559,-2.2154 -5.3489,-2.2154 -2.093,0 -3.9779,0.8446 -5.3488,2.2154 -1.3709,1.3709 -2.2154,3.2559 -2.2154,5.3489 0,2.093 0.8445,3.978 2.2154,5.3488 1.3709,1.3709 3.2558,2.2155 5.3488,2.2155 2.093,0 3.978,-0.8446 5.3489,-2.2155 1.3709,-1.3708 2.2154,-3.2558 2.2154,-5.3488 0,-2.093 -0.8445,-3.978 -2.2154,-5.3489 z M 14.6512,36.4995 c 0.5508,0 0.9914,0.4406 0.9914,0.9915 0,0.5507 -0.4406,0.9914 -0.9914,0.9914 H 2.3011 c -0.6365,0 -1.2118,-0.2571 -1.6279,-0.6732 C 0.257,37.393 0,36.8177 0,36.1813 V 2.3011 C 0,1.6646 0.257,1.0893 0.6732,0.6732 1.0893,0.257 1.6646,0 2.3011,0 h 28.1886 c 0.6365,0 1.2117,0.257 1.6279,0.6732 0.4162,0.4161 0.6732,0.9914 0.6732,1.6279 V 18.005 c 0,0.5508 -0.4406,0.9914 -0.9914,0.9914 -0.5508,0 -0.9915,-0.4406 -0.9915,-0.9914 V 2.3011 c 0,-0.086 -0.037,-0.1713 -0.098,-0.2326 -0.061,-0.061 -0.1346,-0.098 -0.2325,-0.098 H 2.2888 c -0.086,0 -0.1714,0.037 -0.2326,0.098 -0.061,0.061 -0.098,0.1347 -0.098,0.2326 v 33.8802 c 0,0.086 0.037,0.1713 0.098,0.2325 0.061,0.061 0.1346,0.098 0.2326,0.098 H 14.6389 Z M 6.3525,24.0637 H 8.825 c 0.1836,0 0.3182,0.1469 0.3182,0.3183 v 2.4724 c 0,0.1836 -0.1469,0.3183 -0.3182,0.3183 H 6.3525 c -0.1836,0 -0.3182,-0.1469 -0.3182,-0.3183 V 24.382 c 0,-0.1836 0.1469,-0.3183 0.3182,-0.3183 z m 0,-16.9278 H 8.825 c 0.1836,0 0.3182,0.1469 0.3182,0.3182 v 2.4725 c 0,0.1836 -0.1469,0.3182 -0.3182,0.3182 H 6.3525 c -0.1836,0 -0.3182,-0.1468 -0.3182,-0.3182 V 7.4541 c 0,-0.1836 0.1469,-0.3182 0.3182,-0.3182 z m 6.6096,2.399 c -0.4529,0 -0.8323,-0.4406 -0.8323,-0.9792 0,-0.5386 0.3672,-0.9792 0.8323,-0.9792 h 11.7748 c 0.4529,0 0.8323,0.4406 0.8323,0.9792 0,0.5386 -0.3672,0.9792 -0.8323,0.9792 z M 7.3684,18.6414 C 7.1604,18.8128 6.8544,18.7638 6.634,18.5554 6.61,18.5434 6.585,18.5184 6.561,18.4944 L 5.5206,17.4296 C 5.3003,17.2093 5.3493,16.8298 5.6308,16.585 5.9123,16.3402 6.3162,16.328 6.5243,16.561 l 0.563,0.5876 1.8115,-1.4566 c 0.2448,-0.1958 0.612,-0.1101 0.8201,0.1958 0.2081,0.306 0.1836,0.6977 -0.061,0.8936 l -2.3256,1.8727 z m 5.0429,-0.82 c -0.4529,0 -0.8323,-0.4407 -0.8323,-0.9792 0,-0.5386 0.3672,-0.9792 0.8323,-0.9792 h 11.7748 c 0.4529,0 0.8324,0.4406 0.8324,0.9792 0,0.5385 -0.3672,0.9792 -0.8324,0.9792 z" />
</svg>
