<?xml version="1.0" encoding="UTF-8" standalone="no"?>
<!-- Created with Inkscape (http://www.inkscape.org/) -->

<svg
   xmlns:dc="http://purl.org/dc/elements/1.1/"
   xmlns:cc="http://creativecommons.org/ns#"
   xmlns:rdf="http://www.w3.org/1999/02/22-rdf-syntax-ns#"
   xmlns:svg="http://www.w3.org/2000/svg"
   xmlns="http://www.w3.org/2000/svg"
   xmlns:sodipodi="http://sodipodi.sourceforge.net/DTD/sodipodi-0.dtd"
   xmlns:inkscape="http://www.inkscape.org/namespaces/inkscape"
   width="11.939028mm"
   height="10.803508mm"
   viewBox="0 0 11.939028 10.803508"
   version="1.1"
   id="svg4375"
   inkscape:version="0.92.4 (5da689c313, 2019-01-14)"
   sodipodi:docname="sample.svg">
  <defs
     id="defs4369">
    <clipPath
       id="animationMask_v240LEGmDK">
      <rect
         id="rect3082"
         y="0"
         x="0"
         height="100"
         width="100" />
    </clipPath>
  </defs>
  <sodipodi:namedview
     id="base"
     pagecolor="#ffffff"
     bordercolor="#666666"
     borderopacity="1.0"
     inkscape:pageopacity="0.0"
     inkscape:pageshadow="2"
     inkscape:zoom="1.5203125"
     inkscape:cx="-1.5566264"
     inkscape:cy="-18.802812"
     inkscape:document-units="mm"
     inkscape:current-layer="layer1"
     showgrid="false"
     fit-margin-top="0"
     fit-margin-left="0"
     fit-margin-right="0"
     fit-margin-bottom="0"
     inkscape:window-width="1366"
     inkscape:window-height="705"
     inkscape:window-x="-4"
     inkscape:window-y="-4"
     inkscape:window-maximized="1" />
  <metadata
     id="metadata4372">
    <rdf:RDF>
      <cc:Work
         rdf:about="">
        <dc:format>image/svg+xml</dc:format>
        <dc:type
           rdf:resource="http://purl.org/dc/dcmitype/StillImage" />
        <dc:title></dc:title>
      </cc:Work>
    </rdf:RDF>
  </metadata>
  <g
     inkscape:label="Layer 1"
     inkscape:groupmode="layer"
     id="layer1"
     transform="translate(-45.33392,-105.20976)">
    <g
       id="g3146"
       clip-path="url(#animationMask_v240LEGmDK)"
       transform="matrix(0.12436487,0,0,0.12606193,45.08519,104.30842)"
       style="opacity:1;fill:#bf9a2f;fill-opacity:1"
       inkscape:export-filename="C:\Users\root_x90\Desktop\sample.png"
       inkscape:export-xdpi="90"
       inkscape:export-ydpi="90">
      <g
         style="opacity:1;fill:#bf9a2f;fill-opacity:1"
         id="icon-sample">
        <g
           id="g3107"
           transform="translate(0,10)"
           style="opacity:1;fill:#bf9a2f;fill-opacity:1">
          <g
             id="g3089"
             transform="translate(91.675,69.275)"
             style="opacity:1;fill:#bf9a2f;fill-opacity:1">
            <path
               id="path3087"
               d="m 0,0 m 6.325,-2.426 c 0,0 -0.049,0 -0.049,0 0,0 0,0.151 0,0.151 0,0 0,4.701 0,4.701 0,0 0.049,0 0.049,0 0,0 0,-4.852 0,-4.852 z M 0,0 m -6.325,0.575 c 0,0 1.4,-0.299 1.4,-0.299 0,0 -1.4,0.299 -1.4,0.299 z M 0,0 m 4.526,-1.825 c 0,0 -0.05,0.05 -0.05,0.05 0,0 0.149,0 0.149,0 0,0 -0.099,-0.05 -0.099,-0.05 z M 0,0 m 3.675,-1.575 c 0.048,-0.03 0.081,-0.063 0.101,-0.101 0,0 -7.901,1.751 -7.901,1.751 0.029,0.024 0.045,0.04 0.05,0.051 0,0 7.75,-1.701 7.75,-1.701 z"
               inkscape:connector-curvature="0"
               style="fill:#bf9a2f;fill-opacity:1" />
          </g>
          <g
             id="g3093"
             transform="translate(49.975,69.375)"
             style="opacity:1;fill:#bf9a2f;fill-opacity:1">
            <path
               id="path3091"
               d="m 0,0 m 47.975,-2.525 c -0.049,-0.275 -0.231,-0.441 -0.55,-0.5 0,0 -47.25,-10.45 -47.25,-10.45 0,0 -0.3,0 -0.3,0 0,0 -47.35,10.401 -47.35,10.401 -0.333,0.066 -0.5,0.283 -0.5,0.65 0,0 0,4.8 0,4.8 0,0.366 0.167,0.583 0.5,0.65 0,0 47.3,10.449 47.3,10.449 0,0 0.3,0 0.3,0 0,0 47.3,-10.399 47.3,-10.399 0.367,-0.134 0.55,-0.367 0.55,-0.7 0,0 0,-0.05 0,-0.05 0,0 0,-4.7 0,-4.7 0,0 0,-0.151 0,-0.151 z M 0,0 m 45.475,-1.775 c -0.019,0.038 -0.053,0.071 -0.1,0.101 -0.532,0.549 -1.598,1.049 -3.2,1.5 -1.986,0.596 -3.503,0.662 -4.55,0.2 -0.005,-0.011 -0.022,-0.027 -0.05,-0.051 0,0 7.9,-1.75 7.9,-1.75 z M 0,0 m 46.175,-1.874 c 0,0 0.05,-0.05 0.05,-0.05 0,0 0.1,0.05 0.1,0.05 0,0 0.25,0.05 0.25,0.05 0,0 0,3.65 0,3.65 0,0 -11.05,2.45 -11.05,2.45 -2.668,-0.428 -4.701,-1.261 -6.1,-2.5 0,0 5.95,-1.301 5.95,-1.301 0,0 1.4,-0.299 1.4,-0.299 0.679,0.433 1.545,0.65 2.6,0.65 0.933,0 1.917,-0.15 2.95,-0.45 2.12,-0.623 3.403,-1.373 3.85,-2.25 z M 0,0 m 0.025,-12.074 c 0,0 44.95,9.849 44.95,9.849 0,0 -44.2,9.801 -44.2,9.801 0,0 -0.75,0.2 -0.75,0.2 0,0 -0.05,0 -0.05,0 0,0 -1.95,-0.45 -1.95,-0.45 0,0 -14.3,-3.25 -14.3,-3.25 -1.603,-0.338 -3.203,-0.688 -4.8,-1.05 -2.137,-0.44 -4.27,-0.89 -6.4,-1.35 0,0 -17.65,-3.901 -17.65,-3.901 0,0 45.15,-9.849 45.15,-9.849 z M 0,0 m 20.375,3.776 c 0,0 0,0.05 0,0.05 0.813,0.06 2.512,0.943 5.1,2.649 0,0 -3.9,0.851 -3.9,0.851 -2.039,-1.42 -3.606,-2.336 -4.7,-2.75 0,0 3.5,-0.8 3.5,-0.8 z M 0,0 m 21.425,3.576 c 0,0 7.3,-1.65 7.3,-1.65 1.309,1.249 3.125,2.131 5.45,2.65 0,0 -7.95,1.75 -7.95,1.75 -2.118,-1.417 -3.718,-2.333 -4.8,-2.75 z M 0,0 m 15.775,4.826 c 0,0 0,0.05 0,0.05 0.809,0.059 2.492,0.943 5.05,2.65 0,0 -6.45,1.4 -6.45,1.4 -1.329,-0.124 -2.295,-0.308 -2.9,-0.55 -1.001,-0.394 -1.817,-1.077 -2.45,-2.05 0,0 6.75,-1.5 6.75,-1.5 z M 0,0 m 11.325,8.876 c 0.383,0.156 0.866,0.29 1.45,0.4 0,0 -7.65,1.699 -7.65,1.699 -0.288,-0.221 -0.489,-0.455 -0.6,-0.699 -0.45,-0.836 -0.4,-1.836 0.15,-3 0,0 3.8,-0.85 3.8,-0.85 0.708,1.182 1.657,1.999 2.85,2.45 z M 0,0 m 0.025,8.326 c 0,0 0.5,-0.101 0.5,-0.101 0,0 3.45,-0.799 3.45,-0.799 -0.435,1.218 -0.418,2.252 0.05,3.1 0.112,0.211 0.246,0.411 0.4,0.6 0,0 -3.9,0.849 -3.9,0.849 0,0 -0.55,0.151 -0.55,0.151 0,0 -5.95,-1.35 -5.95,-1.35 0,0 -40.65,-8.95 -40.65,-8.95 0,0 0,-3.7 0,-3.7 0,0 0.3,-0.101 0.3,-0.101 0,0 46.25,10.301 46.25,10.301 0,0 0.1,0 0.1,0 z"
               inkscape:connector-curvature="0"
               style="fill:#bf9a2f;fill-opacity:1" />
          </g>
          <g
             id="g3097"
             transform="translate(73.525,74.425)"
             style="opacity:1;fill:#bf9a2f;fill-opacity:1">
            <path
               id="path3095"
               d="m 0,0 m -19.124,6.076 c -0.154,-0.189 -0.289,-0.389 -0.401,-0.6 -0.468,-0.848 -0.485,-1.882 -0.049,-3.1 0,0 -3.451,0.798 -3.451,0.798 0,0 0,3.75 0,3.75 0,0 3.901,-0.848 3.901,-0.848 z M 0,0 m -10.775,4.226 c -0.584,-0.11 -1.067,-0.244 -1.45,-0.4 -1.192,-0.451 -2.141,-1.268 -2.849,-2.45 0,0 -3.8,0.85 -3.8,0.85 -0.551,1.164 -0.602,2.164 -0.151,3 0.111,0.244 0.312,0.477 0.6,0.698 0,0 7.65,-1.698 7.65,-1.698 z M 0,0 m -7.775,-0.174 c 0,0 0,-0.051 0,-0.051 0,0 -6.75,1.5 -6.75,1.5 0.632,0.973 1.45,1.657 2.451,2.051 0.604,0.242 1.57,0.426 2.898,0.55 0,0 6.45,-1.4 6.45,-1.4 -2.557,-1.707 -4.241,-2.591 -5.049,-2.65 z M 0,0 m 5.176,-3.124 c 0,0 -7.3,1.649 -7.3,1.649 1.082,0.417 2.682,1.333 4.8,2.75 0,0 7.95,-1.75 7.95,-1.75 -2.325,-0.519 -4.142,-1.4 -5.45,-2.649 z M 0,0 m -3.176,-1.225 c 0,0 0,-0.05 0,-0.05 0,0 -3.5,0.8 -3.5,0.8 1.095,0.414 2.661,1.33 4.7,2.75 0,0 3.902,-0.851 3.902,-0.851 -2.588,-1.706 -4.288,-2.589 -5.102,-2.649 z M 0,0 m 22.775,-6.924 c 0,0 -0.149,0 -0.149,0 -0.447,0.877 -1.73,1.627 -3.851,2.25 -1.033,0.3 -2.016,0.449 -2.95,0.449 -1.054,0 -1.921,-0.216 -2.599,-0.649 0,0 -1.401,0.298 -1.401,0.298 0,0 -5.949,1.301 -5.949,1.301 1.398,1.239 3.432,2.072 6.1,2.5 0,0 11.049,-2.45 11.049,-2.45 0,0 0,-3.649 0,-3.649 0,0 -0.25,-0.05 -0.25,-0.05 z M 0,0 m 18.626,-5.225 c 1.602,-0.451 2.668,-0.951 3.199,-1.5 0,0 -7.75,1.7 -7.75,1.7 1.048,0.462 2.565,0.396 4.551,-0.2 z"
               inkscape:connector-curvature="0"
               style="fill:#bf9a2f;fill-opacity:1" />
          </g>
          <g
             id="g3101"
             transform="translate(49.15,69.35)"
             style="opacity:1;fill:#bf9a2f;fill-opacity:1">
            <path
               id="path3099"
               d="m 0,0 m 0.85,8.4 c 0,0 0,-0.049 0,-0.049 0,0 -0.1,0 -0.1,0 0,0 -46.25,-10.301 -46.25,-10.301 0,0 -0.3,0.1 -0.3,0.1 0,0 0,3.701 0,3.701 0,0 40.65,8.95 40.65,8.95 0,0 6,1.25 6,1.25 0,0 -0.1,-3.7 -0.1,-3.7 0,0 0.1,0.049 0.1,0.049 z M 0,0 m 0.85,7.801 c 0,0 0,-0.052 0,-0.052 0,0 -2,-0.398 -2,-0.398 0,0 1.95,0.45 1.95,0.45 0,0 0.05,0 0.05,0 z M 0,0 m 45.8,-2.2 c 0,0 -44.95,-9.851 -44.95,-9.851 0,0 -45.15,9.851 -45.15,9.851 0,0 17.65,3.9 17.65,3.9 2.13,0.46 4.263,0.911 6.4,1.351 1.596,0.361 3.196,0.712 4.8,1.05 0,0 16.5,3.398 16.5,3.398 0,0 0.05,0 0.05,0 0.065,0 0.115,0.018 0.15,0.052 0,0 0.35,0.05 0.35,0.05 0,0 44.2,-9.801 44.2,-9.801 z"
               inkscape:connector-curvature="0"
               style="fill:#bf9a2f;fill-opacity:1" />
          </g>
          <g
             id="g3105"
             transform="translate(42.225,77.475)"
             style="opacity:1;fill:#bf9a2f;fill-opacity:1">
            <path
               id="path3103"
               d="m 0,0 m 8.275,0.124 c 0,0 -0.5,0.101 -0.5,0.101 0,0 0,0.05 0,0.05 0,0 0,3.65 0,3.65 0,0 -6,-1.25 -6,-1.25 0,0 5.95,1.35 5.95,1.35 0,0 0.55,-0.151 0.55,-0.151 0,0 0,-3.75 0,-3.75 z M 0,0 m 8.525,-0.525 c 0,0 -0.35,-0.05 -0.35,-0.05 -0.035,-0.034 -0.085,-0.051 -0.15,-0.051 0,0 -0.05,0 -0.05,0 0,0 -16.5,-3.399 -16.5,-3.399 0,0 14.3,3.25 14.3,3.25 0,0 2,0.399 2,0.399 0,0 0,0.051 0,0.051 0,0 0.75,-0.2 0.75,-0.2 z"
               inkscape:connector-curvature="0"
               style="fill:#bf9a2f;fill-opacity:1" />
          </g>
        </g>
        <g
           id="g3125"
           style="opacity:1;fill:#bf9a2f;fill-opacity:1">
          <g
             id="g3111"
             transform="translate(49.975,50.225)"
             style="opacity:1;fill:#bf9a2f;fill-opacity:1">
            <path
               id="path3109"
               d="m 0,0 m 47.975,-2.375 c 0,-0.367 -0.184,-0.584 -0.55,-0.65 0,0 -47.25,-10.45 -47.25,-10.45 0,0 -0.3,0 -0.3,0 0,0 -47.35,10.4 -47.35,10.4 -0.334,0.067 -0.5,0.283 -0.5,0.65 0,0 0,4.799 0,4.799 0,0.368 0.166,0.584 0.5,0.651 0,0 47.3,10.45 47.3,10.45 0,0 0.299,0 0.299,0 0,0 47.301,-10.45 47.301,-10.45 0.366,-0.067 0.55,-0.283 0.55,-0.651 0,0 0,-4.749 0,-4.749 z M 0,0 m 0.025,-12.125 c 0,0 44.3,9.8 44.3,9.8 0,0 -44.35,9.85 -44.35,9.85 0.2,0 0.3,0.099 0.3,0.3 0,0 0,0.2 0,0.2 0,0 1.2,-0.25 1.2,-0.25 -0.012,0.013 -0.028,0.029 -0.05,0.05 -0.263,1.51 -0.08,2.76 0.55,3.75 0,0 0.05,0.1 0.05,0.1 0,0 -1.75,0.35 -1.75,0.35 0,0 -0.3,0.099 -0.3,0.099 0,0 -0.25,-0.049 -0.25,-0.049 0,0 -46.35,-10.25 -46.35,-10.25 0,0 0,-3.7 0,-3.7 0,0 0.75,-0.2 0.75,-0.2 0,0 45.6,10.1 45.6,10.1 0,0 0,-0.2 0,-0.2 0,-0.201 0.083,-0.3 0.25,-0.3 0,0 -44.5,-9.9 -44.5,-9.9 0,0 44.55,-9.75 44.55,-9.75 z M 0,0 m 17.675,4.175 c 0.062,0.004 0.128,0.004 0.199,0 0.917,0.194 2.634,1.144 5.151,2.85 0,0 -3.7,0.8 -3.7,0.8 C 18.389,7.459 17.355,7.143 16.225,6.874 15.124,6.575 14.391,6.325 14.025,6.124 13.497,5.903 13.147,5.62 12.975,5.275 12.964,5.26 12.948,5.243 12.925,5.225 c 0,0 4.75,-1.05 4.75,-1.05 z M 0,0 m 12.374,5.325 c 0.029,0.029 0.045,0.046 0.051,0.049 0.204,0.501 0.621,0.902 1.25,1.201 0.433,0.2 1.234,0.466 2.4,0.799 0.907,0.265 1.657,0.498 2.25,0.701 0,0 -9.6,2.1 -9.6,2.1 C 7.451,9.726 6.618,9.11 6.225,8.325 6.058,7.958 5.992,7.575 6.025,7.175 c 0.03,-0.153 0.047,-0.286 0.05,-0.4 0,0 0,-0.05 0,-0.05 0,0 6.299,-1.4 6.299,-1.4 z M 0,0 m 2.075,7.675 c 0.004,-0.011 0.004,-0.027 0,-0.051 0,0 3.4,-0.75 3.4,-0.75 0,0 0,0.051 0,0.051 0.006,0.065 0.006,0.132 0,0.199 -0.033,0.5 0.066,0.984 0.3,1.451 0.362,0.75 1.029,1.349 2,1.799 0,0 -5.151,1.151 -5.151,1.151 0,0 -0.199,-0.25 -0.199,-0.25 C 2.124,10.808 1.958,10.192 1.925,9.425 1.896,8.811 1.946,8.227 2.075,7.675 Z M 0,0 m 45.725,-2.025 c 0,0 0.85,0.2 0.85,0.2 0,0 0,1.25 0,1.25 -4.338,2.484 -8.555,2.884 -12.65,1.199 0,0 -0.95,0.201 -0.95,0.201 1.898,0.9 3.898,1.35 6,1.35 2.533,0 5.066,-0.7 7.6,-2.1 0,0 0,1.75 0,1.75 0,0 -15.951,3.5 -15.951,3.5 -1.714,-0.725 -3.315,-1.692 -4.799,-2.9 0,0 -0.65,0.15 -0.65,0.15 1.378,1.194 2.895,2.177 4.55,2.95 0,0 -6,1.349 -6,1.349 -2.09,-1.459 -3.707,-2.425 -4.851,-2.899 -0.018,-0.016 -0.051,-0.032 -0.099,-0.05 0,0 26.95,-5.95 26.95,-5.95 z"
               inkscape:connector-curvature="0"
               style="fill:#bf9a2f;fill-opacity:1" />
          </g>
          <g
             id="g3115"
             transform="translate(73.4,55.225)"
             style="opacity:1;fill:#bf9a2f;fill-opacity:1">
            <path
               id="path3113"
               d="m 0,0 m 23.15,-6.825 c 0,0 -0.849,-0.2 -0.849,-0.2 0,0 -26.951,5.951 -26.951,5.951 0.047,0.017 0.081,0.034 0.099,0.049 1.144,0.474 2.762,1.441 4.852,2.9 0,0 6,-1.35 6,-1.35 -1.655,-0.772 -3.172,-1.756 -4.55,-2.95 0,0 0.649,-0.149 0.649,-0.149 1.485,1.208 3.085,2.174 4.8,2.899 0,0 15.95,-3.5 15.95,-3.5 0,0 0,-1.75 0,-1.75 -2.533,1.4 -5.066,2.101 -7.599,2.101 -2.102,0 -4.102,-0.451 -6,-1.351 0,0 0.95,-0.2 0.95,-0.2 4.095,1.684 8.312,1.284 12.649,-1.2 0,0 0,-1.25 0,-1.25 z M 0,0 m -21.499,4.426 c 0.033,0.766 0.199,1.382 0.5,1.849 0,0 0.198,0.25 0.198,0.25 0,0 5.151,-1.15 5.151,-1.15 -0.971,-0.45 -1.638,-1.05 -2,-1.8 -0.234,-0.467 -0.332,-0.95 -0.299,-1.45 0.006,-0.068 0.006,-0.135 0,-0.199 0,0 -3.401,0.75 -3.401,0.75 -0.128,0.551 -0.178,1.135 -0.149,1.75 z M 0,0 m -5.101,3.075 c -0.592,-0.202 -1.342,-0.436 -2.25,-0.7 -1.166,-0.333 -1.965,-0.6 -2.398,-0.8 -0.629,-0.299 -1.046,-0.699 -1.25,-1.2 0,0 -6.351,1.4 -6.351,1.4 -0.003,0.114 -0.02,0.247 -0.05,0.401 -0.034,0.399 0.034,0.783 0.201,1.149 0.392,0.785 1.225,1.401 2.5,1.851 0,0 9.598,-2.101 9.598,-2.101 z M 0,0 m -10.449,0.275 c 0.172,0.345 0.521,0.628 1.049,0.85 0.366,0.2 1.099,0.45 2.2,0.75 1.13,0.268 2.164,0.585 3.099,0.95 0,0 3.701,-0.8 3.701,-0.8 -2.517,-1.706 -4.234,-2.656 -5.151,-2.849 0,0 -4.898,1.099 -4.898,1.099 z M 0,0 m -21.999,2.825 c 0,0 -1.151,0.25 -1.151,0.25 0,0 0,3.95 0,3.95 0,0 1.75,-0.349 1.75,-0.349 0,0 -0.049,-0.101 -0.049,-0.101 -0.63,-0.989 -0.814,-2.239 -0.55,-3.75 z"
               inkscape:connector-curvature="0"
               style="fill:#bf9a2f;fill-opacity:1" />
          </g>
          <g
             id="g3119"
             transform="translate(58.775,58.375)"
             style="opacity:1;fill:#bf9a2f;fill-opacity:1">
            <path
               id="path3117"
               d="m 0,0 m -6.725,-0.525 c 0.004,0.023 0.004,0.04 0,0.05 0,0 3.401,-0.75 3.401,-0.75 0,0 0,-0.05 0,-0.05 0,0 -3.401,0.75 -3.401,0.75 z M 0,0 M 3.626,-2.775 C 3.62,-2.778 3.604,-2.796 3.575,-2.825 c 0,0 -6.3,1.4 -6.3,1.4 0,0 0,0.05 0,0.05 0,0 6.351,-1.4 6.351,-1.4 z M 0,0 m 9.075,-3.975 c -0.071,0.004 -0.137,0.004 -0.199,0 0,0 -4.75,1.05 -4.75,1.05 0.023,0.018 0.039,0.035 0.05,0.05 0,0 4.899,-1.1 4.899,-1.1 z M 0,0 m -9.074,-0.125 c 0,0 0,4.05 0,4.05 0,0 0.25,0.05 0.25,0.05 0,0 0.299,-0.1 0.299,-0.1 0,0 0,-3.95 0,-3.95 0,0 1.151,-0.25 1.151,-0.25 0.022,-0.021 0.038,-0.037 0.05,-0.05 0,0 -1.201,0.25 -1.201,0.25 0,0 0,-0.2 0,-0.2 0,-0.2 -0.099,-0.3 -0.299,-0.3 -0.167,0 -0.25,0.1 -0.25,0.3 0,0 0,0.2 0,0.2 z"
               inkscape:connector-curvature="0"
               style="fill:#bf9a2f;fill-opacity:1" />
          </g>
          <g
             id="g3123"
             transform="translate(48.825,50.2)"
             style="opacity:1;fill:#bf9a2f;fill-opacity:1">
            <path
               id="path3121"
               d="m 0,0 m -44.725,-2.05 c 0,0 -0.75,0.2 -0.75,0.2 0,0 0,3.7 0,3.7 0,0 46.35,10.25 46.35,10.25 0,0 0,-4.05 0,-4.05 0,0 -45.6,-10.1 -45.6,-10.1 z M 0,0 m 45.475,-2.3 c 0,0 -44.3,-9.8 -44.3,-9.8 0,0 -44.55,9.75 -44.55,9.75 0,0 44.5,9.9 44.5,9.9 0,0 44.35,-9.85 44.35,-9.85 z"
               inkscape:connector-curvature="0"
               style="fill:#bf9a2f;fill-opacity:1" />
          </g>
        </g>
        <g
           id="g3143"
           transform="translate(0,-10)"
           style="opacity:1;fill:#bf9a2f;fill-opacity:1">
          <g
             id="g3129"
             transform="translate(49.975,30.625)"
             style="opacity:1;fill:#bf9a2f;fill-opacity:1">
            <path
               id="path3127"
               d="m 0,0 m 47.975,-2.375 c 0,-0.367 -0.183,-0.583 -0.55,-0.65 0,0 -47.25,-10.45 -47.25,-10.45 0,0 -0.3,0 -0.3,0 0,0 -47.35,10.4 -47.35,10.4 -0.333,0.067 -0.5,0.284 -0.5,0.65 0,0 0,4.8 0,4.8 0,0.367 0.167,0.584 0.5,0.65 31.433,6.967 47.3,10.45 47.6,10.45 0,0 47.3,-10.45 47.3,-10.45 0.367,-0.066 0.55,-0.283 0.55,-0.65 0,0 0,-4.75 0,-4.75 z M 0,0 m 46.175,-1.925 c 0,0 0.4,0.1 0.4,0.1 0,0 0,1.45 0,1.45 -4.344,2.488 -8.561,2.888 -12.65,1.2 0,0 -0.05,-0.05 -0.05,-0.05 0,0 1.7,-0.35 1.7,-0.35 0,0 10.6,-2.35 10.6,-2.35 z M 0,0 m 46.575,0.275 c 0,0 0,1.55 0,1.55 0,0 -16.25,3.6 -16.25,3.6 -1.606,-0.733 -3.106,-1.667 -4.5,-2.8 0.004,-0.011 -0.013,-0.028 -0.05,-0.05 0,0 7.2,-1.6 7.2,-1.6 0,0 0,0.05 0,0.05 1.899,0.9 3.899,1.35 6,1.35 2.533,0 5.067,-0.7 7.6,-2.1 z M 0,0 m 25.125,2.725 c 0,0 0.05,0.05 0.05,0.05 1.345,1.174 2.746,2.124 4.2,2.85 0,0 -5.85,1.3 -5.85,1.3 -1.999,-1.4 -3.549,-2.317 -4.65,-2.75 -0.018,-0.007 -0.035,-0.024 -0.05,-0.05 0,0 6.3,-1.4 6.3,-1.4 z M 0,0 m 17.675,4.375 c 0,0 0,0.05 0,0.05 0,0 0.05,0 0.05,0 0.905,0.093 2.606,0.976 5.1,2.65 0,0 -3.85,0.85 -3.85,0.85 -0.628,-0.219 -1.545,-0.502 -2.75,-0.85 -1.066,-0.267 -1.8,-0.5 -2.2,-0.7 -0.537,-0.226 -0.903,-0.526 -1.1,-0.9 0,0 0,-0.05 0,-0.05 0,0 4.75,-1.05 4.75,-1.05 z M 0,0 m 12.425,5.575 c 0,0 0,0 0,0 0.2,0.532 0.616,0.948 1.25,1.25 0.433,0.2 1.234,0.467 2.4,0.8 0.698,0.166 1.331,0.333 1.9,0.5 0,0 -9.65,2.15 -9.65,2.15 -1.029,-0.417 -1.729,-0.984 -2.1,-1.7 -0.167,-0.366 -0.233,-0.767 -0.2,-1.2 0,0 0.05,-0.4 0.05,-0.4 0,0 5.15,-1.15 5.15,-1.15 0,0 1.2,-0.25 1.2,-0.25 z M 0,0 m 2.075,7.875 c 0,0 0,0 0,0 0,0 1.3,-0.3 1.3,-0.3 0,0 2.1,-0.45 2.1,-0.45 0.005,0.065 0.005,0.132 0,0.2 -0.033,0.5 0.067,0.983 0.3,1.45 0.33,0.682 0.913,1.249 1.75,1.7 0,0 -5.05,1.1 -5.05,1.1 0,0 -0.05,-0.1 -0.05,-0.1 -0.3,-0.467 -0.466,-1.083 -0.5,-1.85 -0.03,-0.63 0.02,-1.214 0.15,-1.75 z M 0,0 m 0.025,-12.125 c 0,0 44.9,9.95 44.9,9.95 0,0 -44.95,9.95 -44.95,9.95 0,0 -45.1,-10 -45.1,-10 0,0 45.15,-9.9 45.15,-9.9 z M 0,0 m -46.625,-1.875 c 0,0 0.3,-0.1 0.3,-0.1 0,0 46.05,10.25 46.05,10.25 0,0 0,3.8 0,3.8 0,0 -46.35,-10.25 -46.35,-10.25 0,0 0,-3.7 0,-3.7 z M 0,0 m 0.275,8.275 c 0,0 0,0 0,0 0,0 1.2,-0.3 1.2,-0.3 0,0 0,0.05 0,0.05 -0.296,1.49 -0.146,2.707 0.45,3.65 0,0 -1.65,0.35 -1.65,0.35 0,0 0,-3.75 0,-3.75 z"
               inkscape:connector-curvature="0"
               style="fill:#bf9a2f;fill-opacity:1" />
          </g>
          <g
             id="g3133"
             transform="translate(73.4,35.675)"
             style="opacity:1;fill:#bf9a2f;fill-opacity:1">
            <path
               id="path3131"
               d="m 0,0 m -21.95,2.975 c 0,0 -1.2,0.25 -1.2,0.25 0,0 0,3.75 0,3.75 0,0 1.651,-0.35 1.651,-0.35 -0.597,-0.943 -0.747,-2.16 -0.451,-3.65 z M 0,0 m -20.999,6.425 c 0,0 0.049,0.1 0.049,0.1 0,0 5.05,-1.1 5.05,-1.1 -0.837,-0.451 -1.42,-1.018 -1.75,-1.7 -0.233,-0.467 -0.333,-0.95 -0.3,-1.45 0.005,-0.068 0.005,-0.135 0,-0.2 0,0 -2.1,0.45 -2.1,0.45 0,0 -1.3,0.3 -1.3,0.3 -0.13,0.536 -0.18,1.12 -0.149,1.75 0.033,0.767 0.199,1.383 0.5,1.85 z M 0,0 m -10.999,0.525 c 0,0 -1.201,0.25 -1.201,0.25 0,0 -5.15,1.15 -5.15,1.15 0,0 -0.05,0.4 -0.05,0.4 -0.033,0.433 0.033,0.834 0.2,1.2 0.371,0.716 1.072,1.283 2.1,1.7 0,0 9.65,-2.15 9.65,-2.15 -0.569,-0.167 -1.202,-0.334 -1.9,-0.5 -1.166,-0.333 -1.967,-0.6 -2.399,-0.8 -0.635,-0.302 -1.051,-0.718 -1.25,-1.25 z M 0,0 m -7.2,2.025 c 1.205,0.348 2.122,0.631 2.75,0.85 0,0 3.85,-0.85 3.85,-0.85 -2.494,-1.674 -4.194,-2.557 -5.1,-2.65 0,0 -4.799,1.05 -4.799,1.05 0.196,0.374 0.562,0.674 1.099,0.9 0.401,0.2 1.134,0.433 2.2,0.7 z M 0,0 m 0.1,1.875 c 0,0 5.85,-1.3 5.85,-1.3 -1.454,-0.726 -2.855,-1.676 -4.199,-2.85 0,0 -6.301,1.4 -6.301,1.4 1.101,0.434 2.651,1.35 4.65,2.75 z M 0,0 m 23.15,-3.225 c 0,0 0,-1.55 0,-1.55 -2.533,1.4 -5.066,2.1 -7.6,2.1 -2.101,0 -4.101,-0.45 -6,-1.35 0,0 -7.15,1.6 -7.15,1.6 1.395,1.133 2.895,2.067 4.5,2.8 0,0 16.25,-3.6 16.25,-3.6 z M 0,0 m 23.15,-6.875 c 0,0 -0.399,-0.1 -0.399,-0.1 0,0 -10.601,2.35 -10.601,2.35 0,0 -1.649,0.4 -1.649,0.4 4.088,1.688 8.305,1.288 12.649,-1.2 0,0 0,-1.45 0,-1.45 z"
               inkscape:connector-curvature="0"
               style="fill:#bf9a2f;fill-opacity:1" />
          </g>
          <g
             id="g3137"
             transform="translate(67.9,34.975)"
             style="opacity:1;fill:#bf9a2f;fill-opacity:1">
            <path
               id="path3135"
               d="m 0,0 m -17.65,3.925 c 0,0 0,0 0,0 0,0 1.201,-0.25 1.201,-0.25 0,0 0,-0.05 0,-0.05 0,0 -1.201,0.3 -1.201,0.3 z M 0,0 m -15.85,3.525 c 0,0 0,0 0,0 0,0 1.3,-0.3 1.3,-0.3 0,0 -1.3,0.3 -1.3,0.3 z M 0,0 m -5.499,1.225 c 0,0 0,0 0,0 0,0 -1.2,0.25 -1.2,0.25 0,0 1.2,-0.25 1.2,-0.25 z M 0,0 m -0.249,0.075 c 0,0 0,-0.05 0,-0.05 0,0 -4.75,1.05 -4.75,1.05 0,0 0,0.05 0,0.05 0,0 4.8,-1.05 4.8,-1.05 0,0 -0.05,0 -0.05,0 z M 0,0 m 7.251,-1.575 c 0,0 -0.051,-0.05 -0.051,-0.05 0,0 -6.3,1.4 -6.3,1.4 0.016,0.026 0.032,0.043 0.05,0.05 0,0 6.301,-1.4 6.301,-1.4 z M 0,0 m 15.051,-3.325 c 0,0 0,-0.05 0,-0.05 0,0 -7.201,1.6 -7.201,1.6 0.037,0.022 0.054,0.039 0.05,0.05 0,0 7.151,-1.6 7.151,-1.6 z M 0,0 m 15.95,-3.575 c 0,0 0.051,0.05 0.051,0.05 0,0 1.649,-0.4 1.649,-0.4 0,0 -1.7,0.35 -1.7,0.35 z"
               inkscape:connector-curvature="0"
               style="fill:#bf9a2f;fill-opacity:1" />
          </g>
          <g
             id="g3141"
             transform="translate(49.125,30.6)"
             style="opacity:1;fill:#bf9a2f;fill-opacity:1">
            <path
               id="path3139"
               d="m 0,0 m -45.475,-1.95 c 0,0 -0.3,0.1 -0.3,0.1 0,0 0,3.7 0,3.7 0,0 46.35,10.25 46.35,10.25 0,0 0,-3.8 0,-3.8 0,0 -46.05,-10.25 -46.05,-10.25 z M 0,0 m 45.775,-2.15 c 0,0 -44.9,-9.95 -44.9,-9.95 0,0 -45.15,9.9 -45.15,9.9 0,0 45.1,10 45.1,10 0,0 44.95,-9.95 44.95,-9.95 z"
               inkscape:connector-curvature="0"
               style="fill:#bf9a2f;fill-opacity:1" />
          </g>
        </g>
      </g>
    </g>
  </g>
</svg>
