<svg width="6.8726mm" height="6.8727mm" version="1.1" viewBox="0 0 6.8726 6.8727" xmlns="http://www.w3.org/2000/svg"><g transform="translate(-22.93 -53.079)"><g transform="matrix(.013397 0 0 .013397 22.937 53.086)" fill="#bf9a2f" stroke="#000"><g fill="#bf9a2f" stroke="#000"><path d="m498.81 377.78-63.633-63.647c-16.978-16.978-46.641-17.007-63.647 0l-10.611 10.611 127.28 127.28 10.607-10.607c17.619-17.62 17.56-46.104 0-63.634z" fill="#bf9a2f" stroke="#000"/></g><g fill="#bf9a2f" stroke="#000"><path d="m339.12 345.37c-13.39 10.373-32.492 9.959-44.727-2.303l-125.82-125.9c-12.263-12.263-12.676-31.379-2.303-44.736l-126.99-126.98c-54.631 63.68-52.495 159.63 7.8 219.93l199.1 199.19c57.86 57.858 152.64 65.532 219.93 7.797z" fill="#bf9a2f" stroke="#000"/></g><g fill="#bf9a2f" stroke="#000"><path d="m197.5 76.391-63.633-63.647c-16.978-16.978-46.641-17.007-63.647 0l-10.611 10.611 127.28 127.28 10.607-10.608c17.618-17.618 17.56-46.102 0-63.633z" fill="#bf9a2f" stroke="#000"/></g></g></g></svg>
