<?xml version="1.0" encoding="UTF-8" standalone="no"?>
<!-- Svg Vector Icons : http://www.onlinewebfonts.com/icon -->

<svg
   xmlns:dc="http://purl.org/dc/elements/1.1/"
   xmlns:cc="http://creativecommons.org/ns#"
   xmlns:rdf="http://www.w3.org/1999/02/22-rdf-syntax-ns#"
   xmlns:svg="http://www.w3.org/2000/svg"
   xmlns="http://www.w3.org/2000/svg"
   xmlns:sodipodi="http://sodipodi.sourceforge.net/DTD/sodipodi-0.dtd"
   xmlns:inkscape="http://www.inkscape.org/namespaces/inkscape"
   version="1.1"
   x="0px"
   y="0px"
   viewBox="0 0 56.761002 70.473686"
   enable-background="new 0 0 1000 1000"
   xml:space="preserve"
   id="svg8"
   sodipodi:docname="testomonial.svg"
   width="56.761002"
   height="70.473686"
   inkscape:version="0.92.4 (5da689c313, 2019-01-14)"><defs
   id="defs12" /><sodipodi:namedview
   pagecolor="#ffffff"
   bordercolor="#666666"
   borderopacity="1"
   objecttolerance="10"
   gridtolerance="10"
   guidetolerance="10"
   inkscape:pageopacity="0"
   inkscape:pageshadow="2"
   inkscape:window-width="1366"
   inkscape:window-height="705"
   id="namedview10"
   showgrid="false"
   fit-margin-top="0"
   fit-margin-left="0"
   fit-margin-right="0"
   fit-margin-bottom="0"
   inkscape:zoom="4.1005"
   inkscape:cx="47.425271"
   inkscape:cy="13.583301"
   inkscape:window-x="-4"
   inkscape:window-y="-4"
   inkscape:window-maximized="1"
   inkscape:current-layer="svg8" />
<metadata
   id="metadata2"> Svg Vector Icons : http://www.onlinewebfonts.com/icon <rdf:RDF><cc:Work
     rdf:about=""><dc:format>image/svg+xml</dc:format><dc:type
       rdf:resource="http://purl.org/dc/dcmitype/StillImage" /><dc:title></dc:title></cc:Work></rdf:RDF></metadata>

<g
   id="g880"><g
     transform="matrix(0.07190398,0,0,0.07190398,-7.5714891,-0.71844347)"
     style="fill:#bf9a2f;fill-opacity:1"
     id="g6"><path
       style="fill:#bf9a2f;fill-opacity:1"
       inkscape:connector-curvature="0"
       id="path4"
       d="M 894.7,608.9 C 763.5,621 573.2,856.3 513.6,962.8 455.5,872.3 414.3,812.2 295.8,772.3 l 108.9,-54.4 108.9,163.3 c 0,0 150.3,-306.6 353.9,-408.3 -2.2,70.9 3,93 27.2,136 z M 758.6,227.8 c 0.6,-65.6 -14.3,-80.6 -81.7,-81.7 H 568 V 91.7 h 163.3 c 41.2,0 81.7,43.4 81.7,81.7 V 445.6 C 781,477.5 758.6,500 758.6,500 Z M 622.5,200.6 c 25.6,0.6 25.3,11.9 27.2,27.2 2.1,17 0,27.2 0,27.2 H 268.6 c 0,0 0.7,-10.1 0,-27.2 -0.9,-20.7 16.5,-28.5 27.2,-27.2 h 81.7 c 0,0 1.6,-48.9 0,-108.9 -0.9,-34 25.9,-81 81.7,-81.7 56.3,-0.6 81.7,31.4 81.7,81.7 0,54.1 0,108.9 0,108.9 z M 459.2,91.7 c -15,0 -27.2,12.2 -27.2,27.2 0,15 12.2,27.2 27.2,27.2 15,0 27.2,-12.2 27.2,-27.2 0,-15 -12.2,-27.2 -27.2,-27.2 z M 159.7,227.8 v 626.1 c -0.8,59.2 19.4,82.9 81.7,81.7 -25.4,0.1 190.5,0 190.5,0 33.4,17.9 35.2,34 47.3,54.4 H 187 c -41.7,-0.4 -81.7,-41.2 -81.7,-83.4 V 173.4 c 0,-41.6 39.3,-81.1 81.7,-81.7 h 163.3 v 54.4 H 241.4 c -54.3,-0.3 -81.7,37.7 -81.7,81.7 z m 544.5,707.8 c 35.9,0 54.4,-37.4 54.4,-54.4 V 745 c 4.5,-26 34,-37.6 54.4,-54.4 v 217.8 c 0.4,40.7 -41.7,81.7 -81.7,81.7 h -173 c -0.1,-20.3 21.3,-33.6 36.8,-54.4 h 109.1 z" /></g><g
     transform="translate(0.4877454,4.1458359)"
     id="g869"><path
       sodipodi:type="star"
       style="opacity:1;fill:#bf9a2f;fill-opacity:1;stroke:none;stroke-width:12.00199986;stroke-miterlimit:4;stroke-dasharray:none;stroke-opacity:1"
       id="path825"
       sodipodi:sides="5"
       sodipodi:cx="273.13742"
       sodipodi:cy="352.27411"
       sodipodi:r1="53.572121"
       sodipodi:r2="26.78606"
       sodipodi:arg1="0.57790194"
       sodipodi:arg2="1.2062205"
       inkscape:flatsided="false"
       inkscape:rounded="0"
       inkscape:randomized="0"
       d="m 318.01,381.53883 -35.32193,-4.23917 -23.51667,26.6941 -6.88338,-34.90312 -32.65465,-14.11675 31.06776,-17.33214 3.33499,-35.41874 26.08431,24.19127 34.71579,-7.77323 -14.94677,32.28317 z"
       inkscape:transform-center-x="-0.068958637"
       inkscape:transform-center-y="-3.3849415"
       transform="matrix(0.04520476,0.01757236,-0.01757236,0.04520476,3.3185039,11.611693)" /><path
       transform="matrix(0.04520476,0.01757236,-0.01757236,0.04520476,3.3185039,11.611693)"
       inkscape:transform-center-y="-3.3849415"
       inkscape:transform-center-x="-0.068958637"
       d="m 318.01,381.53883 -35.32193,-4.23917 -23.51667,26.6941 -6.88338,-34.90312 -32.65465,-14.11675 31.06776,-17.33214 3.33499,-35.41874 26.08431,24.19127 34.71579,-7.77323 -14.94677,32.28317 z"
       inkscape:randomized="0"
       inkscape:rounded="0"
       inkscape:flatsided="false"
       sodipodi:arg2="1.2062205"
       sodipodi:arg1="0.57790194"
       sodipodi:r2="26.78606"
       sodipodi:r1="53.572121"
       sodipodi:cy="352.27411"
       sodipodi:cx="273.13742"
       sodipodi:sides="5"
       id="path835"
       style="opacity:1;fill:#bf9a2f;fill-opacity:1;stroke:none;stroke-width:12.00199986;stroke-miterlimit:4;stroke-dasharray:none;stroke-opacity:1"
       sodipodi:type="star" /><path
       sodipodi:type="star"
       style="opacity:1;fill:#bf9a2f;fill-opacity:1;stroke:none;stroke-width:12.00199986;stroke-miterlimit:4;stroke-dasharray:none;stroke-opacity:1"
       id="path837"
       sodipodi:sides="5"
       sodipodi:cx="273.13742"
       sodipodi:cy="352.27411"
       sodipodi:r1="53.572121"
       sodipodi:r2="26.78606"
       sodipodi:arg1="0.57790194"
       sodipodi:arg2="1.2062205"
       inkscape:flatsided="false"
       inkscape:rounded="0"
       inkscape:randomized="0"
       d="m 318.01,381.53883 -35.32193,-4.23917 -23.51667,26.6941 -6.88338,-34.90312 -32.65465,-14.11675 31.06776,-17.33214 3.33499,-35.41874 26.08431,24.19127 34.71579,-7.77323 -14.94677,32.28317 z"
       inkscape:transform-center-x="-0.068958637"
       inkscape:transform-center-y="-3.3849415"
       transform="matrix(0.04520476,0.01757236,-0.01757236,0.04520476,35.022539,11.611693)" /><path
       transform="matrix(0.04520476,0.01757236,-0.01757236,0.04520476,27.306955,11.611693)"
       inkscape:transform-center-y="-3.3849415"
       inkscape:transform-center-x="-0.068958637"
       d="m 318.01,381.53883 -35.32193,-4.23917 -23.51667,26.6941 -6.88338,-34.90312 -32.65465,-14.11675 31.06776,-17.33214 3.33499,-35.41874 26.08431,24.19127 34.71579,-7.77323 -14.94677,32.28317 z"
       inkscape:randomized="0"
       inkscape:rounded="0"
       inkscape:flatsided="false"
       sodipodi:arg2="1.2062205"
       sodipodi:arg1="0.57790194"
       sodipodi:r2="26.78606"
       sodipodi:r1="53.572121"
       sodipodi:cy="352.27411"
       sodipodi:cx="273.13742"
       sodipodi:sides="5"
       id="path839"
       style="opacity:1;fill:#bf9a2f;fill-opacity:1;stroke:none;stroke-width:12.00199986;stroke-miterlimit:4;stroke-dasharray:none;stroke-opacity:1"
       sodipodi:type="star" /><path
       sodipodi:type="star"
       style="opacity:1;fill:#bf9a2f;fill-opacity:1;stroke:none;stroke-width:12.00199986;stroke-miterlimit:4;stroke-dasharray:none;stroke-opacity:1"
       id="path841"
       sodipodi:sides="5"
       sodipodi:cx="273.13742"
       sodipodi:cy="352.27411"
       sodipodi:r1="53.572121"
       sodipodi:r2="26.78606"
       sodipodi:arg1="0.57790194"
       sodipodi:arg2="1.2062205"
       inkscape:flatsided="false"
       inkscape:rounded="0"
       inkscape:randomized="0"
       d="m 318.01,381.53883 -35.32193,-4.23917 -23.51667,26.6941 -6.88338,-34.90312 -32.65465,-14.11675 31.06776,-17.33214 3.33499,-35.41874 26.08431,24.19127 34.71579,-7.77323 -14.94677,32.28317 z"
       inkscape:transform-center-x="-0.068958637"
       inkscape:transform-center-y="-3.3849415"
       transform="matrix(0.04520476,0.01757236,-0.01757236,0.04520476,18.889955,11.611693)" /><path
       transform="matrix(0.04520476,0.01757236,-0.01757236,0.04520476,11.168023,11.611693)"
       inkscape:transform-center-y="-3.3849415"
       inkscape:transform-center-x="-0.068958637"
       d="m 318.01,381.53883 -35.32193,-4.23917 -23.51667,26.6941 -6.88338,-34.90312 -32.65465,-14.11675 31.06776,-17.33214 3.33499,-35.41874 26.08431,24.19127 34.71579,-7.77323 -14.94677,32.28317 z"
       inkscape:randomized="0"
       inkscape:rounded="0"
       inkscape:flatsided="false"
       sodipodi:arg2="1.2062205"
       sodipodi:arg1="0.57790194"
       sodipodi:r2="26.78606"
       sodipodi:r1="53.572121"
       sodipodi:cy="352.27411"
       sodipodi:cx="273.13742"
       sodipodi:sides="5"
       id="path843"
       style="opacity:1;fill:#bf9a2f;fill-opacity:1;stroke:none;stroke-width:12.00199986;stroke-miterlimit:4;stroke-dasharray:none;stroke-opacity:1"
       sodipodi:type="star" /></g></g></svg>