<?xml version="1.0" encoding="UTF-8" standalone="no"?>
<!-- Created with Inkscape (http://www.inkscape.org/) -->

<svg
   xmlns:dc="http://purl.org/dc/elements/1.1/"
   xmlns:cc="http://creativecommons.org/ns#"
   xmlns:rdf="http://www.w3.org/1999/02/22-rdf-syntax-ns#"
   xmlns:svg="http://www.w3.org/2000/svg"
   xmlns="http://www.w3.org/2000/svg"
   xmlns:sodipodi="http://sodipodi.sourceforge.net/DTD/sodipodi-0.dtd"
   xmlns:inkscape="http://www.inkscape.org/namespaces/inkscape"
   width="31.102425"
   height="25.918224"
   viewBox="0 0 8.2291828 6.8575304"
   version="1.1"
   id="svg2389"
   inkscape:version="0.92.4 (5da689c313, 2019-01-14)"
   sodipodi:docname="twitter.svg">
  <defs
     id="defs2383" />
  <sodipodi:namedview
     id="base"
     pagecolor="#ffffff"
     bordercolor="#666666"
     borderopacity="1.0"
     inkscape:pageopacity="0.0"
     inkscape:pageshadow="2"
     inkscape:zoom="0.98994949"
     inkscape:cx="58.547584"
     inkscape:cy="-28.224587"
     inkscape:document-units="px"
     inkscape:current-layer="layer1"
     showgrid="false"
     units="px"
     fit-margin-top="0"
     fit-margin-left="0"
     fit-margin-right="0"
     fit-margin-bottom="0"
     inkscape:window-width="1366"
     inkscape:window-height="705"
     inkscape:window-x="-4"
     inkscape:window-y="-4"
     inkscape:window-maximized="1" />
  <metadata
     id="metadata2386">
    <rdf:RDF>
      <cc:Work
         rdf:about="">
        <dc:format>image/svg+xml</dc:format>
        <dc:type
           rdf:resource="http://purl.org/dc/dcmitype/StillImage" />
        <dc:title></dc:title>
      </cc:Work>
    </rdf:RDF>
  </metadata>
  <g
     inkscape:label="Layer 1"
     inkscape:groupmode="layer"
     id="layer1"
     transform="translate(-47.519183,-134.50804)">
    <path
       style="fill:#bf9a2f;fill-opacity:1;stroke-width:0.1640726"
       inkscape:connector-curvature="0"
       id="path22"
       d="m 55.748366,135.31969 c -0.302641,0.13773 -0.62806,0.23081 -0.969518,0.27275 0.348479,-0.21436 0.616098,-0.55362 0.742148,-0.95779 -0.326185,0.19847 -0.687385,0.34243 -1.072106,0.42002 -0.307801,-0.33637 -0.746593,-0.54663 -1.232165,-0.54663 -0.932468,0 -1.688203,0.77505 -1.688203,1.73117 0,0.13574 0.01489,0.26791 0.04369,0.39453 -1.403142,-0.0721 -2.64713,-0.76153 -3.479782,-1.80883 -0.14534,0.25558 -0.228579,0.55293 -0.228579,0.87025 0,0.60071 0.297922,1.13051 0.751064,1.44109 -0.276761,-0.009 -0.537098,-0.0868 -0.764746,-0.21655 -1.38e-4,0.008 -1.38e-4,0.0145 -1.38e-4,0.0217 0,0.83894 0.582008,1.5385 1.354272,1.69765 -0.141541,0.0396 -0.290641,0.0605 -0.44466,0.0605 -0.108888,0 -0.214456,-0.0106 -0.317735,-0.0309 0.215005,0.68777 0.838353,1.18836 1.577247,1.20237 -0.578277,0.46442 -1.306088,0.74105 -2.097111,0.74105 -0.136193,0 -0.270668,-0.008 -0.402861,-0.0242 0.747435,0.49119 1.634714,0.7777 2.58823,0.7777 3.105257,0 4.803134,-2.6379 4.803134,-4.92584 0,-0.075 -0.0014,-0.14954 -0.0049,-0.22378 0.329721,-0.24428 0.615885,-0.54911 0.842386,-0.89636"
       inkscape:export-filename="C:\Users\root_x90\Desktop\bitmap.png"
       inkscape:export-xdpi="90"
       inkscape:export-ydpi="90" />
  </g>
</svg>
