<?xml version="1.0" encoding="UTF-8" standalone="no"?>
<!-- Generator: Adobe Illustrator 19.0.0, SVG Export Plug-In . SVG Version: 6.00 Build 0)  -->

<svg
   xmlns:dc="http://purl.org/dc/elements/1.1/"
   xmlns:cc="http://creativecommons.org/ns#"
   xmlns:rdf="http://www.w3.org/1999/02/22-rdf-syntax-ns#"
   xmlns:svg="http://www.w3.org/2000/svg"
   xmlns="http://www.w3.org/2000/svg"
   xmlns:sodipodi="http://sodipodi.sourceforge.net/DTD/sodipodi-0.dtd"
   xmlns:inkscape="http://www.inkscape.org/namespaces/inkscape"
   version="1.1"
   id="Capa_1"
   x="0px"
   y="0px"
   viewBox="0 0 20.215353 20.21387"
   xml:space="preserve"
   sodipodi:docname="up.svg"
   width="20.215353"
   height="20.213869"
   inkscape:version="0.92.4 (5da689c313, 2019-01-14)"><metadata
   id="metadata39"><rdf:RDF><cc:Work
       rdf:about=""><dc:format>image/svg+xml</dc:format><dc:type
         rdf:resource="http://purl.org/dc/dcmitype/StillImage" /><dc:title></dc:title></cc:Work></rdf:RDF></metadata><defs
   id="defs37" /><sodipodi:namedview
   pagecolor="#ffffff"
   bordercolor="#666666"
   borderopacity="1"
   objecttolerance="10"
   gridtolerance="10"
   guidetolerance="10"
   inkscape:pageopacity="0"
   inkscape:pageshadow="2"
   inkscape:window-width="1366"
   inkscape:window-height="705"
   id="namedview35"
   showgrid="false"
   fit-margin-top="0"
   fit-margin-left="0"
   fit-margin-right="0"
   fit-margin-bottom="0"
   inkscape:zoom="4.9338693"
   inkscape:cx="66.448272"
   inkscape:cy="16.151039"
   inkscape:window-x="-4"
   inkscape:window-y="-4"
   inkscape:window-maximized="1"
   inkscape:current-layer="Capa_1" />
<path
   d="m 3.7739292,20.213869 6.3337478,-6.614144 6.333747,6.614144 3.773929,-3.772115 -2.879857,-3.007576 2.879857,-2.878413 L 10.107718,0 0,10.555723 2.8798575,13.434137 0,16.441754 Z M 1.769951,10.536582 10.107718,1.8286126 18.445485,10.536624 16.461226,12.519645 10.107718,5.8850822 3.7541691,12.519604 Z m 8.337767,-2.8222686 8.337767,8.7076806 -1.984259,1.983641 -6.353508,-6.63514 -6.3535489,6.63514 -1.9842593,-1.983641 z"
   id="path2"
   inkscape:connector-curvature="0"
   style="fill:#bf912f;fill-opacity:1;stroke-width:0.0412528" />
<g
   id="g4"
   transform="translate(0,-0.019)">
</g>
<g
   id="g6"
   transform="translate(0,-0.019)">
</g>
<g
   id="g8"
   transform="translate(0,-0.019)">
</g>
<g
   id="g10"
   transform="translate(0,-0.019)">
</g>
<g
   id="g12"
   transform="translate(0,-0.019)">
</g>
<g
   id="g14"
   transform="translate(0,-0.019)">
</g>
<g
   id="g16"
   transform="translate(0,-0.019)">
</g>
<g
   id="g18"
   transform="translate(0,-0.019)">
</g>
<g
   id="g20"
   transform="translate(0,-0.019)">
</g>
<g
   id="g22"
   transform="translate(0,-0.019)">
</g>
<g
   id="g24"
   transform="translate(0,-0.019)">
</g>
<g
   id="g26"
   transform="translate(0,-0.019)">
</g>
<g
   id="g28"
   transform="translate(0,-0.019)">
</g>
<g
   id="g30"
   transform="translate(0,-0.019)">
</g>
<g
   id="g32"
   transform="translate(0,-0.019)">
</g>
</svg>