<?xml version="1.0" encoding="UTF-8" standalone="no"?>
<svg
   xmlns:dc="http://purl.org/dc/elements/1.1/"
   xmlns:cc="http://creativecommons.org/ns#"
   xmlns:rdf="http://www.w3.org/1999/02/22-rdf-syntax-ns#"
   xmlns:svg="http://www.w3.org/2000/svg"
   xmlns="http://www.w3.org/2000/svg"
   xmlns:xlink="http://www.w3.org/1999/xlink"
   xmlns:sodipodi="http://sodipodi.sourceforge.net/DTD/sodipodi-0.dtd"
   xmlns:inkscape="http://www.inkscape.org/namespaces/inkscape"
   id="Layer_1"
   data-name="Layer 1"
   viewBox="0 0 55.17189 40.344078"
   width="55.17189"
   height="40.344078"
   version="1.1"
   sodipodi:docname="values.svg"
   inkscape:version="0.92.4 (5da689c313, 2019-01-14)">
  <metadata
     id="metadata21">
    <rdf:RDF>
      <cc:Work
         rdf:about="">
        <dc:format>image/svg+xml</dc:format>
        <dc:type
           rdf:resource="http://purl.org/dc/dcmitype/StillImage" />
        <dc:title>value customers users viewer</dc:title>
      </cc:Work>
    </rdf:RDF>
  </metadata>
  <defs
     id="defs19">
    <linearGradient
       inkscape:collect="always"
       id="linearGradient927">
      <stop
         style="stop-color:#bf9a2f;stop-opacity:1;"
         offset="0"
         id="stop923" />
      <stop
         style="stop-color:#000000;stop-opacity:0.95089287"
         offset="1"
         id="stop925" />
    </linearGradient>
    <linearGradient
       inkscape:collect="always"
       xlink:href="#linearGradient927"
       id="linearGradient929"
       x1="-0.43969501"
       y1="20.268679"
       x2="90.321472"
       y2="8.7812986"
       gradientUnits="userSpaceOnUse" />
  </defs>
  <sodipodi:namedview
     pagecolor="#ffffff"
     bordercolor="#666666"
     borderopacity="1"
     objecttolerance="10"
     gridtolerance="10"
     guidetolerance="10"
     inkscape:pageopacity="0"
     inkscape:pageshadow="2"
     inkscape:window-width="1366"
     inkscape:window-height="705"
     id="namedview17"
     showgrid="false"
     fit-margin-top="0"
     fit-margin-left="0"
     fit-margin-right="0"
     fit-margin-bottom="0"
     inkscape:zoom="4.0043945"
     inkscape:cx="30.167713"
     inkscape:cy="14.284819"
     inkscape:window-x="-4"
     inkscape:window-y="-4"
     inkscape:window-maximized="1"
     inkscape:current-layer="Layer_1" />
  <title
     id="title2">value customers users viewer</title>
  <g
     id="g921"
     style="fill:url(#linearGradient929);fill-opacity:1">
    <path
       id="path4"
       d="m 48.937476,23.800507 -0.282782,0.111859 c -1.142333,-1.01617 -3.121447,-1.409949 -4.629298,-0.84978 -0.0053,0.0019 -0.01066,0.004 -0.01597,0.006 l -0.667612,0.26348 A 5.0699223,3.7164293 0 0 0 37.53597,22.947564 l -3.594976,1.433194 h -4.783683 a 6.9099105,5.0652047 0 0 1 -2.991143,-0.502404 l -0.658075,-0.233331 a 11.288973,8.2752097 0 0 0 -11.74903,0.841127 c -0.01561,0.0087 -0.03088,0.01748 -0.04542,0.02736 l -1.588806,1.036805 a 5.5109043,4.0396845 0 0 1 -2.079494,0.849691 L 9.1429914,24.228716 A 0.71529931,0.52433926 0 0 0 8.4588076,23.857309 H 0.77494323 a 0.71529931,0.52433926 0 0 0 -0.71005377,0.587785 l 2.56124834,15.3946 a 0.71529931,0.52433926 0 0 0 0.7100539,0.460895 H 14.861333 a 0.71529931,0.52433926 0 0 0 0.684184,-0.677272 l -1.514051,-3.641885 4.715491,-2.184747 a 2.8373539,2.0798791 0 0 1 2.070196,-0.196365 c 0.01478,0.0027 0.02968,0.0051 0.04471,0.0071 l 9.592044,1.294769 a 12.41247,9.0987718 0 0 0 7.670036,-0.79385 0.70552355,0.5171733 0 0 0 0.08751,-0.03758 l 16.590652,-8.350277 a 0.71529931,0.52433926 0 0 0 0.207914,-0.702702 4.5540723,3.3382933 0 0 0 -6.072534,-1.217253 z m -4.258058,0.194704 c 0.872069,-0.32011 1.969935,-0.05767 2.671167,0.432842 l -6.291296,2.487989 -0.369571,0.142709 A 5.4543957,3.9982617 0 0 0 39.82802,25.911234 Z m -6.451165,-0.129774 c 0.0056,-0.0024 0.01189,-0.0046 0.01693,-0.0071 a 3.6380123,2.6667895 0 0 1 3.700124,0.02551 l -3.198699,1.262435 a 5.435321,3.9842793 0 0 0 -2.043134,-0.67401 z M 3.9689931,39.25191 1.5828739,24.905988 H 7.9286516 L 13.89544,39.25191 Z M 37.443093,33.184344 a 10.972453,8.0431896 0 0 1 -6.733232,0.685836 l -9.56844,-1.291623 a 4.2652105,3.1265476 0 0 0 -3.109763,0.308923 c -0.01107,0.0044 -0.02218,0.0093 -0.03303,0.01442 l -4.400872,2.039417 -3.135395,-7.537465 a 6.9461523,5.0917712 0 0 0 2.612869,-1.071137 l 1.566387,-1.022463 a 9.8635006,7.2302889 0 0 1 10.242847,-0.722277 l 0.657956,0.233331 a 8.3494504,6.1204375 0 0 0 3.61405,0.607011 h 6.381066 a 4.0355995,2.9582347 0 0 1 3.95799,2.402347 l -4.625007,-0.153369 a 27.695554,20.301804 0 0 0 -5.033323,0.170498 0.71529931,0.52433926 0 0 0 0.19623,1.038716 26.225138,19.223938 0 0 1 4.772358,-0.161497 l 5.442951,0.180461 c 0.0108,0 0.0217,5.24e-4 0.03243,5.24e-4 a 0.71529931,0.52433926 0 0 0 0.7153,-0.524339 c 0,-0.08485 -0.0049,-0.168925 -0.01189,-0.252557 l 0.746415,-0.288387 7.886056,-3.117721 a 3.1251426,2.2908382 0 0 1 3.760566,0.441843 z"
       inkscape:connector-curvature="0"
       style="opacity:1;fill:url(#linearGradient929);fill-opacity:1;stroke:#bf9a2f;stroke-width:1;stroke-miterlimit:4;stroke-dasharray:none;stroke-opacity:1" />
    <path
       id="path6"
       d="m 6.2429296,37.082719 a 2.2520007,1.6507948 0 1 0 2.2520006,-1.650795 2.2545043,1.65263 0 0 0 -2.2520006,1.650795 z m 2.2520006,-0.602116 a 0.82140204,0.60211625 0 1 1 -0.821402,0.602116 0.82259421,0.60299016 0 0 1 0.821402,-0.601942 z"
       inkscape:connector-curvature="0"
       style="fill:url(#linearGradient929);fill-opacity:1;stroke:#bf9a2f;stroke-width:0.30199999;stroke-miterlimit:4;stroke-dasharray:none;stroke-opacity:1" />
    <path
       id="path8"
       d="M 33.024689,5.6325877 V 3.904715 a 5.4295987,3.9800846 0 0 0 -10.859077,0 v 1.7278727 a 5.4295987,3.9800846 0 0 0 10.859077,0 z m -9.428479,0 V 3.904715 a 3.999,2.9314061 0 0 1 7.997881,0 v 1.7278727 a 3.999,2.9314061 0 0 1 -7.997881,0 z"
       inkscape:connector-curvature="0"
       style="fill:url(#linearGradient929);fill-opacity:1;stroke:#bf9a2f;stroke-width:0.40200001;stroke-miterlimit:4;stroke-dasharray:none;stroke-opacity:1" />
    <path
       id="path10"
       d="m 18.843404,20.411964 h 17.503612 a 0.71529931,0.52433926 0 0 0 0.715299,-0.524339 V 18.684091 H 49.044771 A 0.71529931,0.52433926 0 0 0 49.76007,18.159752 V 14.75644 A 5.3615259,3.9301849 0 0 0 44.7401,10.83648 c -0.381493,-0.02053 -0.577604,0.156516 -0.736639,0.298699 A 3.2826277,2.4062802 0 0 1 38.824456,11.04246 0.71529931,0.52433926 0 0 0 38.231353,10.829841 5.3027522,3.8871018 0 0 0 35.600124,11.392544 6.0129252,4.4076832 0 0 0 31.403702,9.8668041 C 31.034131,9.8557924 30.8472,10.02026 30.666109,10.181407 a 3.8516483,2.8233922 0 0 1 -6.077301,-0.108801 0.71315341,0.52276625 0 0 0 -0.593103,-0.212533 5.9864591,4.3882827 0 0 0 -4.154102,1.328326 c -0.09037,0.06773 -0.176083,0.137901 -0.259652,0.209124 a 5.3184888,3.8986372 0 0 0 -2.438814,-0.561217 c -0.380181,-0.02053 -0.577723,0.156514 -0.736639,0.298698 A 3.2825085,2.4061929 0 0 1 11.227612,11.042284 0.71708756,0.52565012 0 0 0 10.63451,10.829663 5.3593801,3.9286119 0 0 0 5.4115134,14.75644 v 3.403312 a 0.71529931,0.52433926 0 0 0 0.7152992,0.524339 H 18.128104 v 1.203534 a 0.71529931,0.52433926 0 0 0 0.7153,0.524339 z M 37.92592,11.895121 a 4.7139416,3.4554831 0 0 0 7.05762,0.01355 3.9325964,2.8827299 0 0 1 3.345931,2.847773 v 2.878972 H 37.062315 V 14.271689 A 5.9846709,4.3869719 0 0 0 36.40126,12.263993 3.8665504,2.8343159 0 0 1 37.92592,11.895121 Z M 23.687411,10.924656 a 5.2830815,3.8726824 0 0 0 7.97964,0.01389 4.5946059,3.3680059 0 0 1 3.965143,3.333138 V 19.36328 H 19.558703 v -5.091596 a 4.6211912,3.3874938 0 0 1 4.128708,-3.347033 z M 6.842112,17.635412 V 14.75644 a 3.9554859,2.8995087 0 0 1 3.487561,-2.860969 4.713584,3.455221 0 0 0 7.056547,0.0132 3.9025538,2.8607076 0 0 1 1.396025,0.361095 5.9931352,4.3931765 0 0 0 -0.654141,2.001927 v 3.363723 z"
       inkscape:connector-curvature="0"
       style="fill:url(#linearGradient929);fill-opacity:1;stroke:#bf9a2f;stroke-width:0.70200002;stroke-miterlimit:4;stroke-dasharray:none;stroke-opacity:1" />
    <path
       id="path12"
       d="M 46.225777,7.1945943 V 5.6821377 a 4.841623,3.549078 0 1 0 -9.683246,0 v 1.5124566 a 4.841623,3.549078 0 1 0 9.683246,0 z m -8.252647,0 V 5.6821377 a 3.4110242,2.5003993 0 1 1 6.822048,0 v 1.5124566 a 3.4110242,2.5003993 0 1 1 -6.822048,0 z"
       inkscape:connector-curvature="0"
       style="fill:url(#linearGradient929);fill-opacity:1;stroke:#bf9a2f;stroke-width:0.40200001;stroke-miterlimit:4;stroke-dasharray:none;stroke-opacity:1" />
    <path
       id="path14"
       d="M 18.629052,7.1945943 V 5.6821377 a 4.8416225,3.5490777 0 1 0 -9.6832447,0 v 1.5124566 a 4.8416225,3.5490777 0 1 0 9.6832447,0 z m -8.252646,0 V 5.6821377 a 3.411024,2.5003992 0 1 1 6.822047,0 v 1.5124566 a 3.411024,2.5003992 0 1 1 -6.822047,0 z"
       inkscape:connector-curvature="0"
       style="fill:url(#linearGradient929);fill-opacity:1;stroke:#bf9a2f;stroke-width:0.50199997;stroke-miterlimit:4;stroke-dasharray:none;stroke-opacity:1" />
  </g>
</svg>
