<svg width="76.663" height="39.749" version="1.1" viewBox="0 -123 57.497 29.812" xmlns="http://www.w3.org/2000/svg" xmlns:xlink="http://www.w3.org/1999/xlink"><defs><linearGradient id="linearGradient836" x1=".0009765" x2="173.99" y1="132.73" y2="524.11" gradientUnits="userSpaceOnUse"><stop stop-color="#bf9a2f" offset="0"/><stop offset="1"/></linearGradient></defs><g transform="matrix(.1123 0 0 .1123 -.00010966 -123)" fill="url(#linearGradient836)"><path d="m508.2 122.66c-1.1484-1.3047-28.652-32.336-73.191-63.633-43.207-30.363-87.629-50.34-130.72-59.031 54.172 19.77 92.949 71.805 92.949 132.73 0 60.926-38.777 112.96-92.949 132.73 43.09-8.6914 87.512-28.664 130.72-59.027 44.539-31.301 72.043-62.332 73.191-63.637 5.0664-5.7539 5.0664-14.379 0-20.137z"/><path d="m114.76 132.73c0-60.926 38.777-112.96 92.949-132.73-43.09 8.6914-87.508 28.668-130.71 59.031-44.539 31.297-72.047 62.328-73.195 63.633-5.0664 5.7578-5.0664 14.383 0 20.137 1.1484 1.3047 28.656 32.336 73.195 63.637 43.207 30.363 87.625 50.336 130.71 59.027-54.172-19.766-92.949-71.805-92.949-132.73z"/><path d="m366.76 132.73c0-61.074-49.688-110.76-110.76-110.76s-110.76 49.688-110.76 110.76c0 61.074 49.688 110.76 110.76 110.76s110.76-49.688 110.76-110.76zm-172.23-14.906c5.9531-5.9531 15.602-5.9531 21.551 0l25.773 25.77 54.055-54.055c5.9492-5.9492 15.598-5.9492 21.551 0 5.9492 5.9531 5.9492 15.602 0 21.551l-64.832 64.832c-2.9766 2.9727-6.875 4.4609-10.773 4.4609-3.8984 0-7.8008-1.4844-10.773-4.4609l-36.547-36.547c-5.9531-5.9531-5.9531-15.602-4e-3 -21.551z"/></g></svg>
